<svg width="181" height="210" viewBox="0 0 181 210" fill="none" xmlns="http://www.w3.org/2000/svg">
<g style="mix-blend-mode:multiply">
<path d="M152.14 36.2303C158.666 39.927 163.983 43.8969 168.092 48.1402C172.428 52.3205 175.232 55.8244 176.504 58.6518L158.237 82.7829C157.28 81.0913 155.95 79.3805 154.248 77.6503C152.547 75.9202 150.101 74.1515 146.911 72.3442C142.125 69.6333 137.562 68.3893 133.222 68.6122C129.026 68.9173 125.368 71.8251 122.246 77.3357L114.606 90.8221L113.984 98.5146L60.8746 192.267L16.9351 167.376L82.4898 51.6538C86.8437 43.968 91.732 38.2131 97.1546 34.3891C102.804 30.5022 108.708 28.1958 114.866 27.47C121.251 26.6812 127.609 27.1226 133.941 28.7941C140.273 30.4656 146.34 32.9443 152.14 36.2303ZM151.417 99.8943L134.289 130.13L45.322 79.7316L62.45 49.496L151.417 99.8943Z" fill="black"/>
</g>
</svg>
