<svg width="218" height="221" viewBox="0 0 218 221" fill="none" xmlns="http://www.w3.org/2000/svg">
<g style="mix-blend-mode:multiply">
<path d="M151.653 39.7098C169.819 49.209 181.649 60.755 187.142 74.3479C192.861 87.8703 192.09 101.573 184.831 115.456C176.722 130.964 165.708 140.157 151.79 143.036C137.872 145.914 121.756 142.565 103.441 132.989L97.7364 133.109L71.1515 119.207L44.6233 169.94L0.315188 146.772L76.7719 0.554683L151.653 39.7098ZM110.516 100.577C116.866 103.898 122.21 105.187 126.548 104.446C131.11 103.634 134.858 100.422 137.793 94.81C140.728 89.1976 141.227 84.2865 139.29 80.0767C137.502 75.9441 133.432 72.2174 127.081 68.8965L103.819 56.733L87.2538 88.4133L110.516 100.577ZM132.341 124.12L140.772 220.216L91.3684 194.383L89.1792 111.707L132.341 124.12Z" fill="black"/>
</g>
</svg>
