<svg width="139" height="129" viewBox="0 0 139 129" fill="none" xmlns="http://www.w3.org/2000/svg">
<path d="M63.0016 15.1882C8.84665 21.413 -13.5947 105.605 55.0583 102.813C137.314 99.4688 117.157 8.96336 63.0016 15.1882Z" fill="#E1F8FF"/>
<mask id="mask0_111_60" style="mask-type:alpha" maskUnits="userSpaceOnUse" x="12" y="14" width="99" height="89">
<path d="M63.0016 15.1882C8.84665 21.413 -13.5947 105.605 55.0583 102.813C137.314 99.4688 117.157 8.96336 63.0016 15.1882Z" fill="#E1F8FF"/>
</mask>
<g mask="url(#mask0_111_60)">
<path d="M50.1908 102.323C50.1908 103.59 49.1608 104.616 47.8902 104.616C46.6197 104.616 45.5897 103.59 45.5897 102.323C45.5897 101.056 46.6197 100.03 47.8902 100.03C49.1608 100.03 50.1908 101.056 50.1908 102.323Z" fill="white"/>
<path d="M49.9816 94.6092C49.9816 95.7606 49.0453 96.694 47.8902 96.694C46.7352 96.694 45.7988 95.7606 45.7988 94.6092C45.7988 93.4578 46.7352 92.5244 47.8902 92.5244C49.0453 92.5244 49.9816 93.4578 49.9816 94.6092Z" fill="white"/>
<path d="M49.5633 86.687C49.5633 87.6081 48.8143 88.3548 47.8902 88.3548C46.9662 88.3548 46.2171 87.6081 46.2171 86.687C46.2171 85.7658 46.9662 85.0191 47.8902 85.0191C48.8143 85.0191 49.5633 85.7658 49.5633 86.687Z" fill="white"/>
<path d="M49.3542 78.9732C49.3542 79.7792 48.6987 80.4325 47.8902 80.4325C47.0817 80.4325 46.4262 79.7792 46.4262 78.9732C46.4262 78.1672 47.0817 77.5138 47.8902 77.5138C48.6987 77.5138 49.3542 78.1672 49.3542 78.9732Z" fill="white"/>
<path d="M48.7268 71.0509C48.7268 71.5115 48.3522 71.8848 47.8902 71.8848C47.4282 71.8848 47.0537 71.5115 47.0537 71.0509C47.0537 70.5904 47.4282 70.217 47.8902 70.217C48.3522 70.217 48.7268 70.5904 48.7268 71.0509Z" fill="white"/>
<path d="M43.9166 100.864C42.7615 100.864 41.8252 99.9302 41.8252 98.7788C41.8252 97.6274 42.7615 96.694 43.9166 96.694C45.0716 96.694 46.008 97.6274 46.008 98.7788C46.008 99.9302 45.0716 100.864 43.9166 100.864Z" fill="white"/>
<path d="M41.8252 94.505C41.8252 95.5988 40.9357 96.4855 39.8384 96.4855C38.7411 96.4855 37.8516 95.5988 37.8516 94.505C37.8516 93.4111 38.7411 92.5244 39.8384 92.5244C40.9357 92.5244 41.8252 93.4111 41.8252 94.505Z" fill="white"/>
<path d="M43.9166 92.7329C42.877 92.7329 42.0343 91.8928 42.0343 90.8566C42.0343 89.8203 42.877 88.9802 43.9166 88.9802C44.9561 88.9802 45.7988 89.8203 45.7988 90.8566C45.7988 91.8928 44.9561 92.7329 43.9166 92.7329Z" fill="white"/>
<path d="M45.3806 83.0385C45.3806 83.9021 44.6783 84.6021 43.812 84.6021C42.9457 84.6021 42.2435 83.9021 42.2435 83.0385C42.2435 82.175 42.9457 81.4749 43.812 81.4749C44.6783 81.4749 45.3806 82.175 45.3806 83.0385Z" fill="white"/>
<path d="M41.6161 86.7912C41.6161 87.7699 40.8202 88.5633 39.8384 88.5633C38.8566 88.5633 38.0607 87.7699 38.0607 86.7912C38.0607 85.8125 38.8566 85.0191 39.8384 85.0191C40.8202 85.0191 41.6161 85.8125 41.6161 86.7912Z" fill="white"/>
<path d="M37.8516 90.6481C37.8516 91.6844 37.0088 92.5244 35.9693 92.5244C34.9298 92.5244 34.0871 91.6844 34.0871 90.6481C34.0871 89.6118 34.9298 88.7718 35.9693 88.7718C37.0088 88.7718 37.8516 89.6118 37.8516 90.6481Z" fill="white"/>
<path d="M33.6688 86.7912C33.6688 87.6548 32.9665 88.3548 32.1002 88.3548C31.234 88.3548 30.5317 87.6548 30.5317 86.7912C30.5317 85.9276 31.234 85.2276 32.1002 85.2276C32.9665 85.2276 33.6688 85.9276 33.6688 86.7912Z" fill="white"/>
<path d="M37.2241 82.9343C37.2241 83.7403 36.5687 84.3937 35.7602 84.3937C34.9516 84.3937 34.2962 83.7403 34.2962 82.9343C34.2962 82.1283 34.9516 81.4749 35.7602 81.4749C36.5687 81.4749 37.2241 82.1283 37.2241 82.9343Z" fill="white"/>
<path d="M41.1978 79.0774C41.1978 79.8258 40.5891 80.4325 39.8384 80.4325C39.0876 80.4325 38.479 79.8258 38.479 79.0774C38.479 78.329 39.0876 77.7223 39.8384 77.7223C40.5891 77.7223 41.1978 78.329 41.1978 79.0774Z" fill="white"/>
<path d="M43.9166 76.2629C43.3391 76.2629 42.8709 75.7962 42.8709 75.2205C42.8709 74.6448 43.3391 74.1781 43.9166 74.1781C44.4941 74.1781 44.9623 74.6448 44.9623 75.2205C44.9623 75.7962 44.4941 76.2629 43.9166 76.2629Z" fill="white"/>
<path d="M43.812 67.9237C43.5233 67.9237 43.2892 67.6904 43.2892 67.4025C43.2892 67.1147 43.5233 66.8813 43.812 66.8813C44.1008 66.8813 44.3349 67.1147 44.3349 67.4025C44.3349 67.6904 44.1008 67.9237 43.812 67.9237Z" fill="white"/>
<path d="M36.8059 75.1163C36.8059 75.6344 36.3845 76.0544 35.8647 76.0544C35.345 76.0544 34.9236 75.6344 34.9236 75.1163C34.9236 74.5982 35.345 74.1781 35.8647 74.1781C36.3845 74.1781 36.8059 74.5982 36.8059 75.1163Z" fill="white"/>
<path d="M40.5704 71.1552C40.5704 71.5581 40.2426 71.8848 39.8384 71.8848C39.4341 71.8848 39.1064 71.5581 39.1064 71.1552C39.1064 70.7522 39.4341 70.4255 39.8384 70.4255C40.2426 70.4255 40.5704 70.7522 40.5704 71.1552Z" fill="white"/>
<path d="M33.0414 78.8689C33.0414 79.5022 32.5264 80.0156 31.8911 80.0156C31.2558 80.0156 30.7408 79.5022 30.7408 78.8689C30.7408 78.2357 31.2558 77.7223 31.8911 77.7223C32.5264 77.7223 33.0414 78.2357 33.0414 78.8689Z" fill="white"/>
<path d="M29.2769 82.7258C29.2769 83.4167 28.7151 83.9767 28.022 83.9767C27.329 83.9767 26.7672 83.4167 26.7672 82.7258C26.7672 82.035 27.329 81.4749 28.022 81.4749C28.7151 81.4749 29.2769 82.035 29.2769 82.7258Z" fill="white"/>
<path d="M25.0941 78.8689C25.0941 79.3871 24.6727 79.8071 24.153 79.8071C23.6332 79.8071 23.2118 79.3871 23.2118 78.8689C23.2118 78.3508 23.6332 77.9308 24.153 77.9308C24.6727 77.9308 25.0941 78.3508 25.0941 78.8689Z" fill="white"/>
<path d="M28.6494 75.1163C28.6494 75.5193 28.3217 75.846 27.9175 75.846C27.5132 75.846 27.1855 75.5193 27.1855 75.1163C27.1855 74.7133 27.5132 74.3866 27.9175 74.3866C28.3217 74.3866 28.6494 74.7133 28.6494 75.1163Z" fill="white"/>
<path d="M32.6231 71.2594C32.6231 71.6048 32.3422 71.8848 31.9957 71.8848C31.6492 71.8848 31.3682 71.6048 31.3682 71.2594C31.3682 70.914 31.6492 70.634 31.9957 70.634C32.3422 70.634 32.6231 70.914 32.6231 71.2594Z" fill="white"/>
<path d="M24.4667 71.2594C24.4667 71.4897 24.2794 71.6764 24.0484 71.6764C23.8174 71.6764 23.6301 71.4897 23.6301 71.2594C23.6301 71.0291 23.8174 70.8424 24.0484 70.8424C24.2794 70.8424 24.4667 71.0291 24.4667 71.2594Z" fill="white"/>
<path d="M20.7022 74.9078C20.7022 75.1957 20.4681 75.429 20.1793 75.429C19.8906 75.429 19.6565 75.1957 19.6565 74.9078C19.6565 74.62 19.8906 74.3866 20.1793 74.3866C20.4681 74.3866 20.7022 74.62 20.7022 74.9078Z" fill="white"/>
<path d="M42.0343 102.323C42.0343 103.59 41.0044 104.616 39.7338 104.616C38.4633 104.616 37.4333 103.59 37.4333 102.323C37.4333 101.056 38.4633 100.03 39.7338 100.03C41.0044 100.03 42.0343 101.056 42.0343 102.323Z" fill="white"/>
<path d="M37.8516 98.4661C37.8516 99.5599 36.962 100.447 35.8647 100.447C34.7674 100.447 33.8779 99.5599 33.8779 98.4661C33.8779 97.3723 34.7674 96.4855 35.8647 96.4855C36.962 96.4855 37.8516 97.3723 37.8516 98.4661Z" fill="white"/>
<path d="M33.8779 94.6092C33.8779 95.6455 33.0352 96.4855 31.9957 96.4855C30.9561 96.4855 30.1134 95.6455 30.1134 94.6092C30.1134 93.573 30.9561 92.7329 31.9957 92.7329C33.0352 92.7329 33.8779 93.573 33.8779 94.6092Z" fill="white"/>
<path d="M29.6951 90.6481C29.6951 91.5692 28.9461 92.3159 28.022 92.3159C27.098 92.3159 26.3489 91.5692 26.3489 90.6481C26.3489 89.727 27.098 88.9802 28.022 88.9802C28.9461 88.9802 29.6951 89.727 29.6951 90.6481Z" fill="white"/>
<path d="M25.5124 86.7912C25.5124 87.5396 24.9037 88.1463 24.153 88.1463C23.4022 88.1463 22.7936 87.5396 22.7936 86.7912C22.7936 86.0428 23.4022 85.4361 24.153 85.4361C24.9037 85.4361 25.5124 86.0428 25.5124 86.7912Z" fill="white"/>
<path d="M21.3296 82.9343C21.3296 83.51 20.8614 83.9767 20.2839 83.9767C19.7064 83.9767 19.2382 83.51 19.2382 82.9343C19.2382 82.3586 19.7064 81.8919 20.2839 81.8919C20.8614 81.8919 21.3296 82.3586 21.3296 82.9343Z" fill="white"/>
<path d="M16.9377 78.9732C16.9377 79.3186 16.6568 79.5986 16.3103 79.5986C15.9637 79.5986 15.6828 79.3186 15.6828 78.9732C15.6828 78.6278 15.9637 78.3477 16.3103 78.3477C16.6568 78.3477 16.9377 78.6278 16.9377 78.9732Z" fill="white"/>
<path d="M29.9043 98.4661C29.9043 99.5599 29.0147 100.447 27.9175 100.447C26.8202 100.447 25.9306 99.5599 25.9306 98.4661C25.9306 97.3723 26.8202 96.4855 27.9175 96.4855C29.0147 96.4855 29.9043 97.3723 29.9043 98.4661Z" fill="white"/>
<path d="M25.7215 94.4007C25.7215 95.3219 24.9724 96.0686 24.0484 96.0686C23.1244 96.0686 22.3753 95.3219 22.3753 94.4007C22.3753 93.4796 23.1244 92.7329 24.0484 92.7329C24.9724 92.7329 25.7215 93.4796 25.7215 94.4007Z" fill="white"/>
<path d="M21.5387 90.5438C21.5387 91.2923 20.9301 91.899 20.1793 91.899C19.4285 91.899 18.8199 91.2923 18.8199 90.5438C18.8199 89.7954 19.4285 89.1887 20.1793 89.1887C20.9301 89.1887 21.5387 89.7954 21.5387 90.5438Z" fill="white"/>
<path d="M17.3559 86.7912C17.3559 87.4245 16.841 87.9378 16.2057 87.9378C15.5704 87.9378 15.0554 87.4245 15.0554 86.7912C15.0554 86.1579 15.5704 85.6446 16.2057 85.6446C16.841 85.6446 17.3559 86.1579 17.3559 86.7912Z" fill="white"/>
<path d="M51.6547 100.864C52.8098 100.864 53.7461 99.9302 53.7461 98.7788C53.7461 97.6274 52.8098 96.694 51.6547 96.694C50.4997 96.694 49.5633 97.6274 49.5633 98.7788C49.5633 99.9302 50.4997 100.864 51.6547 100.864Z" fill="white"/>
<path d="M53.7461 94.505C53.7461 95.5988 54.6356 96.4855 55.7329 96.4855C56.8302 96.4855 57.7197 95.5988 57.7197 94.505C57.7197 93.4111 56.8302 92.5244 55.7329 92.5244C54.6356 92.5244 53.7461 93.4111 53.7461 94.505Z" fill="white"/>
<path d="M51.6547 92.7329C52.6943 92.7329 53.537 91.8928 53.537 90.8566C53.537 89.8203 52.6943 88.9802 51.6547 88.9802C50.6152 88.9802 49.7725 89.8203 49.7725 90.8566C49.7725 91.8928 50.6152 92.7329 51.6547 92.7329Z" fill="white"/>
<path d="M50.1908 83.0385C50.1908 83.9021 50.893 84.6021 51.7593 84.6021C52.6256 84.6021 53.3278 83.9021 53.3278 83.0385C53.3278 82.175 52.6256 81.4749 51.7593 81.4749C50.893 81.4749 50.1908 82.175 50.1908 83.0385Z" fill="white"/>
<path d="M53.9552 86.7912C53.9552 87.7699 54.7511 88.5633 55.7329 88.5633C56.7147 88.5633 57.5106 87.7699 57.5106 86.7912C57.5106 85.8125 56.7147 85.0191 55.7329 85.0191C54.7511 85.0191 53.9552 85.8125 53.9552 86.7912Z" fill="white"/>
<path d="M57.7197 90.6481C57.7197 91.6844 58.5625 92.5244 59.602 92.5244C60.6415 92.5244 61.4842 91.6844 61.4842 90.6481C61.4842 89.6118 60.6415 88.7718 59.602 88.7718C58.5625 88.7718 57.7197 89.6118 57.7197 90.6481Z" fill="white"/>
<path d="M61.9025 86.7912C61.9025 87.6548 62.6048 88.3548 63.4711 88.3548C64.3373 88.3548 65.0396 87.6548 65.0396 86.7912C65.0396 85.9276 64.3373 85.2276 63.4711 85.2276C62.6048 85.2276 61.9025 85.9276 61.9025 86.7912Z" fill="white"/>
<path d="M58.3472 82.9343C58.3472 83.7403 59.0026 84.3937 59.8111 84.3937C60.6197 84.3937 61.2751 83.7403 61.2751 82.9343C61.2751 82.1283 60.6197 81.4749 59.8111 81.4749C59.0026 81.4749 58.3472 82.1283 58.3472 82.9343Z" fill="white"/>
<path d="M54.3735 79.0774C54.3735 79.8258 54.9821 80.4325 55.7329 80.4325C56.4837 80.4325 57.0923 79.8258 57.0923 79.0774C57.0923 78.329 56.4837 77.7223 55.7329 77.7223C54.9821 77.7223 54.3735 78.329 54.3735 79.0774Z" fill="white"/>
<path d="M51.6547 76.2629C52.2322 76.2629 52.7004 75.7962 52.7004 75.2205C52.7004 74.6448 52.2322 74.1781 51.6547 74.1781C51.0772 74.1781 50.609 74.6448 50.609 75.2205C50.609 75.7962 51.0772 76.2629 51.6547 76.2629Z" fill="white"/>
<path d="M51.7593 67.9237C52.048 67.9237 52.2821 67.6904 52.2821 67.4025C52.2821 67.1147 52.048 66.8813 51.7593 66.8813C51.4705 66.8813 51.2364 67.1147 51.2364 67.4025C51.2364 67.6904 51.4705 67.9237 51.7593 67.9237Z" fill="white"/>
<path d="M58.7654 75.1163C58.7654 75.6344 59.1868 76.0544 59.7066 76.0544C60.2263 76.0544 60.6477 75.6344 60.6477 75.1163C60.6477 74.5982 60.2263 74.1781 59.7066 74.1781C59.1868 74.1781 58.7654 74.5982 58.7654 75.1163Z" fill="white"/>
<path d="M55.0009 71.1552C55.0009 71.5581 55.3287 71.8848 55.7329 71.8848C56.1372 71.8848 56.4649 71.5581 56.4649 71.1552C56.4649 70.7522 56.1372 70.4255 55.7329 70.4255C55.3287 70.4255 55.0009 70.7522 55.0009 71.1552Z" fill="white"/>
<path d="M62.5299 78.8689C62.5299 79.5022 63.0449 80.0156 63.6802 80.0156C64.3155 80.0156 64.8305 79.5022 64.8305 78.8689C64.8305 78.2357 64.3155 77.7223 63.6802 77.7223C63.0449 77.7223 62.5299 78.2357 62.5299 78.8689Z" fill="white"/>
<path d="M66.2944 82.7258C66.2944 83.4167 66.8562 83.9767 67.5493 83.9767C68.2423 83.9767 68.8041 83.4167 68.8041 82.7258C68.8041 82.035 68.2423 81.4749 67.5493 81.4749C66.8562 81.4749 66.2944 82.035 66.2944 82.7258Z" fill="white"/>
<path d="M70.4772 78.8689C70.4772 79.3871 70.8986 79.8071 71.4183 79.8071C71.9381 79.8071 72.3595 79.3871 72.3595 78.8689C72.3595 78.3508 71.9381 77.9308 71.4183 77.9308C70.8986 77.9308 70.4772 78.3508 70.4772 78.8689Z" fill="white"/>
<path d="M66.9219 75.1163C66.9219 75.5193 67.2496 75.846 67.6538 75.846C68.0581 75.846 68.3858 75.5193 68.3858 75.1163C68.3858 74.7133 68.0581 74.3866 67.6538 74.3866C67.2496 74.3866 66.9219 74.7133 66.9219 75.1163Z" fill="white"/>
<path d="M62.9482 71.2594C62.9482 71.6048 63.2291 71.8848 63.5756 71.8848C63.9221 71.8848 64.203 71.6048 64.203 71.2594C64.203 70.914 63.9221 70.634 63.5756 70.634C63.2291 70.634 62.9482 70.914 62.9482 71.2594Z" fill="white"/>
<path d="M71.1046 71.2594C71.1046 71.4897 71.2919 71.6764 71.5229 71.6764C71.7539 71.6764 71.9412 71.4897 71.9412 71.2594C71.9412 71.0291 71.7539 70.8424 71.5229 70.8424C71.2919 70.8424 71.1046 71.0291 71.1046 71.2594Z" fill="white"/>
<path d="M74.8691 74.9078C74.8691 75.1957 75.1032 75.429 75.392 75.429C75.6807 75.429 75.9148 75.1957 75.9148 74.9078C75.9148 74.62 75.6807 74.3866 75.392 74.3866C75.1032 74.3866 74.8691 74.62 74.8691 74.9078Z" fill="white"/>
<path d="M81.7707 98.5703C81.7707 99.3763 82.4262 100.03 83.2347 100.03C84.0432 100.03 84.6987 99.3763 84.6987 98.5703C84.6987 97.7644 84.0432 97.111 83.2347 97.111C82.4262 97.111 81.7707 97.7644 81.7707 98.5703Z" fill="white"/>
<path d="M85.9535 94.7135C85.9535 95.3467 86.4685 95.8601 87.1038 95.8601C87.739 95.8601 88.254 95.3467 88.254 94.7135C88.254 94.0802 87.739 93.5668 87.1038 93.5668C86.4685 93.5668 85.9535 94.0802 85.9535 94.7135Z" fill="white"/>
<path d="M90.3454 90.7523C90.3454 91.1553 90.6731 91.482 91.0774 91.482C91.4817 91.482 91.8094 91.1553 91.8094 90.7523C91.8094 90.3493 91.4817 90.0226 91.0774 90.0226C90.6731 90.0226 90.3454 90.3493 90.3454 90.7523Z" fill="white"/>
<path d="M53.537 102.323C53.537 103.59 54.5669 104.616 55.8375 104.616C57.108 104.616 58.138 103.59 58.138 102.323C58.138 101.056 57.108 100.03 55.8375 100.03C54.5669 100.03 53.537 101.056 53.537 102.323Z" fill="white"/>
<path d="M57.7197 98.4661C57.7197 99.5599 58.6093 100.447 59.7066 100.447C60.8038 100.447 61.6934 99.5599 61.6934 98.4661C61.6934 97.3723 60.8038 96.4855 59.7066 96.4855C58.6093 96.4855 57.7197 97.3723 57.7197 98.4661Z" fill="white"/>
<path d="M69.6407 102.427C69.6407 103.521 70.5302 104.408 71.6275 104.408C72.7248 104.408 73.6143 103.521 73.6143 102.427C73.6143 101.333 72.7248 100.447 71.6275 100.447C70.5302 100.447 69.6407 101.333 69.6407 102.427Z" fill="white"/>
<path d="M61.6934 94.6092C61.6934 95.6455 62.5361 96.4855 63.5756 96.4855C64.6152 96.4855 65.4579 95.6455 65.4579 94.6092C65.4579 93.573 64.6152 92.7329 63.5756 92.7329C62.5361 92.7329 61.6934 93.573 61.6934 94.6092Z" fill="white"/>
<path d="M73.6143 98.4661C73.6143 99.4448 74.4102 100.238 75.392 100.238C76.3738 100.238 77.1697 99.4448 77.1697 98.4661C77.1697 97.4874 76.3738 96.694 75.392 96.694C74.4102 96.694 73.6143 97.4874 73.6143 98.4661Z" fill="white"/>
<path d="M65.8762 90.6481C65.8762 91.5692 66.6252 92.3159 67.5493 92.3159C68.4733 92.3159 69.2224 91.5692 69.2224 90.6481C69.2224 89.727 68.4733 88.9802 67.5493 88.9802C66.6252 88.9802 65.8762 89.727 65.8762 90.6481Z" fill="white"/>
<path d="M77.7971 94.6092C77.7971 95.4152 78.4525 96.0686 79.261 96.0686C80.0696 96.0686 80.725 95.4152 80.725 94.6092C80.725 93.8032 80.0696 93.1499 79.261 93.1499C78.4525 93.1499 77.7971 93.8032 77.7971 94.6092Z" fill="white"/>
<path d="M70.0589 86.7912C70.0589 87.5396 70.6676 88.1463 71.4183 88.1463C72.1691 88.1463 72.7777 87.5396 72.7777 86.7912C72.7777 86.0428 72.1691 85.4361 71.4183 85.4361C70.6676 85.4361 70.0589 86.0428 70.0589 86.7912Z" fill="white"/>
<path d="M81.9799 90.7523C81.9799 91.3856 82.4948 91.899 83.1301 91.899C83.7654 91.899 84.2804 91.3856 84.2804 90.7523C84.2804 90.1191 83.7654 89.6057 83.1301 89.6057C82.4948 89.6057 81.9799 90.1191 81.9799 90.7523Z" fill="white"/>
<path d="M74.2417 82.9343C74.2417 83.51 74.7099 83.9767 75.2874 83.9767C75.8649 83.9767 76.3331 83.51 76.3331 82.9343C76.3331 82.3586 75.8649 81.8919 75.2874 81.8919C74.7099 81.8919 74.2417 82.3586 74.2417 82.9343Z" fill="white"/>
<path d="M86.3718 86.7912C86.3718 87.1942 86.6995 87.5209 87.1038 87.5209C87.508 87.5209 87.8357 87.1942 87.8357 86.7912C87.8357 86.3882 87.508 86.0615 87.1038 86.0615C86.6995 86.0615 86.3718 86.3882 86.3718 86.7912Z" fill="white"/>
<path d="M78.6336 78.9732C78.6336 79.3186 78.9145 79.5986 79.261 79.5986C79.6076 79.5986 79.8885 79.3186 79.8885 78.9732C79.8885 78.6278 79.6076 78.3477 79.261 78.3477C78.9145 78.3477 78.6336 78.6278 78.6336 78.9732Z" fill="white"/>
<path d="M61.4842 102.323C61.4842 103.474 62.4206 104.408 63.5756 104.408C64.7307 104.408 65.667 103.474 65.667 102.323C65.667 101.172 64.7307 100.238 63.5756 100.238C62.4206 100.238 61.4842 101.172 61.4842 102.323Z" fill="white"/>
<path d="M65.667 98.4661C65.667 99.5599 66.5565 100.447 67.6538 100.447C68.7511 100.447 69.6407 99.5599 69.6407 98.4661C69.6407 97.3723 68.7511 96.4855 67.6538 96.4855C66.5565 96.4855 65.667 97.3723 65.667 98.4661Z" fill="white"/>
<path d="M69.8498 94.4007C69.8498 95.3219 70.5989 96.0686 71.5229 96.0686C72.4469 96.0686 73.196 95.3219 73.196 94.4007C73.196 93.4796 72.4469 92.7329 71.5229 92.7329C70.5989 92.7329 69.8498 93.4796 69.8498 94.4007Z" fill="white"/>
<path d="M74.0326 90.5438C74.0326 91.2923 74.6412 91.899 75.392 91.899C76.1428 91.899 76.7514 91.2923 76.7514 90.5438C76.7514 89.7954 76.1428 89.1887 75.392 89.1887C74.6412 89.1887 74.0326 89.7954 74.0326 90.5438Z" fill="white"/>
<path d="M78.2154 86.7912C78.2154 87.4245 78.7303 87.9378 79.3656 87.9378C80.0009 87.9378 80.5159 87.4245 80.5159 86.7912C80.5159 86.1579 80.0009 85.6446 79.3656 85.6446C78.7303 85.6446 78.2154 86.1579 78.2154 86.7912Z" fill="white"/>
<path d="M82.3981 82.7258C82.3981 83.1864 82.7727 83.5597 83.2347 83.5597C83.6967 83.5597 84.0712 83.1864 84.0712 82.7258C84.0712 82.2653 83.6967 81.8919 83.2347 81.8919C82.7727 81.8919 82.3981 82.2653 82.3981 82.7258Z" fill="white"/>
<path d="M72.6494 13.8813C72.6494 14.6151 72.0514 15.2099 71.3138 15.2099C70.5761 15.2099 69.9781 14.6151 69.9781 13.8813C69.9781 13.1475 70.5761 12.5527 71.3138 12.5527C72.0514 12.5527 72.6494 13.1475 72.6494 13.8813Z" fill="white"/>
<path d="M66.138 13.8813C66.138 14.4316 65.6895 14.8778 65.1363 14.8778C64.583 14.8778 64.1345 14.4316 64.1345 13.8813C64.1345 13.331 64.583 12.8848 65.1363 12.8848C65.6895 12.8848 66.138 13.331 66.138 13.8813Z" fill="white"/>
<path d="M59.4596 13.8813C59.4596 14.2482 59.1606 14.5456 58.7918 14.5456C58.423 14.5456 58.124 14.2482 58.124 13.8813C58.124 13.5144 58.423 13.217 58.7918 13.217C59.1606 13.217 59.4596 13.5144 59.4596 13.8813Z" fill="white"/>
<path d="M100.866 32.482C100.866 31.4731 101.688 30.6551 102.702 30.6551C103.716 30.6551 104.539 31.4731 104.539 32.482C104.539 33.4909 103.716 34.3089 102.702 34.3089C101.688 34.3089 100.866 33.4909 100.866 32.482Z" fill="white"/>
<path d="M101.033 38.6269C101.033 37.7097 101.78 36.9661 102.702 36.9661C103.624 36.9661 104.372 37.7097 104.372 38.6269C104.372 39.5441 103.624 40.2877 102.702 40.2877C101.78 40.2877 101.033 39.5441 101.033 38.6269Z" fill="white"/>
<path d="M101.366 44.9378C101.366 44.2041 101.964 43.6092 102.702 43.6092C103.44 43.6092 104.038 44.2041 104.038 44.9378C104.038 45.6716 103.44 46.2665 102.702 46.2665C101.964 46.2665 101.366 45.6716 101.366 44.9378Z" fill="white"/>
<path d="M101.533 51.0827C101.533 50.4407 102.057 49.9202 102.702 49.9202C103.348 49.9202 103.871 50.4407 103.871 51.0827C103.871 51.7248 103.348 52.2453 102.702 52.2453C102.057 52.2453 101.533 51.7248 101.533 51.0827Z" fill="white"/>
<path d="M102.034 57.3937C102.034 57.0268 102.333 56.7294 102.702 56.7294C103.071 56.7294 103.37 57.0268 103.37 57.3937C103.37 57.7606 103.071 58.058 102.702 58.058C102.333 58.058 102.034 57.7606 102.034 57.3937Z" fill="white"/>
<path d="M98.3612 26.3371C98.3612 25.3282 97.539 24.5103 96.5247 24.5103C95.5104 24.5103 94.6881 25.3282 94.6881 26.3371C94.6881 27.3461 95.5104 28.164 96.5247 28.164C97.539 28.164 98.3612 27.3461 98.3612 26.3371Z" fill="white"/>
<path d="M82.5001 17.0368C82.5001 16.1196 81.7526 15.376 80.8305 15.376C79.9084 15.376 79.1609 16.1196 79.1609 17.0368C79.1609 17.954 79.9084 18.6976 80.8305 18.6976C81.7526 18.6976 82.5001 17.954 82.5001 17.0368Z" fill="white"/>
<path d="M99.6969 33.8106C98.7748 33.8106 98.0273 34.5542 98.0273 35.4714C98.0273 36.3886 98.7748 37.1322 99.6969 37.1322C100.619 37.1322 101.366 36.3886 101.366 35.4714C101.366 34.5542 100.619 33.8106 99.6969 33.8106Z" fill="white"/>
<path d="M85.6723 20.1092C85.6723 19.1461 84.8874 18.3654 83.9192 18.3654C82.951 18.3654 82.1661 19.1461 82.1661 20.1092C82.1661 21.0723 82.951 21.853 83.9192 21.853C84.8874 21.853 85.6723 21.0723 85.6723 20.1092Z" fill="white"/>
<path d="M82.3331 23.2647C82.3331 22.3933 81.623 21.687 80.747 21.687C79.871 21.687 79.1609 22.3933 79.1609 23.2647C79.1609 24.136 79.871 24.8424 80.747 24.8424C81.623 24.8424 82.3331 24.136 82.3331 23.2647Z" fill="white"/>
<path d="M79.1609 20.1092C79.1609 19.2379 78.4507 18.5315 77.5747 18.5315C76.6988 18.5315 75.9886 19.2379 75.9886 20.1092C75.9886 20.9806 76.6988 21.687 77.5747 21.687C78.4507 21.687 79.1609 20.9806 79.1609 20.1092Z" fill="white"/>
<path d="M98.0273 38.876C98.0273 38.0046 97.3172 37.2983 96.4412 37.2983C95.5652 37.2983 94.8551 38.0046 94.8551 38.876C94.8551 39.7474 95.5652 40.4537 96.4412 40.4537C97.3172 40.4537 98.0273 39.7474 98.0273 38.876Z" fill="white"/>
<path d="M75.9886 17.0368C75.9886 16.2113 75.3159 15.5421 74.486 15.5421C73.6561 15.5421 72.9834 16.2113 72.9834 17.0368C72.9834 17.8623 73.6561 18.5315 74.486 18.5315C75.3159 18.5315 75.9886 17.8623 75.9886 17.0368Z" fill="white"/>
<path d="M99.6969 40.2877C98.867 40.2877 98.1943 40.9569 98.1943 41.7824C98.1943 42.6079 98.867 43.2771 99.6969 43.2771C100.527 43.2771 101.2 42.6079 101.2 41.7824C101.2 40.9569 100.527 40.2877 99.6969 40.2877Z" fill="white"/>
<path d="M69.4772 16.9537C69.4772 16.2658 68.9166 15.7082 68.225 15.7082C67.5334 15.7082 66.9728 16.2658 66.9728 16.9537C66.9728 17.6417 67.5334 18.1993 68.225 18.1993C68.9166 18.1993 69.4772 17.6417 69.4772 16.9537Z" fill="white"/>
<path d="M100.866 48.0103C100.866 47.3224 100.305 46.7647 99.6134 46.7647C98.9218 46.7647 98.3612 47.3224 98.3612 48.0103C98.3612 48.6982 98.9218 49.2559 99.6134 49.2559C100.305 49.2559 100.866 48.6982 100.866 48.0103Z" fill="white"/>
<path d="M72.8164 20.1092C72.8164 19.3296 72.181 18.6976 71.3972 18.6976C70.6135 18.6976 69.9781 19.3296 69.9781 20.1092C69.9781 20.8888 70.6135 21.5209 71.3972 21.5209C72.181 21.5209 72.8164 20.8888 72.8164 20.1092Z" fill="white"/>
<path d="M97.8603 45.0209C97.8603 44.2412 97.225 43.6092 96.4412 43.6092C95.6574 43.6092 95.022 44.2412 95.022 45.0209C95.022 45.8005 95.6574 46.4325 96.4412 46.4325C97.225 46.4325 97.8603 45.8005 97.8603 45.0209Z" fill="white"/>
<path d="M75.9886 23.1816C75.9886 22.3561 75.3159 21.687 74.486 21.687C73.6561 21.687 72.9834 22.3561 72.9834 23.1816C72.9834 24.0071 73.6561 24.6763 74.486 24.6763C75.3159 24.6763 75.9886 24.0071 75.9886 23.1816Z" fill="white"/>
<path d="M94.8551 41.9484C94.8551 41.1229 94.1823 40.4537 93.3524 40.4537C92.5225 40.4537 91.8498 41.1229 91.8498 41.9484C91.8498 42.7739 92.5225 43.4431 93.3524 43.4431C94.1823 43.4431 94.8551 42.7739 94.8551 41.9484Z" fill="white"/>
<path d="M79.1609 26.2541C79.1609 25.3827 78.4507 24.6763 77.5747 24.6763C76.6988 24.6763 75.9886 25.3827 75.9886 26.2541C75.9886 27.1255 76.6988 27.8318 77.5747 27.8318C78.4507 27.8318 79.1609 27.1255 79.1609 26.2541Z" fill="white"/>
<path d="M75.8217 29.4926C75.8217 28.7588 75.2237 28.164 74.486 28.164C73.7483 28.164 73.1503 28.7588 73.1503 29.4926C73.1503 30.2264 73.7483 30.8212 74.486 30.8212C75.2237 30.8212 75.8217 30.2264 75.8217 29.4926Z" fill="white"/>
<path d="M72.6494 26.2541C72.6494 25.5662 72.0888 25.0085 71.3972 25.0085C70.7057 25.0085 70.145 25.5662 70.145 26.2541C70.145 26.942 70.7057 27.4997 71.3972 27.4997C72.0888 27.4997 72.6494 26.942 72.6494 26.2541Z" fill="white"/>
<path d="M91.5159 45.0209C91.5159 44.333 90.9552 43.7753 90.2637 43.7753C89.5721 43.7753 89.0115 44.333 89.0115 45.0209C89.0115 45.7088 89.5721 46.2665 90.2637 46.2665C90.9552 46.2665 91.5159 45.7088 91.5159 45.0209Z" fill="white"/>
<path d="M69.3102 23.1816C69.3102 22.5396 68.787 22.0191 68.1415 22.0191C67.4961 22.0191 66.9728 22.5396 66.9728 23.1816C66.9728 23.8237 67.4961 24.3442 68.1415 24.3442C68.787 24.3442 69.3102 23.8237 69.3102 23.1816Z" fill="white"/>
<path d="M94.3542 48.0933C94.3542 47.4513 93.8309 46.9308 93.1855 46.9308C92.54 46.9308 92.0168 47.4513 92.0168 48.0933C92.0168 48.7354 92.54 49.2559 93.1855 49.2559C93.8309 49.2559 94.3542 48.7354 94.3542 48.0933Z" fill="white"/>
<path d="M66.138 20.1092C66.138 19.513 65.6521 19.0297 65.0528 19.0297C64.4534 19.0297 63.9675 19.513 63.9675 20.1092C63.9675 20.7054 64.4534 21.1887 65.0528 21.1887C65.6521 21.1887 66.138 20.7054 66.138 20.1092Z" fill="white"/>
<path d="M97.5264 51.1657C97.5264 50.5695 97.0405 50.0862 96.4412 50.0862C95.8418 50.0862 95.3559 50.5695 95.3559 51.1657C95.3559 51.7619 95.8418 52.2453 96.4412 52.2453C97.0405 52.2453 97.5264 51.7619 97.5264 51.1657Z" fill="white"/>
<path d="M62.7988 17.0368C62.7988 16.5782 62.4251 16.2064 61.964 16.2064C61.503 16.2064 61.1292 16.5782 61.1292 17.0368C61.1292 17.4954 61.503 17.8672 61.964 17.8672C62.4251 17.8672 62.7988 17.4954 62.7988 17.0368Z" fill="white"/>
<path d="M99.6969 53.4078C99.2359 53.4078 98.8621 53.7796 98.8621 54.2382C98.8621 54.6968 99.2359 55.0686 99.6969 55.0686C100.158 55.0686 100.532 54.6968 100.532 54.2382C100.532 53.7796 100.158 53.4078 99.6969 53.4078Z" fill="white"/>
<path d="M56.1204 16.9537C56.1204 16.7244 55.9336 16.5385 55.703 16.5385C55.4725 16.5385 55.2856 16.7244 55.2856 16.9537C55.2856 17.183 55.4725 17.3689 55.703 17.3689C55.9336 17.3689 56.1204 17.183 56.1204 16.9537Z" fill="white"/>
<path d="M99.6134 60.0509C99.3829 60.0509 99.196 60.2368 99.196 60.4661C99.196 60.6954 99.3829 60.8813 99.6134 60.8813C99.8439 60.8813 100.031 60.6954 100.031 60.4661C100.031 60.2368 99.8439 60.0509 99.6134 60.0509Z" fill="white"/>
<path d="M59.2927 20.1092C59.2927 19.7882 59.031 19.5279 58.7083 19.5279C58.3856 19.5279 58.124 19.7882 58.124 20.1092C58.124 20.4302 58.3856 20.6905 58.7083 20.6905C59.031 20.6905 59.2927 20.4302 59.2927 20.1092Z" fill="white"/>
<path d="M62.7988 23.1816C62.7988 22.723 62.4251 22.3513 61.964 22.3513C61.503 22.3513 61.1292 22.723 61.1292 23.1816C61.1292 23.6403 61.503 24.012 61.964 24.012C62.4251 24.012 62.7988 23.6403 62.7988 23.1816Z" fill="white"/>
<path d="M94.0203 54.3212C94.0203 53.9085 93.6839 53.5739 93.269 53.5739C92.854 53.5739 92.5176 53.9085 92.5176 54.3212C92.5176 54.734 92.854 55.0686 93.269 55.0686C93.6839 55.0686 94.0203 54.734 94.0203 54.3212Z" fill="white"/>
<path d="M97.0255 57.4767C97.0255 57.1557 96.7639 56.8954 96.4412 56.8954C96.1185 56.8954 95.8568 57.1557 95.8568 57.4767C95.8568 57.7977 96.1185 58.058 96.4412 58.058C96.7639 58.058 97.0255 57.7977 97.0255 57.4767Z" fill="white"/>
<path d="M65.9711 26.4202C65.9711 25.9157 65.5599 25.5067 65.0528 25.5067C64.5456 25.5067 64.1345 25.9157 64.1345 26.4202C64.1345 26.9246 64.5456 27.3336 65.0528 27.3336C65.5599 27.3336 65.9711 26.9246 65.9711 26.4202Z" fill="white"/>
<path d="M91.015 51.3318C91.015 50.8274 90.6039 50.4184 90.0967 50.4184C89.5896 50.4184 89.1784 50.8274 89.1784 51.3318C89.1784 51.8363 89.5896 52.2453 90.0967 52.2453C90.6039 52.2453 91.015 51.8363 91.015 51.3318Z" fill="white"/>
<path d="M69.1433 29.4926C69.1433 28.9423 68.6948 28.4961 68.1415 28.4961C67.5883 28.4961 67.1398 28.9423 67.1398 29.4926C67.1398 30.0429 67.5883 30.4891 68.1415 30.4891C68.6948 30.4891 69.1433 30.0429 69.1433 29.4926Z" fill="white"/>
<path d="M88.0097 48.2594C88.0097 47.7091 87.5612 47.2629 87.008 47.2629C86.4547 47.2629 86.0062 47.7091 86.0062 48.2594C86.0062 48.8097 86.4547 49.2559 87.008 49.2559C87.5612 49.2559 88.0097 48.8097 88.0097 48.2594Z" fill="white"/>
<path d="M72.4825 32.6481C72.4825 32.006 71.9592 31.4855 71.3138 31.4855C70.6683 31.4855 70.145 32.006 70.145 32.6481C70.145 33.2901 70.6683 33.8106 71.3138 33.8106C71.9592 33.8106 72.4825 33.2901 72.4825 32.6481Z" fill="white"/>
<path d="M68.9763 35.7205C68.9763 35.3078 68.64 34.9732 68.225 34.9732C67.8101 34.9732 67.4737 35.3078 67.4737 35.7205C67.4737 36.1333 67.8101 36.4679 68.225 36.4679C68.64 36.4679 68.9763 36.1333 68.9763 35.7205Z" fill="white"/>
<path d="M65.8041 32.565C65.8041 32.1523 65.4677 31.8177 65.0528 31.8177C64.6378 31.8177 64.3015 32.1523 64.3015 32.565C64.3015 32.9778 64.6378 33.3124 65.0528 33.3124C65.4677 33.3124 65.8041 32.9778 65.8041 32.565Z" fill="white"/>
<path d="M84.6705 51.3318C84.6705 50.9191 84.3342 50.5845 83.9192 50.5845C83.5043 50.5845 83.1679 50.9191 83.1679 51.3318C83.1679 51.7446 83.5043 52.0792 83.9192 52.0792C84.3342 52.0792 84.6705 51.7446 84.6705 51.3318Z" fill="white"/>
<path d="M62.4649 29.4096C62.4649 29.0885 62.2033 28.8283 61.8805 28.8283C61.5578 28.8283 61.2962 29.0885 61.2962 29.4096C61.2962 29.7306 61.5578 29.9908 61.8805 29.9908C62.2033 29.9908 62.4649 29.7306 62.4649 29.4096Z" fill="white"/>
<path d="M87.5088 54.3212C87.5088 54.0002 87.2472 53.74 86.9245 53.74C86.6018 53.74 86.3401 54.0002 86.3401 54.3212C86.3401 54.6423 86.6018 54.9025 86.9245 54.9025C87.2472 54.9025 87.5088 54.6423 87.5088 54.3212Z" fill="white"/>
<path d="M59.2927 26.3371C59.2927 26.062 59.0684 25.8389 58.7918 25.8389C58.5152 25.8389 58.2909 26.062 58.2909 26.3371C58.2909 26.6123 58.5152 26.8354 58.7918 26.8354C59.0684 26.8354 59.2927 26.6123 59.2927 26.3371Z" fill="white"/>
<path d="M90.6811 57.3937C90.6811 57.1185 90.4568 56.8954 90.1802 56.8954C89.9036 56.8954 89.6793 57.1185 89.6793 57.3937C89.6793 57.6688 89.9036 57.8919 90.1802 57.8919C90.4568 57.8919 90.6811 57.6688 90.6811 57.3937Z" fill="white"/>
<path d="M59.1257 32.482C59.1257 32.2986 58.9762 32.1498 58.7918 32.1498C58.6074 32.1498 58.4579 32.2986 58.4579 32.482C58.4579 32.6655 58.6074 32.8142 58.7918 32.8142C58.9762 32.8142 59.1257 32.6655 59.1257 32.482Z" fill="white"/>
<path d="M84.1697 57.3937C84.1697 57.2102 84.0202 57.0615 83.8357 57.0615C83.6513 57.0615 83.5018 57.2102 83.5018 57.3937C83.5018 57.5771 83.6513 57.7258 83.8357 57.7258C84.0202 57.7258 84.1697 57.5771 84.1697 57.3937Z" fill="white"/>
<path d="M62.2979 35.7205C62.2979 35.4912 62.1111 35.3053 61.8805 35.3053C61.65 35.3053 61.4631 35.4912 61.4631 35.7205C61.4631 35.9498 61.65 36.1357 61.8805 36.1357C62.1111 36.1357 62.2979 35.9498 62.2979 35.7205Z" fill="white"/>
<path d="M81.1644 54.4873C81.1644 54.258 80.9775 54.0721 80.747 54.0721C80.5165 54.0721 80.3296 54.258 80.3296 54.4873C80.3296 54.7166 80.5165 54.9025 80.747 54.9025C80.9775 54.9025 81.1644 54.7166 81.1644 54.4873Z" fill="white"/>
<path d="M65.4702 38.793C65.4702 38.5178 65.2459 38.2947 64.9693 38.2947C64.6927 38.2947 64.4684 38.5178 64.4684 38.793C64.4684 39.0681 64.6927 39.2912 64.9693 39.2912C65.2459 39.2912 65.4702 39.0681 65.4702 38.793Z" fill="white"/>
<path d="M88.8445 16.9537C88.8445 15.8989 87.9849 15.0438 86.9245 15.0438C85.8641 15.0438 85.0044 15.8989 85.0044 16.9537C85.0044 18.0085 85.8641 18.8636 86.9245 18.8636C87.9849 18.8636 88.8445 18.0085 88.8445 16.9537Z" fill="white"/>
<path d="M99.6134 27.4997C98.553 27.4997 97.6934 28.3548 97.6934 29.4096C97.6934 30.4644 98.553 31.3195 99.6134 31.3195C100.674 31.3195 101.533 30.4644 101.533 29.4096C101.533 28.3548 100.674 27.4997 99.6134 27.4997Z" fill="white"/>
<path d="M92.0168 20.1092C92.0168 19.0544 91.1571 18.1993 90.0967 18.1993C89.0363 18.1993 88.1767 19.0544 88.1767 20.1092C88.1767 21.164 89.0363 22.0191 90.0967 22.0191C91.1571 22.0191 92.0168 21.164 92.0168 20.1092Z" fill="white"/>
<path d="M88.8445 23.1816C88.8445 22.1727 88.0223 21.3548 87.008 21.3548C85.9937 21.3548 85.1714 22.1727 85.1714 23.1816C85.1714 24.1906 85.9937 25.0085 87.008 25.0085C88.0223 25.0085 88.8445 24.1906 88.8445 23.1816Z" fill="white"/>
<path d="M85.5053 26.3371C85.5053 25.4199 84.7578 24.6763 83.8357 24.6763C82.9136 24.6763 82.1661 25.4199 82.1661 26.3371C82.1661 27.2543 82.9136 27.9979 83.8357 27.9979C84.7578 27.9979 85.5053 27.2543 85.5053 26.3371Z" fill="white"/>
<path d="M82.3331 29.4096C82.3331 28.5382 81.623 27.8318 80.747 27.8318C79.871 27.8318 79.1609 28.5382 79.1609 29.4096C79.1609 30.2809 79.871 30.9873 80.747 30.9873C81.623 30.9873 82.3331 30.2809 82.3331 29.4096Z" fill="white"/>
<path d="M78.9939 32.565C78.9939 31.7854 78.3585 31.1534 77.5747 31.1534C76.791 31.1534 76.1556 31.7854 76.1556 32.565C76.1556 33.3447 76.791 33.9767 77.5747 33.9767C78.3585 33.9767 78.9939 33.3447 78.9939 32.565Z" fill="white"/>
<path d="M75.6547 35.6375C75.6547 34.9954 75.1315 34.4749 74.486 34.4749C73.8405 34.4749 73.3173 34.9954 73.3173 35.6375C73.3173 36.2795 73.8405 36.8 74.486 36.8C75.1315 36.8 75.6547 36.2795 75.6547 35.6375Z" fill="white"/>
<path d="M72.3155 38.7099C72.3155 38.2054 71.9044 37.7965 71.3972 37.7965C70.8901 37.7965 70.479 38.2054 70.479 38.7099C70.479 39.2144 70.8901 39.6233 71.3972 39.6233C71.9044 39.6233 72.3155 39.2144 72.3155 38.7099Z" fill="white"/>
<path d="M68.8094 41.8654C68.8094 41.5444 68.5477 41.2841 68.225 41.2841C67.9023 41.2841 67.6407 41.5444 67.6407 41.8654C67.6407 42.1864 67.9023 42.4467 68.225 42.4467C68.5477 42.4467 68.8094 42.1864 68.8094 41.8654Z" fill="white"/>
<path d="M95.189 23.2647C95.189 22.2099 94.3294 21.3548 93.269 21.3548C92.2085 21.3548 91.3489 22.2099 91.3489 23.2647C91.3489 24.3195 92.2085 25.1746 93.269 25.1746C94.3294 25.1746 95.189 24.3195 95.189 23.2647Z" fill="white"/>
<path d="M92.0168 26.3371C92.0168 25.3282 91.1945 24.5103 90.1802 24.5103C89.1659 24.5103 88.3436 25.3282 88.3436 26.3371C88.3436 27.3461 89.1659 28.164 90.1802 28.164C91.1945 28.164 92.0168 27.3461 92.0168 26.3371Z" fill="white"/>
<path d="M98.1943 32.6481C98.1943 31.6391 97.372 30.8212 96.3577 30.8212C95.3434 30.8212 94.5211 31.6391 94.5211 32.6481C94.5211 33.657 95.3434 34.4749 96.3577 34.4749C97.372 34.4749 98.1943 33.657 98.1943 32.6481Z" fill="white"/>
<path d="M88.6776 29.4926C88.6776 28.5754 87.9301 27.8318 87.008 27.8318C86.0859 27.8318 85.3384 28.5754 85.3384 29.4926C85.3384 30.4098 86.0859 31.1534 87.008 31.1534C87.9301 31.1534 88.6776 30.4098 88.6776 29.4926Z" fill="white"/>
<path d="M94.8551 35.7205C94.8551 34.8492 94.1449 34.1428 93.269 34.1428C92.393 34.1428 91.6828 34.8492 91.6828 35.7205C91.6828 36.5919 92.393 37.2983 93.269 37.2983C94.1449 37.2983 94.8551 36.5919 94.8551 35.7205Z" fill="white"/>
<path d="M85.3384 32.565C85.3384 31.6937 84.6282 30.9873 83.7523 30.9873C82.8763 30.9873 82.1661 31.6937 82.1661 32.565C82.1661 33.4364 82.8763 34.1428 83.7523 34.1428C84.6282 34.1428 85.3384 33.4364 85.3384 32.565Z" fill="white"/>
<path d="M91.6828 38.793C91.6828 37.9675 91.0101 37.2983 90.1802 37.2983C89.3503 37.2983 88.6776 37.9675 88.6776 38.793C88.6776 39.6185 89.3503 40.2877 90.1802 40.2877C91.0101 40.2877 91.6828 39.6185 91.6828 38.793Z" fill="white"/>
<path d="M82.1661 35.7205C82.1661 34.9409 81.5308 34.3089 80.747 34.3089C79.9632 34.3089 79.3278 34.9409 79.3278 35.7205C79.3278 36.5002 79.9632 37.1322 80.747 37.1322C81.5308 37.1322 82.1661 36.5002 82.1661 35.7205Z" fill="white"/>
<path d="M88.3436 41.9484C88.3436 41.2147 87.7456 40.6198 87.008 40.6198C86.2703 40.6198 85.6723 41.2147 85.6723 41.9484C85.6723 42.6822 86.2703 43.2771 87.008 43.2771C87.7456 43.2771 88.3436 42.6822 88.3436 41.9484Z" fill="white"/>
<path d="M78.8269 38.793C78.8269 38.1509 78.3037 37.6304 77.6582 37.6304C77.0128 37.6304 76.4895 38.1509 76.4895 38.793C76.4895 39.435 77.0128 39.9555 77.6582 39.9555C78.3037 39.9555 78.8269 39.435 78.8269 38.793Z" fill="white"/>
<path d="M85.0044 45.0209C85.0044 44.4247 84.5186 43.9414 83.9192 43.9414C83.3199 43.9414 82.834 44.4247 82.834 45.0209C82.834 45.6171 83.3199 46.1004 83.9192 46.1004C84.5186 46.1004 85.0044 45.6171 85.0044 45.0209Z" fill="white"/>
<path d="M75.4878 41.8654C75.4878 41.3609 75.0766 40.952 74.5695 40.952C74.0623 40.952 73.6512 41.3609 73.6512 41.8654C73.6512 42.3699 74.0623 42.7788 74.5695 42.7788C75.0766 42.7788 75.4878 42.3699 75.4878 41.8654Z" fill="white"/>
<path d="M81.6653 48.0933C81.6653 47.6347 81.2915 47.2629 80.8305 47.2629C80.3694 47.2629 79.9957 47.6347 79.9957 48.0933C79.9957 48.5519 80.3694 48.9237 80.8305 48.9237C81.2915 48.9237 81.6653 48.5519 81.6653 48.0933Z" fill="white"/>
<path d="M71.9816 45.0209C71.9816 44.6998 71.72 44.4396 71.3972 44.4396C71.0745 44.4396 70.8129 44.6998 70.8129 45.0209C70.8129 45.3419 71.0745 45.6021 71.3972 45.6021C71.72 45.6021 71.9816 45.3419 71.9816 45.0209Z" fill="white"/>
<path d="M78.1591 51.2488C78.1591 50.9736 77.9349 50.7506 77.6582 50.7506C77.3816 50.7506 77.1574 50.9736 77.1574 51.2488C77.1574 51.5239 77.3816 51.747 77.6582 51.747C77.9349 51.747 78.1591 51.5239 78.1591 51.2488Z" fill="white"/>
<path d="M95.022 29.4926C95.022 28.4837 94.1998 27.6657 93.1855 27.6657C92.1712 27.6657 91.3489 28.4837 91.3489 29.4926C91.3489 30.5015 92.1712 31.3195 93.1855 31.3195C94.1998 31.3195 95.022 30.5015 95.022 29.4926Z" fill="white"/>
<path d="M91.8498 32.6481C91.8498 31.7309 91.1023 30.9873 90.1802 30.9873C89.2581 30.9873 88.5106 31.7309 88.5106 32.6481C88.5106 33.5653 89.2581 34.3089 90.1802 34.3089C91.1023 34.3089 91.8498 33.5653 91.8498 32.6481Z" fill="white"/>
<path d="M88.5106 35.7205C88.5106 34.8492 87.8005 34.1428 86.9245 34.1428C86.0485 34.1428 85.3384 34.8492 85.3384 35.7205C85.3384 36.5919 86.0485 37.2983 86.9245 37.2983C87.8005 37.2983 88.5106 36.5919 88.5106 35.7205Z" fill="white"/>
<path d="M85.1714 38.959C85.1714 38.2253 84.5734 37.6304 83.8357 37.6304C83.0981 37.6304 82.5001 38.2253 82.5001 38.959C82.5001 39.6928 83.0981 40.2877 83.8357 40.2877C84.5734 40.2877 85.1714 39.6928 85.1714 38.959Z" fill="white"/>
<path d="M81.8322 42.0315C81.8322 41.4353 81.3463 40.952 80.747 40.952C80.1476 40.952 79.6617 41.4353 79.6617 42.0315C79.6617 42.6277 80.1476 43.111 80.747 43.111C81.3463 43.111 81.8322 42.6277 81.8322 42.0315Z" fill="white"/>
<path d="M78.493 45.0209C78.493 44.5164 78.0819 44.1074 77.5747 44.1074C77.0676 44.1074 76.6565 44.5164 76.6565 45.0209C76.6565 45.5253 77.0676 45.9343 77.5747 45.9343C78.0819 45.9343 78.493 45.5253 78.493 45.0209Z" fill="white"/>
<path d="M75.1538 48.2594C75.1538 47.8925 74.8548 47.5951 74.486 47.5951C74.1172 47.5951 73.8182 47.8925 73.8182 48.2594C73.8182 48.6263 74.1172 48.9237 74.486 48.9237C74.8548 48.9237 75.1538 48.6263 75.1538 48.2594Z" fill="white"/>
<path d="M105.874 40.2877C106.704 40.2877 107.377 40.9569 107.377 41.7824C107.377 42.6079 106.704 43.2771 105.874 43.2771C105.045 43.2771 104.372 42.6079 104.372 41.7824C104.372 40.9569 105.045 40.2877 105.874 40.2877Z" fill="white"/>
<path d="M104.706 48.0103C104.706 47.3224 105.266 46.7647 105.958 46.7647C106.649 46.7647 107.21 47.3224 107.21 48.0103C107.21 48.6982 106.649 49.2559 105.958 49.2559C105.266 49.2559 104.706 48.6982 104.706 48.0103Z" fill="white"/>
<path d="M107.711 45.0209C107.711 44.2412 108.346 43.6092 109.13 43.6092C109.914 43.6092 110.549 44.2412 110.549 45.0209C110.549 45.8005 109.914 46.4325 109.13 46.4325C108.346 46.4325 107.711 45.8005 107.711 45.0209Z" fill="white"/>
<path d="M108.045 51.1657C108.045 50.5695 108.531 50.0862 109.13 50.0862C109.729 50.0862 110.215 50.5695 110.215 51.1657C110.215 51.7619 109.729 52.2453 109.13 52.2453C108.531 52.2453 108.045 51.7619 108.045 51.1657Z" fill="white"/>
<path d="M105.874 53.4078C106.335 53.4078 106.709 53.7796 106.709 54.2382C106.709 54.6968 106.335 55.0686 105.874 55.0686C105.413 55.0686 105.04 54.6968 105.04 54.2382C105.04 53.7796 105.413 53.4078 105.874 53.4078Z" fill="white"/>
<path d="M105.958 60.0509C106.188 60.0509 106.375 60.2368 106.375 60.4661C106.375 60.6954 106.188 60.8813 105.958 60.8813C105.727 60.8813 105.54 60.6954 105.54 60.4661C105.54 60.2368 105.727 60.0509 105.958 60.0509Z" fill="white"/>
<path d="M108.546 57.4767C108.546 57.1557 108.807 56.8954 109.13 56.8954C109.453 56.8954 109.714 57.1557 109.714 57.4767C109.714 57.7977 109.453 58.058 109.13 58.058C108.807 58.058 108.546 57.7977 108.546 57.4767Z" fill="white"/>
</g>
<path d="M123.19 103.042C98.6319 101.943 79.942 86.4622 65.968 67.0424C62.7368 62.5519 34.2674 14.4169 56.8569 15.1535C70.9541 15.6132 87.7733 28.5983 93.6902 40.9869C106.768 68.3675 53.0444 99.6636 30.7856 96.8813C13.8996 94.7705 29.5421 69.8389 34.4125 63.9313C45.4841 50.5018 60.4839 41.5068 77.1902 36.7091C86.8676 33.9299 106.835 32.6018 99.5236 48.9313C91.8681 66.0285 72.7452 80.7628 55.6347 87.3758C46.2261 91.0121 35.903 92.7922 25.8569 93.1535C22.8192 93.2628 15.621 93.8023 12.968 90.9313C4.64574 81.925 12.328 62.5814 17.4125 54.3758C24.8985 42.2944 37.3144 33.3656 51.7458 38.9313C67.1218 44.8613 77.5582 58.1882 90.3569 67.8202C93.9254 70.5058 108.836 80.1651 109.635 70.0424C111.559 45.6621 82.7028 14.6195 58.8569 12.9313C45.7695 12.0048 32.55 24.1072 29.8569 36.4869C26.2799 52.9295 45.7712 63.8226 58.6347 67.7646C75.3037 72.8729 94.9483 72.4693 112.079 70.0424C116.918 69.3569 124.226 68.0215 125.801 62.3758C128.51 52.671 107.388 49.9792 102.19 49.3758C83.8818 47.2502 59.178 52.3099 46.7458 67.2646C41.0576 74.107 43.5242 80.1086 51.9125 81.3202C68.1281 83.6625 86.4489 75.225 100.079 88.4869C117.577 105.512 47.353 118.628 37.7458 93.2646C33.8384 82.949 50.6081 76.0926 57.468 73.6535C64.3493 71.2069 73.8629 68.9909 80.5236 73.4869C88.2206 78.6823 79.6023 85.564 76.1902 90.0424" stroke="#1AE69B" stroke-width="2" stroke-linecap="round"/>
<path d="M122.92 12.7499L112.497 35.3329" stroke="#FFED48" stroke-width="11"/>
<path d="M131.474 14.487L121.051 37.0701" stroke="#FFED48" stroke-width="11"/>
<path d="M137.686 23.4295L110.169 18.9524" stroke="#FFED48" stroke-width="11"/>
<path d="M134.802 31.2468L107.286 26.7696" stroke="#FFED48" stroke-width="11"/>
<path d="M122.92 12.7499L112.497 35.3329" stroke="#875CFF" stroke-width="2"/>
<path d="M131.474 14.487L121.051 37.0701" stroke="#875CFF" stroke-width="2"/>
<path d="M137.686 23.4295L110.169 18.9524" stroke="#875CFF" stroke-width="2"/>
<path d="M134.802 31.2468L107.286 26.7696" stroke="#875CFF" stroke-width="2"/>
<path d="M1.28564 30.8813C15.7856 27.8813 23.2856 20.8813 29.2856 2.3813C33.2856 20.8813 37.9727 27.7421 53.2856 32.3813C40.7856 35.8813 29.2856 44.3813 27.2856 66.8813C23.2856 43.8813 15.7856 35.8813 1.28564 30.8813Z" stroke="black" stroke-width="2" stroke-linejoin="round"/>
<path d="M63.2856 113.381C72.2856 113.381 75.0931 109.317 79.2856 101.881C77.5815 110.304 78.7856 115.381 83.2856 118.881C77.4011 118.429 73.7856 122.381 72.2856 127.881C71.7856 120.381 69.4211 116.237 63.2856 113.381Z" stroke="#8247FF" stroke-width="2" stroke-linejoin="round"/>
<path d="M21.9846 115.549C19.1182 115.076 20.6179 105.305 23.4843 105.778C26.3508 106.251 24.8511 116.022 21.9846 115.549Z" fill="#FF7373"/>
<path d="M12.0451 113.362C9.49132 111.581 16.7906 100.327 19.3444 102.108C21.8982 103.889 14.5989 115.143 12.0451 113.362Z" fill="#FF7373"/>
<path d="M4.53418 107.04C2.74783 104.898 10.1777 98.2364 11.964 100.379C13.7504 102.521 6.32053 109.182 4.53418 107.04Z" fill="#FF7373"/>
<path d="M137.785 94.3814C128.786 99.3814 121.786 92.2146 121.786 86.8814C121.786 80.3813 127.786 75.5813 131.286 78.3814C134.786 81.1815 131.286 88.3814 122.786 88.3814C117.784 88.3814 113.286 85.3814 114.786 78.3814" stroke="#55B6F2" stroke-width="2"/>
<path d="M87.7856 1.38126C83.2856 -1.11876 77.786 9.38123 81.7858 12.3813C85.7856 15.3813 92.2855 3.88129 87.7856 1.38126Z" stroke="#F25555" stroke-width="2"/>
</svg>
