<svg width="110" height="84" viewBox="0 0 110 84" fill="none" xmlns="http://www.w3.org/2000/svg">
<rect x="6.9787" y="6.68182" width="102.307" height="77.3182" rx="12" fill="#262729"/>
<rect x="0.285706" width="102.307" height="77.3182" rx="8" fill="#515660"/>
<path d="M32.1565 1.16088L21.5653 5.56621L19.2423 0H31.672L32.1565 1.16088Z" fill="#292929" fill-opacity="0.7"/>
<path d="M89.1211 0.00154391L94.2319 12.248L102.489 8.81341C102.305 5.6668 101.789 3.67128 100.352 2.23663C98.3097 0.197388 95.132 0.01742 89.1211 0.00154391Z" fill="#292929" fill-opacity="0.7"/>
<path d="M102.593 46.0318L96.1937 38.1818L87.2945 45.4119L102.59 64.176C102.593 63.5031 102.593 62.7937 102.593 62.0455V46.0318Z" fill="#292929" fill-opacity="0.7"/>
<path d="M54.8361 77.3182L51.5092 68.7273L29.2516 77.3182H54.8361Z" fill="#292929" fill-opacity="0.7"/>
<path d="M0.285706 37.5043L13.6785 38.2656L14.3308 26.8296L0.285706 26.0312V37.5043Z" fill="#292929" fill-opacity="0.7"/>
<path d="M69.9492 12.025L58.7476 9.54545L51.0755 44.0888L62.2771 46.5684L69.9492 12.025Z" fill="#292929" fill-opacity="0.7"/>
<rect x="1.28571" y="1" width="100.307" height="75.3182" rx="7" stroke="#7B818E" stroke-width="2"/>
<path d="M38.1001 32.2098L24.1892 45.6958L38.1001 59.1818M64.7783 59.1818L78.6892 45.3409L64.7783 31.5M56.9042 32.2098L45.9474 59.1813" stroke="white" stroke-width="3"/>
<path d="M93.0313 17.1818H9.84711" stroke="#7B818E" stroke-width="2"/>
<ellipse cx="13.1936" cy="10.0227" rx="2.39035" ry="2.38636" fill="#BDC0C7"/>
<ellipse cx="20.8427" cy="10.0227" rx="2.39035" ry="2.38636" fill="#BDC0C7"/>
<ellipse cx="28.4918" cy="10.0227" rx="2.39035" ry="2.38636" fill="#BDC0C7"/>
</svg>
