<svg width="116" height="91" viewBox="0 0 116 91" fill="none" xmlns="http://www.w3.org/2000/svg">
<path d="M26.5 30C30.8855 49.095 36.1659 55.5906 51 59C36.9507 63.6343 31.7308 70.1994 26.5 88C22.5927 71.1424 17.5891 64.4318 2 59C17.1948 55.4453 21.9501 48.2544 26.5 30Z" fill="#006FFF"/>
<path d="M10.9032 8.85275C1.69895 17.9898 1.69895 32.8038 10.9032 41.9408L57.2283 88L105.097 42.4978C114.301 33.3608 114.301 18.5468 105.097 9.40981C95.8926 0.272802 80.9697 0.272802 71.7655 9.40981L58.2806 22.8685L44.2345 8.85275C35.0303 -0.284251 20.1074 -0.284251 10.9032 8.85275Z" fill="#FF5454"/>
<path d="M98.4196 48.9669C98.4373 48.8874 98.4465 48.8048 98.4465 48.72C98.4465 48.0893 97.9318 47.578 97.2969 47.578C96.662 47.578 96.1473 48.0893 96.1473 48.72C96.1473 49.3507 96.662 49.862 97.2969 49.862C97.3635 49.862 97.4288 49.8564 97.4924 49.8456L98.4196 48.9669Z" fill="#FF9182"/>
<path d="M94.8741 52.3267C94.7612 51.6355 94.1576 51.1079 93.4299 51.1079C92.6218 51.1079 91.9667 51.7586 91.9667 52.5614C91.9667 53.2605 92.4637 53.8444 93.1258 53.9834L94.8741 52.3267Z" fill="#FF9182"/>
<path d="M91.227 55.7828C90.9743 55.1139 90.3246 54.6378 89.563 54.6378C88.5817 54.6378 87.7862 55.428 87.7862 56.4027C87.7862 57.1299 88.2289 57.7543 88.8612 58.0247L91.227 55.7828Z" fill="#FF9182"/>
<path d="M87.359 59.4481C87.0298 58.8111 86.3618 58.3753 85.5914 58.3753C84.4948 58.3753 83.6057 59.2585 83.6057 60.3479C83.6057 61.08 84.0072 61.719 84.6034 62.0594L87.359 59.4481Z" fill="#FF9182"/>
<path d="M83.5047 63.1005C83.1366 62.5079 82.477 62.1128 81.7245 62.1128C80.57 62.1128 79.6342 63.0425 79.6342 64.1893C79.6342 64.9017 79.9954 65.5304 80.5459 65.9044L83.5047 63.1005Z" fill="#FF9182"/>
<path d="M79.6117 66.7896C79.1935 66.2203 78.5167 65.8504 77.753 65.8504C76.4831 65.8504 75.4537 66.873 75.4537 68.1344C75.4537 68.8545 75.7891 69.4967 76.3132 69.9153L79.6117 66.7896Z" fill="#FF9182"/>
<path d="M75.7412 70.4573C75.3003 69.9264 74.633 69.5879 73.886 69.5879C72.5584 69.5879 71.4822 70.657 71.4822 71.9758C71.4822 72.6773 71.7867 73.3082 72.2717 73.7451L75.7412 70.4573Z" fill="#FF9182"/>
<path d="M71.8339 74.1599C71.3566 73.6468 70.6733 73.3254 69.9145 73.3254C68.4715 73.3254 67.3017 74.4875 67.3017 75.9209C67.3017 76.5622 67.5357 77.1491 67.9236 77.602C67.4359 77.1394 66.7751 76.8553 66.0475 76.8553C64.5468 76.8553 63.3302 78.0639 63.3302 79.5547C63.3302 80.3002 63.6344 80.9752 64.1264 81.4637L71.8339 74.1599Z" fill="#FF9182"/>
<path d="M63.8846 81.6928C63.4042 81.267 62.7705 81.0081 62.076 81.0081C61.4255 81.0081 60.8283 81.2352 60.3605 81.614C60.7792 81.1111 61.0309 80.4659 61.0309 79.7623C61.0309 79.0587 60.7792 78.4135 60.3605 77.9106C60.8283 78.2894 61.4255 78.5164 62.076 78.5164C63.5768 78.5164 64.7933 77.3079 64.7933 75.8171C64.7933 74.3263 63.5768 73.1178 62.076 73.1178C60.5753 73.1178 59.3587 74.3263 59.3587 75.8171C59.3587 76.4634 59.5873 77.0566 59.9685 77.5213C59.4623 77.1053 58.8128 76.8553 58.1045 76.8553C56.4883 76.8553 55.1781 78.1568 55.1781 79.7623C55.1781 81.3678 56.4883 82.6693 58.1045 82.6693C58.8128 82.6693 59.4623 82.4193 59.9685 82.0033C59.5873 82.468 59.3587 83.0612 59.3587 83.7075C59.3587 84.3517 59.5858 84.9431 59.9649 85.4072L63.8846 81.6928Z" fill="#FF9182"/>
<path d="M59.9263 85.4438C59.4286 84.8881 58.7032 84.538 57.8955 84.538C57.2842 84.538 56.7201 84.7385 56.2662 85.0769C56.5046 84.6754 56.6413 84.2073 56.6413 83.7075C56.6413 82.2167 55.4247 81.0081 53.924 81.0081C52.9093 81.0081 52.0246 81.5606 51.5579 82.3792L55.2664 86.0549C55.3661 85.9985 55.4619 85.936 55.5533 85.8679C55.4936 85.9684 55.4403 86.0731 55.3939 86.1814L57.2288 88L59.9263 85.4438Z" fill="#FF9182"/>
<path d="M51.2893 82.1129C52.1135 81.6494 52.6698 80.7704 52.6698 79.7623C52.6698 78.2715 51.4532 77.063 49.9525 77.063C48.9355 77.063 48.049 77.6179 47.5832 78.4396L51.2893 82.1129Z" fill="#FF9182"/>
<path d="M47.3398 78.1984C48.1494 77.7574 48.6983 76.9029 48.6983 75.9209C48.6983 74.4875 47.5285 73.3254 46.0855 73.3254C45.095 73.3254 44.2332 73.873 43.7901 74.68L47.3398 78.1984Z" fill="#FF9182"/>
<path d="M43.2077 74.1027C43.9855 73.7073 44.5178 72.9033 44.5178 71.9758C44.5178 70.657 43.4416 69.5879 42.114 69.5879C41.1784 69.5879 40.3676 70.1189 39.9704 70.894L43.2077 74.1027Z" fill="#FF9182"/>
<path d="M39.257 70.1869C40.0205 69.8154 40.5463 69.0359 40.5463 68.1344C40.5463 66.873 39.5169 65.8504 38.247 65.8504C37.3377 65.8504 36.5517 66.3747 36.1786 67.1357L39.257 70.1869Z" fill="#FF9182"/>
<path d="M35.122 66.0884C35.8547 65.7656 36.3658 65.0367 36.3658 64.1893C36.3658 63.0425 35.43 62.1128 34.2755 62.1128C33.4208 62.1128 32.6858 62.6225 32.3619 63.3526L35.122 66.0884Z" fill="#FF9182"/>
<path d="M31.1693 62.1706C31.8885 61.874 32.3943 61.1696 32.3943 60.3479C32.3943 59.2585 31.5053 58.3753 30.4086 58.3753C29.5798 58.3753 28.8696 58.8797 28.572 59.5963L31.1693 62.1706Z" fill="#FF9182"/>
<path d="M27.0294 58.0672C27.7194 57.8249 28.2138 57.1712 28.2138 56.4027C28.2138 55.428 27.4183 54.6378 26.4371 54.6378C25.6621 54.6378 25.003 55.1306 24.7602 55.818L27.0294 58.0672Z" fill="#FF9182"/>
<path d="M22.9028 53.9771C23.5506 53.8275 24.0333 53.2504 24.0333 52.5614C24.0333 51.7586 23.3782 51.1079 22.5701 51.1079C21.8753 51.1079 21.2937 51.5889 21.1442 52.234L22.9028 53.9771Z" fill="#FF9182"/>
<path d="M18.7502 49.8611C19.3633 49.8366 19.8527 49.3351 19.8527 48.72C19.8527 48.0893 19.338 47.578 18.7031 47.578C18.0831 47.578 17.5777 48.0656 17.5543 48.6758L18.7502 49.8611Z" fill="#FF9182"/>
<path d="M54.0285 22.0382C53.7399 22.0382 53.5059 21.8058 53.5059 21.5191C53.5059 21.2324 53.7399 21 54.0285 21C54.3171 21 54.5511 21.2324 54.5511 21.5191C54.5511 21.8058 54.3171 22.0382 54.0285 22.0382Z" fill="#FF9182"/>
<path d="M58.1045 25.9834C58.5663 25.9834 58.9406 25.6115 58.9406 25.1528C58.9406 24.6941 58.5663 24.3222 58.1045 24.3222C57.6427 24.3222 57.2684 24.6941 57.2684 25.1528C57.2684 25.6115 57.6427 25.9834 58.1045 25.9834Z" fill="#FF9182"/>
<path d="M59.5677 33.0432C59.5677 33.8459 58.9126 34.4966 58.1045 34.4966C57.2964 34.4966 56.6413 33.8459 56.6413 33.0432C56.6413 32.2404 57.2964 31.5897 58.1045 31.5897C58.9126 31.5897 59.5677 32.2404 59.5677 33.0432Z" fill="#FF9182"/>
<path d="M58.1045 42.387C59.028 42.387 59.7767 41.6433 59.7767 40.7259C59.7767 39.8084 59.028 39.0647 58.1045 39.0647C57.181 39.0647 56.4323 39.8084 56.4323 40.7259C56.4323 41.6433 57.181 42.387 58.1045 42.387Z" fill="#FF9182"/>
<path d="M60.1948 48.6162C60.1948 49.763 59.2589 50.6926 58.1045 50.6926C56.9501 50.6926 56.0142 49.763 56.0142 48.6162C56.0142 47.4694 56.9501 46.5398 58.1045 46.5398C59.2589 46.5398 60.1948 47.4694 60.1948 48.6162Z" fill="#FF9182"/>
<path d="M58.1045 58.583C59.3744 58.583 60.4038 57.5604 60.4038 56.2989C60.4038 55.0375 59.3744 54.0149 58.1045 54.0149C56.8346 54.0149 55.8052 55.0375 55.8052 56.2989C55.8052 57.5604 56.8346 58.583 58.1045 58.583Z" fill="#FF9182"/>
<path d="M60.6128 64.1893C60.6128 65.5654 59.4898 66.6809 58.1045 66.6809C56.7192 66.6809 55.5962 65.5654 55.5962 64.1893C55.5962 62.8131 56.7192 61.6976 58.1045 61.6976C59.4898 61.6976 60.6128 62.8131 60.6128 64.1893Z" fill="#FF9182"/>
<path d="M58.1045 74.7789C59.6053 74.7789 60.8218 73.5704 60.8218 72.0796C60.8218 70.5888 59.6053 69.3803 58.1045 69.3803C56.6038 69.3803 55.3872 70.5888 55.3872 72.0796C55.3872 73.5704 56.6038 74.7789 58.1045 74.7789Z" fill="#FF9182"/>
<path d="M52.4608 64.1893C52.4608 65.4507 51.4314 66.4733 50.1615 66.4733C48.8917 66.4733 47.8622 65.4507 47.8622 64.1893C47.8622 62.9278 48.8917 61.9052 50.1615 61.9052C51.4314 61.9052 52.4608 62.9278 52.4608 64.1893Z" fill="#FF9182"/>
<path d="M54.0285 70.8337C55.4715 70.8337 56.6413 69.6717 56.6413 68.2382C56.6413 66.8048 55.4715 65.6427 54.0285 65.6427C52.5855 65.6427 51.4157 66.8048 51.4157 68.2382C51.4157 69.6717 52.5855 70.8337 54.0285 70.8337Z" fill="#FF9182"/>
<path d="M54.133 54.8454C52.9786 54.8454 52.0428 53.9158 52.0428 52.769C52.0428 51.6222 52.9786 50.6926 54.133 50.6926C55.2874 50.6926 56.2233 51.6222 56.2233 52.769C56.2233 53.9158 55.2874 54.8454 54.133 54.8454Z" fill="#FF9182"/>
<path d="M50.057 50.485C51.1537 50.485 52.0428 49.6018 52.0428 48.5124C52.0428 47.423 51.1537 46.5398 50.057 46.5398C48.9603 46.5398 48.0713 47.423 48.0713 48.5124C48.0713 49.6018 48.9603 50.485 50.057 50.485Z" fill="#FF9182"/>
<path d="M54.133 46.7474C53.094 46.7474 52.2518 45.9108 52.2518 44.8787C52.2518 43.8466 53.094 43.0099 54.133 43.0099C55.172 43.0099 56.0142 43.8466 56.0142 44.8787C56.0142 45.9108 55.172 46.7474 54.133 46.7474Z" fill="#FF9182"/>
<path d="M54.0285 38.6495C54.8943 38.6495 55.5962 37.9522 55.5962 37.0921C55.5962 36.2321 54.8943 35.5348 54.0285 35.5348C53.1627 35.5348 52.4608 36.2321 52.4608 37.0921C52.4608 37.9522 53.1627 38.6495 54.0285 38.6495Z" fill="#FF9182"/>
<path d="M51.8337 40.8297C51.8337 41.8044 51.0383 42.5946 50.057 42.5946C49.0757 42.5946 48.2803 41.8044 48.2803 40.8297C48.2803 39.8549 49.0757 39.0647 50.057 39.0647C51.0383 39.0647 51.8337 39.8549 51.8337 40.8297Z" fill="#FF9182"/>
<path d="M46.19 46.5398C47.229 46.5398 48.0713 45.7031 48.0713 44.671C48.0713 43.6389 47.229 42.8023 46.19 42.8023C45.151 42.8023 44.3088 43.6389 44.3088 44.671C44.3088 45.7031 45.151 46.5398 46.19 46.5398Z" fill="#FF9182"/>
<path d="M43.8907 40.8297C43.8907 41.6898 43.1889 42.387 42.323 42.387C41.4572 42.387 40.7553 41.6898 40.7553 40.8297C40.7553 39.9696 41.4572 39.2724 42.323 39.2724C43.1889 39.2724 43.8907 39.9696 43.8907 40.8297Z" fill="#FF9182"/>
<path d="M45.981 38.4418C46.7891 38.4418 47.4442 37.7911 47.4442 36.9883C47.4442 36.1856 46.7891 35.5348 45.981 35.5348C45.1729 35.5348 44.5178 36.1856 44.5178 36.9883C44.5178 37.7911 45.1729 38.4418 45.981 38.4418Z" fill="#FF9182"/>
<path d="M51.4157 33.147C51.4157 33.8924 50.8074 34.4966 50.057 34.4966C49.3066 34.4966 48.6983 33.8924 48.6983 33.147C48.6983 32.4016 49.3066 31.7973 50.057 31.7973C50.8074 31.7973 51.4157 32.4016 51.4157 33.147Z" fill="#FF9182"/>
<path d="M53.0879 29.3056C53.0879 29.879 53.5558 30.3438 54.133 30.3438C54.7102 30.3438 55.1781 29.879 55.1781 29.3056C55.1781 28.7322 54.7102 28.2674 54.133 28.2674C53.5558 28.2674 53.0879 28.7322 53.0879 29.3056Z" fill="#FF9182"/>
<path d="M46.0855 30.1362C46.605 30.1362 47.0261 29.7178 47.0261 29.2018C47.0261 28.6858 46.605 28.2674 46.0855 28.2674C45.566 28.2674 45.1449 28.6858 45.1449 29.2018C45.1449 29.7178 45.566 30.1362 46.0855 30.1362Z" fill="#FF9182"/>
<path d="M50.7886 25.2566C50.7886 25.658 50.461 25.9834 50.057 25.9834C49.653 25.9834 49.3254 25.658 49.3254 25.2566C49.3254 24.8553 49.653 24.5299 50.057 24.5299C50.461 24.5299 50.7886 24.8553 50.7886 25.2566Z" fill="#FF9182"/>
<path d="M42.114 34.0814C42.7489 34.0814 43.2637 33.5701 43.2637 32.9393C43.2637 32.3086 42.7489 31.7973 42.114 31.7973C41.4791 31.7973 40.9644 32.3086 40.9644 32.9393C40.9644 33.5701 41.4791 34.0814 42.114 34.0814Z" fill="#FF9182"/>
<path d="M39.5012 36.7807C39.5012 37.4687 38.9397 38.0265 38.247 38.0265C37.5544 38.0265 36.9929 37.4687 36.9929 36.7807C36.9929 36.0926 37.5544 35.5348 38.247 35.5348C38.9397 35.5348 39.5012 36.0926 39.5012 36.7807Z" fill="#FF9182"/>
<path d="M34.38 33.8737C34.8995 33.8737 35.3207 33.4554 35.3207 32.9393C35.3207 32.4233 34.8995 32.005 34.38 32.005C33.8606 32.005 33.4394 32.4233 33.4394 32.9393C33.4394 33.4554 33.8606 33.8737 34.38 33.8737Z" fill="#FF9182"/>
<path d="M38.8741 29.2018C38.8741 29.6032 38.5466 29.9285 38.1425 29.9285C37.7385 29.9285 37.4109 29.6032 37.4109 29.2018C37.4109 28.8004 37.7385 28.4751 38.1425 28.4751C38.5466 28.4751 38.8741 28.8004 38.8741 29.2018Z" fill="#FF9182"/>
<path d="M42.2185 25.9834C42.5648 25.9834 42.8456 25.7045 42.8456 25.3605C42.8456 25.0164 42.5648 24.7375 42.2185 24.7375C41.8722 24.7375 41.5914 25.0164 41.5914 25.3605C41.5914 25.7045 41.8722 25.9834 42.2185 25.9834Z" fill="#FF9182"/>
<path d="M34.6936 25.3605C34.6936 25.5898 34.5064 25.7757 34.2755 25.7757C34.0447 25.7757 33.8575 25.5898 33.8575 25.3605C33.8575 25.1311 34.0447 24.9452 34.2755 24.9452C34.5064 24.9452 34.6936 25.1311 34.6936 25.3605Z" fill="#FF9182"/>
<path d="M30.4086 29.5133C30.6972 29.5133 30.9311 29.2809 30.9311 28.9942C30.9311 28.7075 30.6972 28.4751 30.4086 28.4751C30.1199 28.4751 29.886 28.7075 29.886 28.9942C29.886 29.2809 30.1199 29.5133 30.4086 29.5133Z" fill="#FF9182"/>
<path d="M54.0285 62.7358C52.7009 62.7358 51.6247 61.6667 51.6247 60.3479C51.6247 59.0291 52.7009 57.96 54.0285 57.96C55.3561 57.96 56.4323 59.0291 56.4323 60.3479C56.4323 61.6667 55.3561 62.7358 54.0285 62.7358Z" fill="#FF9182"/>
<path d="M14.7316 45.5016C15.1356 45.5016 15.4632 45.1762 15.4632 44.7749C15.4632 44.3735 15.1356 44.0481 14.7316 44.0481C14.3275 44.0481 14 44.3735 14 44.7749C14 45.1762 14.3275 45.5016 14.7316 45.5016Z" fill="#FF9182"/>
<path d="M56.6413 75.8171C56.6413 77.3079 55.4247 78.5164 53.924 78.5164C52.4232 78.5164 51.2066 77.3079 51.2066 75.8171C51.2066 74.3263 52.4232 73.1178 53.924 73.1178C55.4247 73.1178 56.6413 74.3263 56.6413 75.8171Z" fill="#FF9182"/>
<path d="M50.057 74.5713C51.5 74.5713 52.6698 73.4092 52.6698 71.9758C52.6698 70.5423 51.5 69.3803 50.057 69.3803C48.614 69.3803 47.4442 70.5423 47.4442 71.9758C47.4442 73.4092 48.614 74.5713 50.057 74.5713Z" fill="#FF9182"/>
<path d="M48.4893 68.0306C48.4893 69.3494 47.4131 70.4185 46.0855 70.4185C44.7579 70.4185 43.6817 69.3494 43.6817 68.0306C43.6817 66.7118 44.7579 65.6427 46.0855 65.6427C47.4131 65.6427 48.4893 66.7118 48.4893 68.0306Z" fill="#FF9182"/>
<path d="M42.2185 66.4733C43.4884 66.4733 44.5178 65.4507 44.5178 64.1893C44.5178 62.9278 43.4884 61.9052 42.2185 61.9052C40.9487 61.9052 39.9192 62.9278 39.9192 64.1893C39.9192 65.4507 40.9487 66.4733 42.2185 66.4733Z" fill="#FF9182"/>
<path d="M52.2518 56.2989C52.2518 57.5604 51.2223 58.583 49.9525 58.583C48.6826 58.583 47.6532 57.5604 47.6532 56.2989C47.6532 55.0375 48.6826 54.0149 49.9525 54.0149C51.2223 54.0149 52.2518 55.0375 52.2518 56.2989Z" fill="#FF9182"/>
<path d="M38.247 62.3205C39.4014 62.3205 40.3373 61.3908 40.3373 60.2441C40.3373 59.0973 39.4014 58.1677 38.247 58.1677C37.0926 58.1677 36.1568 59.0973 36.1568 60.2441C36.1568 61.3908 37.0926 62.3205 38.247 62.3205Z" fill="#FF9182"/>
<path d="M48.0713 52.4576C48.0713 53.547 47.1822 54.4301 46.0855 54.4301C44.9888 54.4301 44.0998 53.547 44.0998 52.4576C44.0998 51.3681 44.9888 50.485 46.0855 50.485C47.1822 50.485 48.0713 51.3681 48.0713 52.4576Z" fill="#FF9182"/>
<path d="M34.171 58.3753C35.2677 58.3753 36.1568 57.4922 36.1568 56.4027C36.1568 55.3133 35.2677 54.4301 34.171 54.4301C33.0743 54.4301 32.1853 55.3133 32.1853 56.4027C32.1853 57.4922 33.0743 58.3753 34.171 58.3753Z" fill="#FF9182"/>
<path d="M44.0998 48.6162C44.0998 49.6483 43.2575 50.485 42.2185 50.485C41.1795 50.485 40.3373 49.6483 40.3373 48.6162C40.3373 47.5841 41.1795 46.7474 42.2185 46.7474C43.2575 46.7474 44.0998 47.5841 44.0998 48.6162Z" fill="#FF9182"/>
<path d="M30.4086 54.2225C31.3898 54.2225 32.1853 53.4323 32.1853 52.4576C32.1853 51.4828 31.3898 50.6926 30.4086 50.6926C29.4273 50.6926 28.6318 51.4828 28.6318 52.4576C28.6318 53.4323 29.4273 54.2225 30.4086 54.2225Z" fill="#FF9182"/>
<path d="M39.9192 44.671C39.9192 45.5884 39.1706 46.3322 38.247 46.3322C37.3235 46.3322 36.5748 45.5884 36.5748 44.671C36.5748 43.7536 37.3235 43.0099 38.247 43.0099C39.1706 43.0099 39.9192 43.7536 39.9192 44.671Z" fill="#FF9182"/>
<path d="M26.5416 50.0697C27.3497 50.0697 28.0048 49.4189 28.0048 48.6162C28.0048 47.8135 27.3497 47.1627 26.5416 47.1627C25.7335 47.1627 25.0784 47.8135 25.0784 48.6162C25.0784 49.4189 25.7335 50.0697 26.5416 50.0697Z" fill="#FF9182"/>
<path d="M35.7387 40.8297C35.7387 41.5751 35.1304 42.1793 34.38 42.1793C33.6297 42.1793 33.0214 41.5751 33.0214 40.8297C33.0214 40.0843 33.6297 39.48 34.38 39.48C35.1304 39.48 35.7387 40.0843 35.7387 40.8297Z" fill="#FF9182"/>
<path d="M22.6746 45.9169C23.3095 45.9169 23.8242 45.4056 23.8242 44.7749C23.8242 44.1441 23.3095 43.6328 22.6746 43.6328C22.0397 43.6328 21.5249 44.1441 21.5249 44.7749C21.5249 45.4056 22.0397 45.9169 22.6746 45.9169Z" fill="#FF9182"/>
<path d="M31.5582 36.9883C31.5582 37.5617 31.0903 38.0265 30.5131 38.0265C29.9359 38.0265 29.4679 37.5617 29.4679 36.9883C29.4679 36.4149 29.9359 35.9501 30.5131 35.9501C31.0903 35.9501 31.5582 36.4149 31.5582 36.9883Z" fill="#FF9182"/>
<path d="M18.7031 41.5564C19.1071 41.5564 19.4347 41.231 19.4347 40.8297C19.4347 40.4283 19.1071 40.1029 18.7031 40.1029C18.299 40.1029 17.9715 40.4283 17.9715 40.8297C17.9715 41.231 18.299 41.5564 18.7031 41.5564Z" fill="#FF9182"/>
<path d="M27.1686 33.0432C27.1686 33.3872 26.8879 33.6661 26.5416 33.6661C26.1952 33.6661 25.9145 33.3872 25.9145 33.0432C25.9145 32.6991 26.1952 32.4202 26.5416 32.4202C26.8879 32.4202 27.1686 32.6991 27.1686 33.0432Z" fill="#FF9182"/>
<path d="M45.981 62.5281C47.2509 62.5281 48.2803 61.5055 48.2803 60.2441C48.2803 58.9826 47.2509 57.96 45.981 57.96C44.7111 57.96 43.6817 58.9826 43.6817 60.2441C43.6817 61.5055 44.7111 62.5281 45.981 62.5281Z" fill="#FF9182"/>
<path d="M44.3088 56.2989C44.3088 57.4457 43.3729 58.3753 42.2185 58.3753C41.0641 58.3753 40.1283 57.4457 40.1283 56.2989C40.1283 55.1521 41.0641 54.2225 42.2185 54.2225C43.3729 54.2225 44.3088 55.1521 44.3088 56.2989Z" fill="#FF9182"/>
<path d="M38.1425 54.4301C39.2392 54.4301 40.1283 53.547 40.1283 52.4576C40.1283 51.3681 39.2392 50.485 38.1425 50.485C37.0458 50.485 36.1568 51.3681 36.1568 52.4576C36.1568 53.547 37.0458 54.4301 38.1425 54.4301Z" fill="#FF9182"/>
<path d="M35.9477 48.4086C35.9477 49.326 35.1991 50.0697 34.2755 50.0697C33.352 50.0697 32.6033 49.326 32.6033 48.4086C32.6033 47.4911 33.352 46.7474 34.2755 46.7474C35.1991 46.7474 35.9477 47.4911 35.9477 48.4086Z" fill="#FF9182"/>
<path d="M30.4086 45.9169C31.1589 45.9169 31.7672 45.3126 31.7672 44.5672C31.7672 43.8218 31.1589 43.2175 30.4086 43.2175C29.6582 43.2175 29.0499 43.8218 29.0499 44.5672C29.0499 45.3126 29.6582 45.9169 30.4086 45.9169Z" fill="#FF9182"/>
<path d="M27.5867 40.8297C27.5867 41.4604 27.072 41.9717 26.4371 41.9717C25.8021 41.9717 25.2874 41.4604 25.2874 40.8297C25.2874 40.199 25.8021 39.6877 26.4371 39.6877C27.072 39.6877 27.5867 40.199 27.5867 40.8297Z" fill="#FF9182"/>
<path d="M22.5701 37.6112C23.0318 37.6112 23.4062 37.2394 23.4062 36.7807C23.4062 36.322 23.0318 35.9501 22.5701 35.9501C22.1083 35.9501 21.734 36.322 21.734 36.7807C21.734 37.2394 22.1083 37.6112 22.5701 37.6112Z" fill="#FF9182"/>
<path d="M63.5392 64.1893C63.5392 65.4507 64.5686 66.4733 65.8385 66.4733C67.1083 66.4733 68.1378 65.4507 68.1378 64.1893C68.1378 62.9278 67.1083 61.9052 65.8385 61.9052C64.5686 61.9052 63.5392 62.9278 63.5392 64.1893Z" fill="#FF9182"/>
<path d="M61.9715 70.8337C60.5285 70.8337 59.3587 69.6717 59.3587 68.2382C59.3587 66.8048 60.5285 65.6427 61.9715 65.6427C63.4145 65.6427 64.5843 66.8048 64.5843 68.2382C64.5843 69.6717 63.4145 70.8337 61.9715 70.8337Z" fill="#FF9182"/>
<path d="M61.867 54.8454C63.0214 54.8454 63.9572 53.9158 63.9572 52.769C63.9572 51.6222 63.0214 50.6926 61.867 50.6926C60.7126 50.6926 59.7767 51.6222 59.7767 52.769C59.7767 53.9158 60.7126 54.8454 61.867 54.8454Z" fill="#FF9182"/>
<path d="M65.943 50.485C64.8463 50.485 63.9572 49.6018 63.9572 48.5124C63.9572 47.423 64.8463 46.5398 65.943 46.5398C67.0397 46.5398 67.9287 47.423 67.9287 48.5124C67.9287 49.6018 67.0397 50.485 65.943 50.485Z" fill="#FF9182"/>
<path d="M61.867 46.7474C62.906 46.7474 63.7482 45.9108 63.7482 44.8787C63.7482 43.8466 62.906 43.0099 61.867 43.0099C60.828 43.0099 59.9857 43.8466 59.9857 44.8787C59.9857 45.9108 60.828 46.7474 61.867 46.7474Z" fill="#FF9182"/>
<path d="M61.9715 38.6495C61.1057 38.6495 60.4038 37.9522 60.4038 37.0921C60.4038 36.2321 61.1057 35.5348 61.9715 35.5348C62.8373 35.5348 63.5392 36.2321 63.5392 37.0921C63.5392 37.9522 62.8373 38.6495 61.9715 38.6495Z" fill="#FF9182"/>
<path d="M64.1663 40.8297C64.1663 41.8044 64.9617 42.5946 65.943 42.5946C66.9242 42.5946 67.7197 41.8044 67.7197 40.8297C67.7197 39.8549 66.9242 39.0647 65.943 39.0647C64.9617 39.0647 64.1663 39.8549 64.1663 40.8297Z" fill="#FF9182"/>
<path d="M69.81 46.5398C68.771 46.5398 67.9287 45.7031 67.9287 44.671C67.9287 43.6389 68.771 42.8023 69.81 42.8023C70.849 42.8023 71.6912 43.6389 71.6912 44.671C71.6912 45.7031 70.849 46.5398 69.81 46.5398Z" fill="#FF9182"/>
<path d="M72.1093 40.8297C72.1093 41.6898 72.8111 42.387 73.677 42.387C74.5428 42.387 75.2447 41.6898 75.2447 40.8297C75.2447 39.9696 74.5428 39.2724 73.677 39.2724C72.8111 39.2724 72.1093 39.9696 72.1093 40.8297Z" fill="#FF9182"/>
<path d="M70.019 38.4418C69.2109 38.4418 68.5558 37.7911 68.5558 36.9883C68.5558 36.1856 69.2109 35.5348 70.019 35.5348C70.8271 35.5348 71.4822 36.1856 71.4822 36.9883C71.4822 37.7911 70.8271 38.4418 70.019 38.4418Z" fill="#FF9182"/>
<path d="M64.5843 33.147C64.5843 33.8924 65.1926 34.4966 65.943 34.4966C66.6934 34.4966 67.3017 33.8924 67.3017 33.147C67.3017 32.4016 66.6934 31.7973 65.943 31.7973C65.1926 31.7973 64.5843 32.4016 64.5843 33.147Z" fill="#FF9182"/>
<path d="M62.9121 29.3056C62.9121 29.879 62.4442 30.3438 61.867 30.3438C61.2898 30.3438 60.8218 29.879 60.8218 29.3056C60.8218 28.7322 61.2898 28.2674 61.867 28.2674C62.4442 28.2674 62.9121 28.7322 62.9121 29.3056Z" fill="#FF9182"/>
<path d="M61.9715 22.0382C62.2601 22.0382 62.4941 21.8058 62.4941 21.5191C62.4941 21.2324 62.2601 21 61.9715 21C61.6829 21 61.4489 21.2324 61.4489 21.5191C61.4489 21.8058 61.6829 22.0382 61.9715 22.0382Z" fill="#FF9182"/>
<path d="M69.9145 30.1362C69.395 30.1362 68.9739 29.7178 68.9739 29.2018C68.9739 28.6858 69.395 28.2674 69.9145 28.2674C70.434 28.2674 70.8551 28.6858 70.8551 29.2018C70.8551 29.7178 70.434 30.1362 69.9145 30.1362Z" fill="#FF9182"/>
<path d="M65.2114 25.2566C65.2114 25.658 65.5389 25.9834 65.943 25.9834C66.347 25.9834 66.6746 25.658 66.6746 25.2566C66.6746 24.8553 66.347 24.5299 65.943 24.5299C65.5389 24.5299 65.2114 24.8553 65.2114 25.2566Z" fill="#FF9182"/>
<path d="M73.886 34.0814C73.2511 34.0814 72.7363 33.5701 72.7363 32.9393C72.7363 32.3086 73.2511 31.7973 73.886 31.7973C74.5209 31.7973 75.0356 32.3086 75.0356 32.9393C75.0356 33.5701 74.5209 34.0814 73.886 34.0814Z" fill="#FF9182"/>
<path d="M76.4988 36.7807C76.4988 37.4687 77.0603 38.0265 77.753 38.0265C78.4456 38.0265 79.0071 37.4687 79.0071 36.7807C79.0071 36.0926 78.4456 35.5348 77.753 35.5348C77.0603 35.5348 76.4988 36.0926 76.4988 36.7807Z" fill="#FF9182"/>
<path d="M81.62 33.8737C81.1005 33.8737 80.6793 33.4554 80.6793 32.9393C80.6793 32.4233 81.1005 32.005 81.62 32.005C82.1394 32.005 82.5606 32.4233 82.5606 32.9393C82.5606 33.4554 82.1394 33.8737 81.62 33.8737Z" fill="#FF9182"/>
<path d="M77.1259 29.2018C77.1259 29.6032 77.4534 29.9285 77.8575 29.9285C78.2615 29.9285 78.5891 29.6032 78.5891 29.2018C78.5891 28.8004 78.2615 28.4751 77.8575 28.4751C77.4534 28.4751 77.1259 28.8004 77.1259 29.2018Z" fill="#FF9182"/>
<path d="M73.7815 25.9834C73.4351 25.9834 73.1544 25.7045 73.1544 25.3605C73.1544 25.0164 73.4351 24.7375 73.7815 24.7375C74.1278 24.7375 74.4086 25.0164 74.4086 25.3605C74.4086 25.7045 74.1278 25.9834 73.7815 25.9834Z" fill="#FF9182"/>
<path d="M81.3064 25.3605C81.3064 25.5898 81.4936 25.7757 81.7245 25.7757C81.9554 25.7757 82.1425 25.5898 82.1425 25.3605C82.1425 25.1311 81.9554 24.9452 81.7245 24.9452C81.4936 24.9452 81.3064 25.1311 81.3064 25.3605Z" fill="#FF9182"/>
<path d="M85.5914 29.5133C85.3028 29.5133 85.0689 29.2809 85.0689 28.9942C85.0689 28.7075 85.3028 28.4751 85.5914 28.4751C85.8801 28.4751 86.114 28.7075 86.114 28.9942C86.114 29.2809 85.8801 29.5133 85.5914 29.5133Z" fill="#FF9182"/>
<path d="M61.9715 62.7358C63.2991 62.7358 64.3753 61.6667 64.3753 60.3479C64.3753 59.0291 63.2991 57.96 61.9715 57.96C60.6439 57.96 59.5677 59.0291 59.5677 60.3479C59.5677 61.6667 60.6439 62.7358 61.9715 62.7358Z" fill="#FF9182"/>
<path d="M101.268 45.5016C100.864 45.5016 100.537 45.1762 100.537 44.7749C100.537 44.3735 100.864 44.0481 101.268 44.0481C101.672 44.0481 102 44.3735 102 44.7749C102 45.1762 101.672 45.5016 101.268 45.5016Z" fill="#FF9182"/>
<path d="M65.943 74.5713C64.5 74.5713 63.3302 73.4092 63.3302 71.9758C63.3302 70.5423 64.5 69.3803 65.943 69.3803C67.386 69.3803 68.5558 70.5423 68.5558 71.9758C68.5558 73.4092 67.386 74.5713 65.943 74.5713Z" fill="#FF9182"/>
<path d="M67.5107 68.0306C67.5107 69.3494 68.5869 70.4185 69.9145 70.4185C71.2421 70.4185 72.3183 69.3494 72.3183 68.0306C72.3183 66.7118 71.2421 65.6427 69.9145 65.6427C68.5869 65.6427 67.5107 66.7118 67.5107 68.0306Z" fill="#FF9182"/>
<path d="M73.7815 66.4733C72.5116 66.4733 71.4822 65.4507 71.4822 64.1893C71.4822 62.9278 72.5116 61.9052 73.7815 61.9052C75.0513 61.9052 76.0808 62.9278 76.0808 64.1893C76.0808 65.4507 75.0513 66.4733 73.7815 66.4733Z" fill="#FF9182"/>
<path d="M63.7482 56.2989C63.7482 57.5604 64.7776 58.583 66.0475 58.583C67.3174 58.583 68.3468 57.5604 68.3468 56.2989C68.3468 55.0375 67.3174 54.0149 66.0475 54.0149C64.7776 54.0149 63.7482 55.0375 63.7482 56.2989Z" fill="#FF9182"/>
<path d="M77.753 62.3205C76.5986 62.3205 75.6627 61.3908 75.6627 60.2441C75.6627 59.0973 76.5986 58.1677 77.753 58.1677C78.9074 58.1677 79.8432 59.0973 79.8432 60.2441C79.8432 61.3908 78.9074 62.3205 77.753 62.3205Z" fill="#FF9182"/>
<path d="M67.9287 52.4576C67.9287 53.547 68.8178 54.4301 69.9145 54.4301C71.0112 54.4301 71.9002 53.547 71.9002 52.4576C71.9002 51.3681 71.0112 50.485 69.9145 50.485C68.8178 50.485 67.9287 51.3681 67.9287 52.4576Z" fill="#FF9182"/>
<path d="M81.829 58.3753C80.7323 58.3753 79.8432 57.4922 79.8432 56.4027C79.8432 55.3133 80.7323 54.4301 81.829 54.4301C82.9257 54.4301 83.8147 55.3133 83.8147 56.4027C83.8147 57.4922 82.9257 58.3753 81.829 58.3753Z" fill="#FF9182"/>
<path d="M71.9002 48.6162C71.9002 49.6483 72.7425 50.485 73.7815 50.485C74.8205 50.485 75.6627 49.6483 75.6627 48.6162C75.6627 47.5841 74.8205 46.7474 73.7815 46.7474C72.7425 46.7474 71.9002 47.5841 71.9002 48.6162Z" fill="#FF9182"/>
<path d="M85.5914 54.2225C84.6102 54.2225 83.8147 53.4323 83.8147 52.4576C83.8147 51.4828 84.6102 50.6926 85.5914 50.6926C86.5727 50.6926 87.3682 51.4828 87.3682 52.4576C87.3682 53.4323 86.5727 54.2225 85.5914 54.2225Z" fill="#FF9182"/>
<path d="M76.0808 44.671C76.0808 45.5884 76.8294 46.3322 77.753 46.3322C78.6765 46.3322 79.4252 45.5884 79.4252 44.671C79.4252 43.7536 78.6765 43.0099 77.753 43.0099C76.8294 43.0099 76.0808 43.7536 76.0808 44.671Z" fill="#FF9182"/>
<path d="M89.4584 50.0697C88.6503 50.0697 87.9953 49.4189 87.9953 48.6162C87.9953 47.8135 88.6503 47.1627 89.4584 47.1627C90.2665 47.1627 90.9216 47.8135 90.9216 48.6162C90.9216 49.4189 90.2665 50.0697 89.4584 50.0697Z" fill="#FF9182"/>
<path d="M80.2613 40.8297C80.2613 41.5751 80.8696 42.1793 81.62 42.1793C82.3703 42.1793 82.9786 41.5751 82.9786 40.8297C82.9786 40.0843 82.3703 39.48 81.62 39.48C80.8696 39.48 80.2613 40.0843 80.2613 40.8297Z" fill="#FF9182"/>
<path d="M93.3254 45.9169C92.6905 45.9169 92.1758 45.4056 92.1758 44.7749C92.1758 44.1441 92.6905 43.6328 93.3254 43.6328C93.9604 43.6328 94.4751 44.1441 94.4751 44.7749C94.4751 45.4056 93.9604 45.9169 93.3254 45.9169Z" fill="#FF9182"/>
<path d="M84.4418 36.9883C84.4418 37.5617 84.9097 38.0265 85.4869 38.0265C86.0642 38.0265 86.5321 37.5617 86.5321 36.9883C86.5321 36.4149 86.0642 35.9501 85.4869 35.9501C84.9097 35.9501 84.4418 36.4149 84.4418 36.9883Z" fill="#FF9182"/>
<path d="M97.2969 41.5564C96.8929 41.5564 96.5653 41.231 96.5653 40.8297C96.5653 40.4283 96.8929 40.1029 97.2969 40.1029C97.701 40.1029 98.0285 40.4283 98.0285 40.8297C98.0285 41.231 97.701 41.5564 97.2969 41.5564Z" fill="#FF9182"/>
<path d="M88.8314 33.0432C88.8314 33.3872 89.1121 33.6661 89.4584 33.6661C89.8048 33.6661 90.0855 33.3872 90.0855 33.0432C90.0855 32.6991 89.8048 32.4202 89.4584 32.4202C89.1121 32.4202 88.8314 32.6991 88.8314 33.0432Z" fill="#FF9182"/>
<path d="M70.019 62.5281C68.7491 62.5281 67.7197 61.5055 67.7197 60.2441C67.7197 58.9826 68.7491 57.96 70.019 57.96C71.2889 57.96 72.3183 58.9826 72.3183 60.2441C72.3183 61.5055 71.2889 62.5281 70.019 62.5281Z" fill="#FF9182"/>
<path d="M71.6912 56.2989C71.6912 57.4457 72.6271 58.3753 73.7815 58.3753C74.9359 58.3753 75.8717 57.4457 75.8717 56.2989C75.8717 55.1521 74.9359 54.2225 73.7815 54.2225C72.6271 54.2225 71.6912 55.1521 71.6912 56.2989Z" fill="#FF9182"/>
<path d="M77.8575 54.4301C76.7608 54.4301 75.8717 53.547 75.8717 52.4576C75.8717 51.3681 76.7608 50.485 77.8575 50.485C78.9542 50.485 79.8432 51.3681 79.8432 52.4576C79.8432 53.547 78.9542 54.4301 77.8575 54.4301Z" fill="#FF9182"/>
<path d="M80.0523 48.4086C80.0523 49.326 80.8009 50.0697 81.7245 50.0697C82.648 50.0697 83.3967 49.326 83.3967 48.4086C83.3967 47.4911 82.648 46.7474 81.7245 46.7474C80.8009 46.7474 80.0523 47.4911 80.0523 48.4086Z" fill="#FF9182"/>
<path d="M85.5914 45.9169C84.8411 45.9169 84.2328 45.3126 84.2328 44.5672C84.2328 43.8218 84.8411 43.2175 85.5914 43.2175C86.3418 43.2175 86.9501 43.8218 86.9501 44.5672C86.9501 45.3126 86.3418 45.9169 85.5914 45.9169Z" fill="#FF9182"/>
<path d="M88.4133 40.8297C88.4133 41.4604 88.928 41.9717 89.563 41.9717C90.1979 41.9717 90.7126 41.4604 90.7126 40.8297C90.7126 40.199 90.1979 39.6877 89.563 39.6877C88.928 39.6877 88.4133 40.199 88.4133 40.8297Z" fill="#FF9182"/>
<path d="M93.4299 37.6112C92.9682 37.6112 92.5938 37.2394 92.5938 36.7807C92.5938 36.322 92.9682 35.9501 93.4299 35.9501C93.8917 35.9501 94.266 36.322 94.266 36.7807C94.266 37.2394 93.8917 37.6112 93.4299 37.6112Z" fill="#FF9182"/>
<path fill-rule="evenodd" clip-rule="evenodd" d="M36.3909 67.3336C40.0238 63.4304 44.6804 60.863 51.2405 58.7099C36.2392 55.2792 30.8993 48.7431 26.4644 29.5291C24.21 38.5286 21.9058 44.8557 18.3345 49.3895L36.3909 67.3336Z" fill="#FEE798"/>
<path d="M89.5 14C91.0215 20.9137 92.8535 23.2656 98 24.5C93.1258 26.1779 91.3148 28.555 89.5 35C88.1444 28.8964 86.4085 26.4667 81 24.5C86.2717 23.2129 87.9215 20.6093 89.5 14Z" fill="#FEE798"/>
<path d="M84.8912 78.4015L89.2968 88.5506M94.6346 68.9885L104.746 78.5373M104.346 57.1821L113.854 61.5556" stroke="#FFC85C" stroke-width="2"/>
</svg>
