<svg width="135" height="135" viewBox="0 0 135 135" fill="none" xmlns="http://www.w3.org/2000/svg">
<g clip-path="url(#clip0_13_497)">
<path d="M109.742 73.0344H69.1193V118.436H52.3924V125.007H126.469V118.436H109.742V73.0344Z" fill="#D3D5D9"/>
<path d="M109.742 73.0344H69.1193V118.436H52.3924V125.007H126.469V118.436H109.742V73.0344Z" fill="url(#paint0_linear_13_497)" fill-opacity="0.4"/>
<path d="M14.9238 30.7121L18.9955 62.4368L98.441 80.5742L131.475 43.0964L116.715 41.0606L133.278 5.54127L82.692 20.0469L80.2261 1.76141L51.8184 30.7121L36.809 12.05L27.6478 36.9889L14.9238 30.7121Z" fill="#FF5959"/>
<path d="M22.5583 40.5516L29.6836 69.0533L86.3733 75.0006L128.93 31.3904L102.268 36.48L107.069 24.7837L75.4899 40.5516L75.4899 17.6485L48.5152 40.5516L39.6399 29.2647L32.7374 43.0964L22.5583 40.5516Z" stroke="#FFDD2C" stroke-width="2"/>
<path d="M33.7553 45.1323C33.7553 45.9756 33.0717 46.6592 32.2284 46.6592C31.3851 46.6592 30.7015 45.9756 30.7015 45.1323C30.7015 44.289 31.3851 43.6054 32.2284 43.6054C33.0717 43.6054 33.7553 44.289 33.7553 45.1323Z" fill="#FFDD2C"/>
<path d="M66.3286 32.9173C66.3286 33.7606 65.645 34.4442 64.8017 34.4442C63.9585 34.4442 63.2749 33.7606 63.2749 32.9173C63.2749 32.074 63.9585 31.3904 64.8017 31.3904C65.645 31.3904 66.3286 32.074 66.3286 32.9173Z" fill="#FFDD2C"/>
<path d="M63.2749 39.0248C63.2749 39.8681 62.5913 40.5517 61.748 40.5517C60.9047 40.5517 60.2211 39.8681 60.2211 39.0248C60.2211 38.1815 60.9047 37.4979 61.748 37.4979C62.5913 37.4979 63.2749 38.1815 63.2749 39.0248Z" fill="#FFDD2C"/>
<path d="M41.8986 45.1323C41.8986 45.9756 41.215 46.6592 40.3717 46.6592C39.5285 46.6592 38.8449 45.9756 38.8449 45.1323C38.8449 44.289 39.5285 43.6054 40.3717 43.6054C41.215 43.6054 41.8986 44.289 41.8986 45.1323Z" fill="#FFDD2C"/>
<path d="M70.4003 43.0965C70.4003 43.9397 69.7167 44.6234 68.8734 44.6234C68.0301 44.6234 67.3465 43.9397 67.3465 43.0965C67.3465 42.2532 68.0301 41.5696 68.8734 41.5696C69.7167 41.5696 70.4003 42.2532 70.4003 43.0965Z" fill="#FFDD2C"/>
<path d="M98.9019 32.9173C98.9019 33.7606 98.2183 34.4442 97.3751 34.4442C96.5318 34.4442 95.8482 33.7606 95.8482 32.9173C95.8482 32.074 96.5318 31.3904 97.3751 31.3904C98.2183 31.3904 98.9019 32.074 98.9019 32.9173Z" fill="#FFDD2C"/>
<path d="M87.7049 39.0248C87.7049 39.8681 87.0212 40.5517 86.178 40.5517C85.3347 40.5517 84.6511 39.8681 84.6511 39.0248C84.6511 38.1815 85.3347 37.4979 86.178 37.4979C87.0212 37.4979 87.7049 38.1815 87.7049 39.0248Z" fill="#FFDD2C"/>
<path d="M82.6153 44.1144C82.6153 44.9577 81.9317 45.6413 81.0884 45.6413C80.2451 45.6413 79.5615 44.9577 79.5615 44.1144C79.5615 43.2711 80.2451 42.5875 81.0884 42.5875C81.9317 42.5875 82.6153 43.2711 82.6153 44.1144Z" fill="#FFDD2C"/>
<path d="M90.7586 44.1144C90.7586 44.9577 90.075 45.6413 89.2317 45.6413C88.3885 45.6413 87.7049 44.9577 87.7049 44.1144C87.7049 43.2711 88.3885 42.5875 89.2317 42.5875C90.075 42.5875 90.7586 43.2711 90.7586 44.1144Z" fill="#FFDD2C"/>
<path d="M112.135 39.0248C112.135 39.8681 111.451 40.5517 110.608 40.5517C109.765 40.5517 109.081 39.8681 109.081 39.0248C109.081 38.1815 109.765 37.4979 110.608 37.4979C111.451 37.4979 112.135 38.1815 112.135 39.0248Z" fill="#FFDD2C"/>
<path d="M103.992 43.0965C103.992 43.9397 103.308 44.6234 102.465 44.6234C101.621 44.6234 100.938 43.9397 100.938 43.0965C100.938 42.2532 101.621 41.5696 102.465 41.5696C103.308 41.5696 103.992 42.2532 103.992 43.0965Z" fill="#FFDD2C"/>
<rect x="16.4507" y="47.6771" width="80.4154" height="59.0392" fill="#E9EAEC"/>
<mask id="mask0_13_497" style="mask-type:alpha" maskUnits="userSpaceOnUse" x="21" y="56" width="62" height="43">
<rect x="21.7252" y="56.9236" width="61.1792" height="41.8041" rx="9" fill="#82868F"/>
</mask>
<g mask="url(#mask0_13_497)">
<rect x="21.7252" y="56.9236" width="61.1792" height="41.8041" rx="9" fill="#82868F"/>
<path d="M5.22698 69.8057L77.0197 120.986L75.8032 122.692L4.01045 71.5121L5.22698 69.8057Z" fill="#565F6F"/>
<path d="M1.5774 74.9251L73.3702 126.105L72.1536 127.812L0.360881 76.6316L1.5774 74.9251Z" fill="#565F6F"/>
<path d="M12.5261 59.5669L84.3189 110.747L83.1023 112.454L11.3096 61.2733L12.5261 59.5669Z" fill="#565F6F"/>
<path d="M8.87654 64.6863L80.6693 115.867L79.4528 117.573L7.66002 66.3927L8.87654 64.6863Z" fill="#565F6F"/>
<path d="M19.8253 49.328L91.618 100.508L90.4015 102.215L18.6087 51.0345L19.8253 49.328Z" fill="#565F6F"/>
<path d="M16.1757 54.4474L87.9684 105.628L86.7519 107.334L14.9592 56.1539L16.1757 54.4474Z" fill="#565F6F"/>
<path d="M27.1244 39.0892L98.9171 90.2695L97.7006 91.9759L25.9079 40.7957L27.1244 39.0892Z" fill="#565F6F"/>
<path d="M23.4748 44.2086L95.2676 95.3889L94.0511 97.0953L22.2583 45.9151L23.4748 44.2086Z" fill="#565F6F"/>
<path d="M29.8691 33.6559L101.662 84.8362L100.445 86.5426L28.6526 35.3624L29.8691 33.6559Z" fill="#565F6F"/>
<path d="M32.6016 28.3491L104.394 79.5293L103.178 81.2358L31.385 30.0555L32.6016 28.3491Z" fill="#565F6F"/>
</g>
<path d="M49.024 63.9637H37.6836C34.8833 63.9637 33.4832 63.9637 32.4136 64.5087C31.4728 64.9881 30.7079 65.753 30.2286 66.6938C29.6836 67.7634 29.6836 69.1635 29.6836 71.9637V78.2146" stroke="white" stroke-width="2"/>
<path d="M110.273 48.695H92.7944V106.716H131.475V74.6074H122.93L110.273 48.695Z" fill="#F4F5F6"/>
<rect x="13.397" y="48.695" width="78.3795" height="58.0212" stroke="#848D9B" stroke-width="2"/>
<path d="M107.152 87.3759L98.9019 101.627M111.867 87.3759L103.616 101.627M116.582 87.3759L108.331 101.627M121.296 87.3759L113.046 101.627" stroke="#A7ABB4" stroke-width="2"/>
<path d="M94.8303 48.695H110.107L122.689 74.6779H130.457V105.698H118.651" stroke="#848D9B" stroke-width="2"/>
<path d="M16.748 127.437L116.504 111.078V124.65L100.5 131.436H16.748V127.437Z" fill="#C2C5CB"/>
<path d="M32.4765 111.314H114.378L98.7279 127.443H16.759L32.4765 111.314Z" fill="#F4F5F6"/>
<path d="M63.3738 120.872H98.5647L100.638 119.08H65.1659L63.3738 120.872Z" fill="#CDCFD5"/>
<path d="M62.6314 119.08H27.4403L25.367 120.872H60.8393L62.6314 119.08Z" fill="#CDCFD5"/>
<path d="M44.257 116.69H80.5529L82.3451 114.898H46.0492L44.257 116.69Z" fill="#CDCFD5"/>
<path d="M43.5147 114.898H31.6218L29.5485 116.69H41.7225L43.5147 114.898Z" fill="#CDCFD5"/>
<path d="M102.746 116.69H83.0874L84.8796 114.898H104.82L102.746 116.69Z" fill="#CDCFD5"/>
<path d="M39.3879 123.262H70.171L68.6951 125.054H37.912L39.3879 123.262Z" fill="#CDCFD5"/>
<path d="M30.146 111.314H116.767V124.456L99.1444 131.625H12.8217V127.443L30.146 111.314Z" stroke="#848D9B" stroke-width="2"/>
<path d="M81.1742 25.6409L85.5595 25.6637L85.7179 30.266L81.3352 29.6876L81.1742 25.6409Z" fill="#FFDD2C"/>
<path d="M16.7742 16.6371L20.1073 20.7292L16.7018 23.5325L13.6908 18.9119L16.7742 16.6371Z" fill="#FF4C4C"/>
<rect width="3.05303" height="6.27934" transform="matrix(0.248164 0.968718 -0.964049 0.265726 7.73309 42.519)" fill="#FF4C4C"/>
<rect width="4.7051" height="5.60559" transform="matrix(0.579391 0.81505 -0.808244 0.588847 129.577 59.2159)" fill="#FF4C4C"/>
<ellipse cx="50.3901" cy="12.4404" rx="2.5989" ry="2.5047" transform="rotate(-116.54 50.3901 12.4404)" fill="#FF4C4C"/>
</g>
<defs>
<linearGradient id="paint0_linear_13_497" x1="111.441" y1="118.1" x2="89.4305" y2="125.007" gradientUnits="userSpaceOnUse">
<stop stop-color="#565F6F"/>
<stop offset="1" stop-color="#565F6F" stop-opacity="0"/>
</linearGradient>
<clipPath id="clip0_13_497">
<rect width="135" height="135" fill="white"/>
</clipPath>
</defs>
</svg>
