<svg width="99" height="107" viewBox="0 0 99 107" fill="none" xmlns="http://www.w3.org/2000/svg">
<path d="M0 0H49.8837C49.8837 18.3888 49.8837 24.8863 49.8837 45.8571C29.974 45.8571 21.9474 45.8571 0 45.8571V0Z" fill="#FFF2EB"/>
<path d="M42.8265 0C42.062 2.97741 39.3656 5.17742 36.1565 5.17742C32.9475 5.17742 30.2511 2.97741 29.4866 0H42.8265Z" fill="#FFE3D9"/>
<path d="M49.8837 14.875C49.3475 14.7407 48.7864 14.6694 48.2087 14.6694C44.4052 14.6694 41.3218 17.76 41.3218 21.5726C41.3218 25.3851 44.4052 28.4758 48.2087 28.4758C48.7864 28.4758 49.3475 28.4045 49.8837 28.2702V14.875Z" fill="#FFE3D9"/>
<path d="M42.9737 45.8571C43.0197 45.5351 43.0435 45.2058 43.0435 44.871C43.0435 41.0584 39.9601 37.9677 36.1565 37.9677C32.353 37.9677 29.2696 41.0584 29.2696 44.871C29.2696 45.2058 29.2934 45.5351 29.3393 45.8571H42.9737Z" fill="#FFE3D9"/>
<path d="M19.7303 45.8571C19.7762 45.5351 19.8 45.2058 19.8 44.871C19.8 41.0584 16.7166 37.9677 12.9131 37.9677C9.10951 37.9677 6.02611 41.0584 6.02611 44.871C6.02611 45.2058 6.04989 45.5351 6.09585 45.8571H19.7303Z" fill="#FFE3D9"/>
<path d="M0 28.2583C0.55031 28.4003 1.12724 28.4758 1.72176 28.4758C5.52532 28.4758 8.60872 25.3851 8.60872 21.5726C8.60872 17.76 5.52532 14.6694 1.72176 14.6694C1.12724 14.6694 0.55031 14.7449 0 14.8868V28.2583Z" fill="#FFE3D9"/>
<path d="M6.24308 0C7.00761 2.97741 9.70402 5.17742 12.9131 5.17742C16.1221 5.17742 18.8185 2.97741 19.5831 0H6.24308Z" fill="#FFE3D9"/>
<path d="M31.8522 21.5726C31.8522 25.3851 28.7688 28.4758 24.9652 28.4758C21.1617 28.4758 18.0783 25.3851 18.0783 21.5726C18.0783 17.76 21.1617 14.6694 24.9652 14.6694C28.7688 14.6694 31.8522 17.76 31.8522 21.5726Z" fill="#FFE3D9"/>
<path d="M49.1162 45.8571H98.9999V57.3829C98.9999 67.0953 94.1774 76.189 86.0967 81.7143L49.1162 107V45.8571Z" fill="#FFF2EB"/>
<path d="M49.1163 0H99V45.8571H79.2558L79.9319 48.7964C80.8709 52.8784 77.7806 56.7755 73.6046 56.7755C69.4287 56.7755 66.3383 52.8784 67.2773 48.7964L67.9535 45.8571H49.1163V30.4454L47.0933 30.9138C43.0243 31.8558 39.1395 28.7556 39.1395 24.5663C39.1395 20.3771 43.0243 17.2769 47.0933 18.2189L49.1163 18.6872V0Z" fill="#FFE6E0"/>
<path fill-rule="evenodd" clip-rule="evenodd" d="M80.0696 50.9113C80.1252 50.3497 80.1081 49.7707 80.0094 49.1855H74.0348V33.6532H89.5304V45.8571H91.2522V33.6532H99V31.9274H91.2522V16.3952H99V14.6694H91.2522V0H89.5304V14.6694H74.0348V0H72.3131V14.6694H56.8174V0H55.0957V14.6694H49.1163V16.3952H55.0957V31.9274H49.1163V33.6532H55.0957V45.8571H56.8174V33.6532H72.3131V49.1855H67.1998C67.1012 49.7707 67.084 50.3497 67.1396 50.9113H72.3131V56.6478C72.729 56.7315 73.1607 56.7755 73.6046 56.7755C73.7494 56.7755 73.8928 56.7708 74.0348 56.7616V50.9113H80.0696ZM72.3131 31.9274H56.8174V16.3952H72.3131V31.9274ZM74.0348 31.9274V16.3952H89.5304V31.9274H74.0348Z" fill="#FFD9D1"/>
<path d="M24.8655 34.9711C20.7029 34.9711 17.6225 38.8275 18.5585 42.8668L19.2324 45.7754L0 45.8571V57.383C0 67.0953 4.74835 76.1891 12.7047 81.7143L49.1163 107V45.8571L30.4986 45.7754L31.1726 42.8668C32.1086 38.8275 29.0281 34.9711 24.8655 34.9711Z" fill="#FFE6DB"/>
<path d="M31.3036 42.096C27.027 41.2027 22.7019 41.237 18.4391 42.196C18.5102 42.7665 18.6647 43.3253 18.7942 43.8844C22.8264 42.9737 26.9138 42.9396 30.9595 43.7865C31.0892 43.2269 31.2414 42.6684 31.3036 42.096Z" fill="#FFD3CA"/>
<path d="M37.8624 45.8078C41.5911 47.1212 45.2669 48.6151 49.1163 49.5487V47.771C47.0579 47.2482 45.0337 46.5628 42.9942 45.8303L37.8624 45.8078Z" fill="#FFD3CA"/>
<path d="M49.1163 58.9887C41.0122 56.9303 33.5248 52.6013 24.9616 52.6373C16.0813 52.6747 8.52942 57.5259 0.0665794 59.3727C0.105411 59.952 0.1611 60.5283 0.233309 61.101C8.63039 59.3257 16.1898 54.4001 24.9689 54.3631C33.5032 54.3272 41.0065 58.7996 49.1163 60.7664V58.9887Z" fill="#FFD3CA"/>
<path d="M49.1163 70.2065C41.0122 68.1481 33.5248 63.819 24.9616 63.8551C17.0836 63.8883 10.1339 67.682 2.7616 69.8874C3.00767 70.4171 3.26929 70.9393 3.54608 71.4532C10.6483 69.2829 17.3694 65.6129 24.9689 65.5809C33.5032 65.5449 41.0065 70.0174 49.1163 71.9841V70.2065Z" fill="#FFD3CA"/>
<path d="M49.1163 81.4242C41.0122 79.3658 33.5248 75.0367 24.9616 75.0728C19.1744 75.0972 14.0869 76.9907 9.26208 78.8133L9.18327 78.8431C9.65204 79.2897 10.1367 79.7219 10.6368 80.139C15.2309 78.413 19.8207 76.8203 24.9689 76.7986C33.5032 76.7627 41.0065 81.2351 49.1163 83.2019V81.4242Z" fill="#FFD3CA"/>
<path d="M49.1163 92.642C41.0122 90.5835 33.5248 86.2545 24.9616 86.2906C23.2388 86.2978 21.5781 86.4707 19.9678 86.7581L22.0373 88.1952C22.9962 88.0837 23.9721 88.0206 24.9689 88.0164C33.4942 87.9804 41.0138 92.4546 49.1163 94.4196V92.642Z" fill="#FFD3CA"/>
<path d="M49.1163 103.86C46.1766 103.113 43.3388 102.047 40.4849 101.006L45.8104 104.704C46.8972 105.049 47.9976 105.366 49.1163 105.637V103.86Z" fill="#FFD3CA"/>
<path d="M0 49.9316C4.31022 49.0541 8.3601 47.2942 12.4804 45.8041L7.49488 45.8253C4.973 46.7662 2.50814 47.6279 0 48.1694V49.9316Z" fill="#FFD3CA"/>
<rect x="12.0001" y="14.441" width="75" height="51.4072" fill="#7B818E"/>
<rect x="20.0001" y="22.5049" width="59" height="35.2794" fill="#17191C"/>
<path d="M0 81.9758H99L87.1041 62.8241H11.8958L0 81.9758Z" fill="#2F3237"/>
<path d="M17.9998 71.8961H80.9997" stroke="#7B818E" stroke-width="3"/>
<path d="M41.6308 31.5766L33.0001 40.1444L41.6308 48.7123M57.3693 48.7123L66.0001 40.1444L57.3693 31.5766M52.8001 31.5766L46.2001 48.7123" stroke="#FFDB5C" stroke-width="2"/>
</svg>
