<svg width="98" height="98" viewBox="0 0 98 98" fill="none" xmlns="http://www.w3.org/2000/svg">
<path d="M97.0775 42.7748C99.4419 70.1416 81.4727 96.8691 53.1006 97.9571C26.3534 98.9828 3.17446 81.5145 0.61231 56.2339C-1.94984 30.9532 10.5534 5.20492 38.4526 0.725475C69.1891 -4.20952 94.8261 16.7146 97.0775 42.7748Z" fill="#7DDFFF"/>
<path d="M47.464 12.6764C49.2522 8.60355 51.0681 4.46765 53.0356 0.287652C48.3641 -0.196924 43.4764 -0.0811459 38.4526 0.725477C36.6046 1.02218 34.8242 1.41219 33.1113 1.8892C26.328 16.0422 18.2277 24.2904 1.99749 35.4189C0.356155 42.0781 -0.103173 49.1742 0.61231 56.2339C1.06322 60.683 2.15269 64.8902 3.78779 68.7972C29.4809 53.6355 38.0926 34.0212 47.464 12.6764Z" fill="#6BCDFF"/>
<path d="M96.133 36.7824C96.5842 38.7421 96.902 40.7428 97.0775 42.7748C99.4419 70.1416 81.4727 96.8691 53.1006 97.9571C42.1394 98.3774 31.7774 95.6918 23.188 90.6354C55.8111 56.4417 73.0252 41.0591 96.133 36.7824Z" fill="#6BCDFF"/>
<path d="M30.2279 20.7924C31.6694 19.9621 33.5286 19.8216 35.7663 20.4342C38.0088 21.0482 40.5507 22.401 43.2329 24.43C48.5933 28.4851 54.3515 35.1158 59.1905 43.376C64.0296 51.6363 66.9861 59.8816 67.883 66.5079C68.3317 69.8233 68.2576 72.6832 67.6845 74.9189C67.1127 77.1496 66.068 78.681 64.6266 79.5113C63.1851 80.3416 61.3256 80.4834 59.0879 79.8708C56.8454 79.2568 54.3042 77.9034 51.6221 75.8745C46.2616 71.8194 40.5031 65.1881 35.664 56.9277C30.825 48.6675 27.8689 40.4228 26.972 33.7966C26.5233 30.4813 26.5966 27.6218 27.1696 25.3861C27.7414 23.155 28.7864 21.6228 30.2279 20.7924Z" stroke="white" stroke-width="2"/>
<path d="M66.6808 18.7627C65.1465 17.903 63.1811 17.7819 60.8323 18.4595C58.4787 19.1384 55.8218 20.6 53.0273 22.7722C47.4423 27.1136 41.4709 34.1679 36.4826 42.9201C31.4943 51.6724 28.4795 60.3845 27.6097 67.3684C27.1746 70.8626 27.2828 73.8731 27.9102 76.2225C28.5365 78.5673 29.6549 80.1744 31.1891 81.0344C32.7235 81.8942 34.6894 82.0157 37.0384 81.3381C39.3918 80.6592 42.0487 79.1982 44.8429 77.0262C50.428 72.6848 56.3997 65.6298 61.3881 56.8775C66.3763 48.1253 69.3907 39.4138 70.2605 32.43C70.6957 28.9356 70.588 25.9246 69.9605 23.575C69.3342 21.23 68.2152 19.6226 66.6808 18.7627Z" stroke="black" stroke-width="2"/>
<path d="M82.6038 52.1804C82.703 50.5371 81.9967 48.8294 80.4377 47.1223C78.8759 45.4122 76.5138 43.7687 73.4789 42.3053C67.4133 39.3806 58.8476 37.263 49.2289 36.6924C39.6105 36.1219 30.852 37.2117 24.4781 39.3984C21.2888 40.4926 18.746 41.8451 16.9897 43.3584C15.2366 44.869 14.33 46.481 14.2309 48.1243C14.1319 49.7675 14.8382 51.4745 16.3971 53.1814C17.9589 54.8916 20.3209 56.535 23.3559 57.9984C29.4214 60.9231 37.9864 63.0406 47.6049 63.6112C57.2235 64.1819 65.9827 63.092 72.3567 60.9053C75.546 59.8111 78.0888 58.4586 79.8451 56.9453C81.598 55.4349 82.5046 53.8236 82.6038 52.1804Z" stroke="#006FFF" stroke-width="2"/>
<ellipse cx="48.7857" cy="50.8148" rx="6.40566" ry="6.35185" fill="white"/>
</svg>
