<svg width="96" height="101" viewBox="0 0 96 101" fill="none" xmlns="http://www.w3.org/2000/svg">
<path d="M36.8048 51.6445H95.2857L83.8647 101H25.3837L36.8048 51.6445Z" fill="#006FFF"/>
<path d="M42.2885 31.4761L31.2125 19.0386L25.1405 39.6858L16.9926 35.0176L19.6936 52.3535L66.2125 84.3358L85.7061 57.6839L75.0732 57.2397L86.4439 33.0726L67.5416 41.2485L69.7568 0.826424L42.2885 31.4761Z" fill="#FF8A8A"/>
<path d="M34.9775 9.91709L39.0988 17.7681V9.91709H34.9775Z" fill="#FF8A8A"/>
<path d="M77.132 17.7681L81.642 5.99051L84.8201 11.1567L77.132 17.7681Z" fill="#FF8A8A"/>
<path d="M48.5778 11.1567V0H54.7598L48.5778 11.1567Z" fill="#FF8A8A"/>
<path d="M21.7893 20.2474L19.6936 24.7927H22.6135L21.7893 20.2474Z" fill="#FF8A8A"/>
<path d="M88.9668 48.3458L92.2638 47.1062V50.4119L88.9668 48.3458Z" fill="#FF8A8A"/>
<mask id="mask0_14_93" style="mask-type:alpha" maskUnits="userSpaceOnUse" x="16" y="0" width="77" height="85">
<path d="M42.2885 31.4761L31.2125 19.0386L25.1405 39.6858L16.9926 35.0176L19.6936 52.3535L66.2125 84.3358L85.7061 57.6839L75.0732 57.2397L86.4439 33.0726L67.5416 41.2485L69.7568 0.826424L42.2885 31.4761Z" fill="#FF8A8A"/>
<path d="M34.9775 9.91709L39.0988 17.7681V9.91709H34.9775Z" fill="#FF8A8A"/>
<path d="M77.132 17.7681L81.642 5.99051L84.8201 11.1567L77.132 17.7681Z" fill="#FF8A8A"/>
<path d="M48.5778 11.1567V0H54.7598L48.5778 11.1567Z" fill="#FF8A8A"/>
<path d="M21.7893 20.2474L19.6936 24.7927H22.6135L21.7893 20.2474Z" fill="#FF8A8A"/>
<path d="M88.9668 48.3458L92.2638 47.1062V50.4119L88.9668 48.3458Z" fill="#FF8A8A"/>
</mask>
<g mask="url(#mask0_14_93)">
<path fill-rule="evenodd" clip-rule="evenodd" d="M53.5932 -0.767725C54.1499 -0.830908 54.9013 -0.426055 54.9418 0.294711C54.9743 0.869795 54.4461 1.60988 53.7858 1.6469C53.1902 1.68071 52.4055 1.20221 52.4372 0.294711C52.4364 0.322479 52.511 -0.0296547 52.5335 -0.0916302C52.6351 -0.369312 52.9602 -0.695689 53.5932 -0.767725Z" fill="#DF0A12" fill-opacity="0.5"/>
<path fill-rule="evenodd" clip-rule="evenodd" d="M47.6206 -0.477973C48.1026 -0.627278 48.8235 -0.375348 48.8729 0.294711C48.915 0.866978 48.4073 1.32737 48.0059 1.35715C47.0755 1.42596 46.4204 -0.106121 47.6206 -0.477973Z" fill="#DF0A12" fill-opacity="0.5"/>
<path fill-rule="evenodd" clip-rule="evenodd" d="M67.9467 1.6469C67.9555 1.64569 67.9624 1.5483 68.043 1.55031C68.9771 1.57366 69.8332 2.2912 69.8733 3.19226C69.9199 4.24262 68.8289 5.2463 67.754 4.93079C67.0568 4.72595 66.071 3.85468 66.5017 2.70934C66.6763 2.24492 67.1841 1.74872 67.9467 1.6469Z" fill="#DF0A12" fill-opacity="0.5"/>
<path fill-rule="evenodd" clip-rule="evenodd" d="M50.5105 2.22641C51.1592 2.06141 51.9555 2.43487 51.9555 3.28885C51.9555 3.93717 51.3948 4.41849 50.8959 4.44787C50.358 4.47966 49.6435 4.13236 49.6435 3.28885C49.6435 2.70209 49.8651 2.3906 50.5105 2.22641Z" fill="#DF0A12" fill-opacity="0.5"/>
<path fill-rule="evenodd" clip-rule="evenodd" d="M82.2039 4.35128C82.7333 4.24987 83.1576 4.33478 83.6489 4.64104C83.9042 4.8 84.1137 4.93281 84.3232 5.41372C84.8326 6.5828 84.0406 8.06297 82.686 8.1181C82.3319 8.13259 81.8916 8.02755 81.5296 7.82835C81.4886 7.80581 81.4678 7.65087 81.4336 7.63517C81.2149 7.53617 81.0234 7.34461 80.8556 6.95908C80.5486 6.25401 80.6915 5.72842 81.0483 5.12396C81.2482 4.78471 81.5256 4.48167 82.2039 4.35128Z" fill="#DF0A12" fill-opacity="0.5"/>
<path fill-rule="evenodd" clip-rule="evenodd" d="M70.644 4.44787C71.7438 4.21929 72.8596 5.00524 72.8596 6.1864C72.8596 7.18645 71.9706 8.02151 71.0293 8.02151C70.074 8.02151 69.15 7.30317 69.199 6.08982C69.2339 5.21934 69.6951 4.64506 70.644 4.44787Z" fill="#DF0A12" fill-opacity="0.5"/>
<path fill-rule="evenodd" clip-rule="evenodd" d="M64.6714 4.64104C65.5789 4.36496 65.9237 4.54445 66.4054 5.02738C66.7028 5.32558 67.1146 5.87049 66.887 6.76591C66.8064 7.08303 66.2179 7.72733 65.8274 7.82835C65.0086 8.04083 64.5193 7.7724 64.0934 7.34542C63.7952 7.04681 63.3765 6.5333 63.6117 5.60689C63.6703 5.37549 64.0757 4.82213 64.6714 4.64104Z" fill="#DF0A12" fill-opacity="0.5"/>
<path fill-rule="evenodd" clip-rule="evenodd" d="M47.6206 5.22055C48.3531 5.01812 48.921 5.36462 48.9692 6.08982C49.0688 7.59051 46.9374 7.60459 46.8499 6.28298C46.8242 5.89262 46.8848 5.42418 47.6206 5.22055Z" fill="#DF0A12" fill-opacity="0.5"/>
<path fill-rule="evenodd" clip-rule="evenodd" d="M81.2406 10.4361C82.7538 9.16122 84.8912 10.5029 84.6122 12.3678C84.5528 12.7654 84.3529 12.9421 84.1305 13.3337C84.6391 13.0826 84.8293 12.885 85.2865 12.8508C86.6059 12.7522 87.5407 13.8347 87.5026 14.9756C87.4568 16.3274 85.5856 17.6237 84.2273 16.4244C84.135 16.6836 84.5432 16.8949 84.6126 17.2937C84.847 18.6467 83.8179 20.0476 82.2043 19.8049C81.8077 19.7453 81.6311 19.5449 81.241 19.322C81.4621 19.79 81.6869 20.0033 81.7226 20.481C81.8202 21.7958 80.8304 22.6324 79.8923 22.7028C78.2691 22.824 76.9321 20.8327 78.1583 19.4189C77.8998 19.3264 77.6891 19.7357 77.2913 19.8053C75.9415 20.0403 74.5451 19.0085 74.7867 17.3907C74.8461 16.9931 75.046 16.816 75.2684 16.4248C74.7148 16.6627 74.5117 16.8916 74.016 16.9077C72.8211 16.9468 71.8967 15.9435 71.8967 14.8795C71.8967 13.9241 72.6381 12.8512 73.9197 12.8512C74.4463 12.8512 74.7462 13.0528 75.172 13.3341C75.2443 13.0882 74.8469 12.8162 74.7867 12.3682C74.5419 10.5432 76.6636 9.18214 78.1583 10.4365C77.9524 9.9335 77.6931 9.69525 77.6767 9.18094C77.6345 7.88308 78.6693 7.08665 79.6033 7.05607C81.1258 7.00616 82.3468 8.7954 81.3373 10.2434C81.3184 10.321 81.2402 10.3392 81.2406 10.4361ZM78.5433 13.0439C78.8555 13.0001 79.0213 12.7972 79.4103 12.7542C80.1183 12.6753 80.5626 13.0468 80.8552 12.9474C80.5454 12.6443 80.4715 12.0455 80.5662 11.4986C80.6417 11.0647 81.0784 10.8233 80.9516 10.6293C80.61 10.8784 80.217 11.1122 79.6992 11.1122C79.0313 11.1122 78.6797 10.6502 78.3506 10.7259C78.925 11.0877 78.9828 12.4809 78.5433 13.0439ZM75.9423 14.9756C75.9238 15.5399 75.4959 15.9016 75.557 16.2312C75.8841 15.6501 77.3379 15.5769 77.8689 16.0381C77.6963 15.6095 77.5049 15.0956 77.5799 14.4927C77.6197 14.1736 77.96 13.9373 77.7726 13.72C77.474 13.9933 76.9128 14.0955 76.4239 14.0098C75.9908 13.9337 75.671 13.5619 75.4606 13.6234C75.7324 13.98 75.9599 14.4344 75.9423 14.9756ZM81.5296 13.72C81.7022 14.1486 81.8936 14.6625 81.819 15.2654C81.7788 15.5849 81.4389 15.8208 81.6263 16.0381C81.8687 15.6694 82.5595 15.7503 83.1676 15.7483C83.3611 15.8807 83.8331 16.2337 83.9383 16.1347C83.6264 15.7914 83.3603 15.162 83.457 14.5893C83.5353 14.1249 83.9054 13.7929 83.8423 13.5269C83.5144 14.108 82.0606 14.1808 81.5296 13.72ZM79.9882 18.6459C80.4514 18.7243 80.7826 19.0954 81.0479 19.0322C80.4683 18.7042 80.3953 17.2462 80.8552 16.7138C80.4278 16.8868 79.9152 17.0788 79.3139 17.0039C78.9956 16.9637 78.76 16.6228 78.5433 16.8108C78.9109 17.0538 78.8302 17.7464 78.8323 18.3561C78.7002 18.5501 78.3482 19.0234 78.4469 19.1288C78.7889 18.8157 79.4171 18.5489 79.9882 18.6459Z" fill="#DF0A12" fill-opacity="0.5"/>
<path fill-rule="evenodd" clip-rule="evenodd" d="M84.1305 10.5327C83.6457 10.0816 83.4506 9.60067 83.5525 8.79419C83.7135 7.5257 84.8149 6.94218 85.9609 7.15225C86.5826 7.26614 87.2846 7.98691 87.4062 8.60103C87.7591 10.3887 85.5844 11.8853 84.1305 10.5327Z" fill="#DF0A12" fill-opacity="0.5"/>
<path fill-rule="evenodd" clip-rule="evenodd" d="M67.8504 7.34542C68.2698 7.277 68.9622 7.33978 69.3917 7.73176C70.4152 8.66582 69.883 10.9191 68.1394 10.9191C67.7649 10.9191 67.1508 10.684 66.887 10.4361C66.4054 9.9838 66.1489 8.93907 66.598 8.21468C66.8493 7.80943 67.1239 7.46414 67.8504 7.34542Z" fill="#DF0A12" fill-opacity="0.5"/>
<path fill-rule="evenodd" clip-rule="evenodd" d="M61.9741 7.53859C63.0394 7.28908 64.1175 7.99254 63.9971 9.27712C63.934 9.94758 63.2878 10.6358 62.6484 10.7259C61.8541 10.8378 60.5941 10.2526 60.7218 8.89079C60.7752 8.32134 61.1316 7.73579 61.9741 7.53859Z" fill="#DF0A12" fill-opacity="0.5"/>
<path fill-rule="evenodd" clip-rule="evenodd" d="M70.644 10.1464C71.1738 10.0446 71.5977 10.1299 72.089 10.4361C72.3443 10.5955 72.5538 10.7279 72.7633 11.2088C73.2723 12.3783 72.4803 13.8581 71.1257 13.9132C70.772 13.9277 70.3313 13.8227 69.9697 13.6234C69.9287 13.6009 69.9079 13.446 69.8733 13.4303C69.655 13.3317 69.4631 13.1397 69.2954 12.7542C68.9883 12.0487 69.1308 11.5231 69.488 10.9191C69.6883 10.5798 69.9657 10.2764 70.644 10.1464Z" fill="#DF0A12" fill-opacity="0.5"/>
<path fill-rule="evenodd" clip-rule="evenodd" d="M64.7677 10.3396C65.2209 10.2241 65.6403 10.1516 66.02 10.3396C66.063 10.3609 66.0811 10.5166 66.1164 10.5327C66.1633 10.5537 66.2685 10.5021 66.309 10.5327C66.6101 10.7597 66.9545 11.3686 66.9834 11.4986C67.0897 11.9763 66.9364 12.4672 66.7907 12.7542C66.4463 13.4331 65.4966 14.0456 64.4787 13.5269C63.9585 13.2617 63.273 12.6379 63.5154 11.4986C63.5672 11.2555 64.0099 10.5528 64.5751 10.3396C64.6309 10.3182 64.7095 10.3544 64.7677 10.3396Z" fill="#DF0A12" fill-opacity="0.5"/>
<path fill-rule="evenodd" clip-rule="evenodd" d="M58.9878 10.5327C59.4417 10.4027 59.6565 10.3645 59.9511 10.4361C60.2501 10.5086 60.91 11.0957 61.0108 11.5952C61.2167 12.6153 60.436 13.7245 59.1804 13.5269C58.5342 13.425 57.7636 12.8508 57.9281 11.6917C57.9851 11.2893 58.2898 10.7323 58.9878 10.5327Z" fill="#DF0A12" fill-opacity="0.5"/>
<path fill-rule="evenodd" clip-rule="evenodd" d="M36.3497 11.6917C36.7511 11.5851 36.7511 12.3779 36.3497 12.2713C36.3497 12.0781 36.3497 11.8849 36.3497 11.6917Z" fill="#DF0A12" fill-opacity="0.5"/>
<path fill-rule="evenodd" clip-rule="evenodd" d="M67.6577 13.1405C68.2951 12.9848 68.7924 13.0407 69.199 13.3337C69.2323 13.3578 69.2656 13.5132 69.2954 13.5269C69.4531 13.5981 69.5675 13.6585 69.6807 13.8166C69.9279 14.1615 70.0556 15.17 69.8733 15.6517C69.7393 16.0063 69.1404 16.5303 68.91 16.6176C67.3378 17.2156 65.5617 15.5374 66.598 13.9132C66.8353 13.5413 67.0444 13.2902 67.6577 13.1405Z" fill="#DF0A12" fill-opacity="0.5"/>
<path fill-rule="evenodd" clip-rule="evenodd" d="M61.8778 13.3337C62.3434 13.2109 62.5332 13.1711 62.8411 13.2371C62.8314 13.2351 63.0831 13.3108 63.1301 13.3337C63.173 13.355 63.1911 13.5108 63.2264 13.5269C63.7326 13.7554 64.1733 14.5346 63.9971 15.362C63.9112 15.7664 63.3372 16.4099 62.8411 16.521C62.4746 16.6027 61.8456 16.5528 61.5888 16.4244C61.5462 16.4031 61.5277 16.2473 61.4924 16.2316C61.2664 16.1294 61.146 15.991 60.9144 15.7487C60.7892 15.6179 60.5997 14.9696 60.7218 14.3965C60.7944 14.0545 61.1729 13.5196 61.8778 13.3337Z" fill="#DF0A12" fill-opacity="0.5"/>
<path fill-rule="evenodd" clip-rule="evenodd" d="M56.0978 13.5269C56.4699 13.417 56.8191 13.3711 57.0611 13.4303C57.2907 13.4866 57.9386 14.046 58.0245 14.3961C58.3652 15.7837 57.0788 16.5697 56.0978 16.3278C55.8662 16.2707 55.2087 15.6634 55.1345 15.3624C54.9318 14.5426 55.2384 13.7804 56.0978 13.5269Z" fill="#DF0A12" fill-opacity="0.5"/>
<path fill-rule="evenodd" clip-rule="evenodd" d="M39.047 14.3961C39.3047 14.2875 39.7486 14.3321 39.8176 14.7825C39.9252 15.4827 38.7423 15.7073 38.6616 14.9756C38.6376 14.7567 38.6336 14.5704 39.047 14.3961Z" fill="#DF0A12" fill-opacity="0.5"/>
<path fill-rule="evenodd" clip-rule="evenodd" d="M70.644 15.9415C71.1738 15.8401 71.5977 15.9254 72.089 16.2316C72.3443 16.3906 72.5538 16.5234 72.7633 17.0043C73.2723 18.1734 72.4803 19.6536 71.1257 19.7087C70.772 19.7228 70.3313 19.6182 69.9697 19.419C69.9287 19.3964 69.9079 19.2415 69.8733 19.2258C69.655 19.1272 69.4631 18.9352 69.2954 18.5497C68.9883 17.8442 69.1308 17.3186 69.488 16.7142C69.6883 16.3753 69.9657 16.0719 70.644 15.9415Z" fill="#DF0A12" fill-opacity="0.5"/>
<path fill-rule="evenodd" clip-rule="evenodd" d="M64.7677 16.1347C65.2209 16.0192 65.6403 15.9467 66.02 16.1347C66.063 16.156 66.0811 16.3117 66.1164 16.3274C66.1633 16.3488 66.2685 16.2972 66.309 16.3274C66.6101 16.5544 66.9545 17.1637 66.9834 17.2933C67.0897 17.771 66.9364 18.2619 66.7907 18.5489C66.4463 19.2282 65.4966 19.8407 64.4787 19.3216C63.9585 19.0564 63.273 18.4326 63.5154 17.2933C63.5672 17.0502 64.0099 16.3476 64.5751 16.1343C64.6309 16.1133 64.7095 16.1495 64.7677 16.1347Z" fill="#DF0A12" fill-opacity="0.5"/>
<path fill-rule="evenodd" clip-rule="evenodd" d="M58.9878 16.3278C59.4417 16.1982 59.6565 16.16 59.9511 16.2316C60.2501 16.3041 60.91 16.8912 61.0108 17.3907C61.2167 18.4104 60.436 19.52 59.1804 19.3224C58.5342 19.2206 57.7636 18.6459 57.9281 17.4873C57.9851 17.084 58.2898 16.5274 58.9878 16.3278Z" fill="#DF0A12" fill-opacity="0.5"/>
<path fill-rule="evenodd" clip-rule="evenodd" d="M53.3042 16.521C53.6024 16.4397 53.8392 16.3701 54.0748 16.4244C54.4156 16.5029 54.9884 17.1114 55.0382 17.5834C55.1208 18.3698 54.5332 19.06 53.8822 19.1288C53.2444 19.1964 52.2782 18.8668 52.3408 17.68C52.3673 17.1802 52.5977 16.7142 53.3042 16.521Z" fill="#DF0A12" fill-opacity="0.5"/>
<path fill-rule="evenodd" clip-rule="evenodd" d="M75.268 19.2254C75.7528 19.6765 75.9483 20.1574 75.846 20.9639C75.685 22.2324 74.584 22.8163 73.4376 22.6059C72.8163 22.492 72.1139 21.7712 71.9927 21.1567C71.6394 19.3695 73.8137 17.8724 75.268 19.2254Z" fill="#DF0A12" fill-opacity="0.5"/>
<path fill-rule="evenodd" clip-rule="evenodd" d="M84.0342 19.322C84.4842 18.8358 84.9638 18.6402 85.7682 18.7425C87.0334 18.9038 87.6158 20.0081 87.4058 21.1571C87.2922 21.7805 86.5734 22.4843 85.9605 22.6063C84.1779 22.96 82.6848 20.7796 84.0342 19.322Z" fill="#DF0A12" fill-opacity="0.5"/>
<path fill-rule="evenodd" clip-rule="evenodd" d="M67.8504 18.9356C68.2698 18.8672 68.9622 18.9296 69.3917 19.322C70.4152 20.256 69.883 22.5093 68.1394 22.5093C67.7649 22.5093 67.1508 22.2743 66.887 22.0263C66.4054 21.574 66.1489 20.5293 66.598 19.8049C66.8493 19.3992 67.1239 19.0543 67.8504 18.9356Z" fill="#DF0A12" fill-opacity="0.5"/>
<path fill-rule="evenodd" clip-rule="evenodd" d="M61.9741 19.1288C63.0394 18.8797 64.1175 19.5831 63.9971 20.8673C63.934 21.5378 63.2878 22.226 62.6484 22.3165C61.8541 22.428 60.5941 21.8432 60.7218 20.481C60.7752 19.9115 61.1316 19.326 61.9741 19.1288Z" fill="#DF0A12" fill-opacity="0.5"/>
<path fill-rule="evenodd" clip-rule="evenodd" d="M56.1941 19.322C56.506 19.2443 56.6943 19.1707 56.9648 19.2254C57.3863 19.3107 57.9474 19.8604 58.0245 20.3844C58.1569 21.2855 57.5464 22.0227 56.8685 22.1229C56.0304 22.2469 55.0229 21.6819 55.1345 20.481C55.1798 19.994 55.4335 19.5115 56.1941 19.322Z" fill="#DF0A12" fill-opacity="0.5"/>
<path fill-rule="evenodd" clip-rule="evenodd" d="M64.6714 22.0263C65.5789 21.7507 65.9237 21.9298 66.4054 22.4127C66.7028 22.7109 67.1146 23.2558 66.887 24.1512C66.8064 24.4683 66.2179 25.1126 65.8274 25.2137C65.0086 25.4261 64.5193 25.1577 64.0934 24.7311C63.7952 24.4321 63.3765 23.9186 63.6117 22.9926C63.6703 22.7608 64.0757 22.2074 64.6714 22.0263Z" fill="#DF0A12" fill-opacity="0.5"/>
<path fill-rule="evenodd" clip-rule="evenodd" d="M59.2768 22.1229C59.3133 22.1177 59.3627 22.0119 59.4694 22.0263C60.1261 22.1169 60.4661 22.3869 60.7218 22.799C60.7756 22.886 60.9983 23.2264 61.0108 23.4755C61.0698 24.6716 59.7143 25.4608 58.6988 24.8273C58.3797 24.6285 57.9281 24.2337 57.9281 23.5717C57.9281 23.3838 58.02 22.9459 58.1208 22.799C58.1445 22.7644 58.2994 22.7334 58.3135 22.7028C58.4523 22.3938 58.6723 22.2078 59.2768 22.1229Z" fill="#DF0A12" fill-opacity="0.5"/>
<path fill-rule="evenodd" clip-rule="evenodd" d="M53.5932 22.3161C53.952 22.2775 54.4204 22.3728 54.6528 22.6059C55.12 23.0739 55.0125 24.177 54.6528 24.5376C54.2253 24.9658 53.1741 24.9867 52.7262 24.5376C52.5612 24.3722 52.324 23.7894 52.3408 23.4751C52.3509 23.292 52.5488 22.8027 52.6298 22.7024C52.8261 22.4602 53.2175 22.3563 53.5932 22.3161Z" fill="#DF0A12" fill-opacity="0.5"/>
<path fill-rule="evenodd" clip-rule="evenodd" d="M67.9467 24.8273C67.9555 24.8261 67.9624 24.7287 68.043 24.7311C68.9771 24.7541 69.8332 25.4716 69.8733 26.3727C69.9199 27.423 68.8289 28.4271 67.754 28.1112C67.0568 27.9064 66.071 27.0351 66.5017 25.8897C66.6763 25.4253 67.1841 24.9291 67.9467 24.8273Z" fill="#DF0A12" fill-opacity="0.5"/>
<path fill-rule="evenodd" clip-rule="evenodd" d="M61.9741 25.0205C63.4797 24.6679 64.2335 26.0362 63.8044 27.1454C63.6009 27.6709 62.689 28.3084 61.6851 27.918C60.7097 27.5385 60.3384 25.4032 61.9741 25.0205Z" fill="#DF0A12" fill-opacity="0.5"/>
<path fill-rule="evenodd" clip-rule="evenodd" d="M56.0978 25.2137C56.4948 25.0861 56.9865 25.0297 57.2538 25.2137C57.2883 25.2378 57.3196 25.3931 57.3501 25.4068C57.4999 25.4744 57.8563 25.707 57.9281 25.9859C58.0493 26.4552 57.8964 26.9904 57.7355 27.2415C57.4665 27.6621 56.5289 28.0911 55.8088 27.6279C55.0606 27.1466 54.9527 25.5831 56.0978 25.2137Z" fill="#DF0A12" fill-opacity="0.5"/>
<path fill-rule="evenodd" clip-rule="evenodd" d="M50.5105 25.4068C51.1592 25.2418 51.9555 25.6157 51.9555 26.4693C51.9555 27.1176 51.3948 27.5993 50.8959 27.6283C50.358 27.6601 49.6435 27.3132 49.6435 26.4693C49.6435 25.8825 49.8651 25.571 50.5105 25.4068Z" fill="#DF0A12" fill-opacity="0.5"/>
<path fill-rule="evenodd" clip-rule="evenodd" d="M64.7677 27.918C65.1121 27.8214 65.7126 27.7804 66.1164 28.0142C66.1561 28.0376 66.179 28.1921 66.2127 28.2074C66.4937 28.3342 66.3147 28.1056 66.598 28.5937C66.7959 28.9346 66.8915 29.727 66.598 30.2357C66.5752 30.2755 66.4206 30.2985 66.4054 30.3323C66.3227 30.5158 66.297 30.5572 66.02 30.7186C65.2638 31.1597 63.4697 30.8329 63.7081 29.0767C63.7683 28.6336 64.0476 28.1193 64.7677 27.918Z" fill="#DF0A12" fill-opacity="0.5"/>
<path fill-rule="evenodd" clip-rule="evenodd" d="M59.2768 28.0146C61.2709 27.7068 61.3997 30.8156 59.4694 30.8156C58.8433 30.8156 58.0245 30.356 58.0245 29.3668C58.0245 28.6102 58.4836 28.137 59.2768 28.0146Z" fill="#DF0A12" fill-opacity="0.5"/>
<path fill-rule="evenodd" clip-rule="evenodd" d="M53.5932 28.2078C54.1499 28.1446 54.9013 28.5499 54.9418 29.2702C54.9743 29.8453 54.4461 30.5854 53.7858 30.6224C53.1902 30.6562 52.4055 30.1777 52.4372 29.2702C52.4364 29.298 52.511 28.9459 52.5335 28.8839C52.6351 28.6062 52.9602 28.2798 53.5932 28.2078Z" fill="#DF0A12" fill-opacity="0.5"/>
<path fill-rule="evenodd" clip-rule="evenodd" d="M47.6206 28.4975C48.1026 28.3482 48.8235 28.6002 48.8729 29.2702C48.915 29.8425 48.4073 30.3029 48.0059 30.3331C47.0755 30.4015 46.4204 28.8694 47.6206 28.4975Z" fill="#DF0A12" fill-opacity="0.5"/>
<path fill-rule="evenodd" clip-rule="evenodd" d="M85.0939 30.719C85.4094 30.649 85.8641 30.6204 86.2499 30.8152C86.595 30.9902 87.0643 31.4132 87.1168 32.0708C87.1883 32.9678 86.5232 34.0214 85.3829 33.9063C84.6387 33.8311 83.7408 33.3361 83.8415 32.0708C83.8889 31.4804 84.2245 30.911 85.0939 30.719Z" fill="#DF0A12" fill-opacity="0.5"/>
<path fill-rule="evenodd" clip-rule="evenodd" d="M67.6577 30.8156C68.1117 30.686 68.326 30.6478 68.621 30.7194C68.9201 30.7918 69.5799 31.379 69.6807 31.8784C69.8862 32.8982 69.1059 34.0077 67.8504 33.8101C67.2041 33.7083 66.4335 33.1336 66.598 31.975C66.655 31.5718 66.9597 31.0152 67.6577 30.8156Z" fill="#DF0A12" fill-opacity="0.5"/>
<path fill-rule="evenodd" clip-rule="evenodd" d="M62.0704 30.9122C64.1432 30.4816 64.315 33.6162 62.4558 33.7131C60.7952 33.8001 60.2951 31.2812 62.0704 30.9122Z" fill="#DF0A12" fill-opacity="0.5"/>
<path fill-rule="evenodd" clip-rule="evenodd" d="M56.2905 31.1053C58.1557 30.6852 58.2982 33.4351 56.6758 33.52C55.9738 33.5566 55.3272 33.128 55.3272 32.2644C55.3272 31.604 55.5925 31.2627 56.2905 31.1053Z" fill="#DF0A12" fill-opacity="0.5"/>
<path fill-rule="evenodd" clip-rule="evenodd" d="M50.7032 31.2985C50.873 31.2752 51.1279 31.2257 51.2812 31.2985C51.3807 31.3456 51.7376 31.7263 51.7629 31.7814C51.8781 32.037 51.8431 32.5694 51.7629 32.7473C51.7368 32.8056 51.2611 33.2391 51.2812 33.2298C50.3636 33.6459 49.491 32.5259 49.8362 31.781C49.8386 31.7758 50.2492 31.3279 50.3179 31.2981C50.4178 31.2551 50.594 31.3134 50.7032 31.2985Z" fill="#DF0A12" fill-opacity="0.5"/>
<path fill-rule="evenodd" clip-rule="evenodd" d="M45.5976 31.7814C46.0833 32.6282 45.0762 33.3107 44.4416 32.7473C43.9559 31.9006 44.963 31.2184 45.5976 31.7814Z" fill="#DF0A12" fill-opacity="0.5"/>
<path fill-rule="evenodd" clip-rule="evenodd" d="M39.047 32.0712C39.1754 32.0712 39.3039 32.0712 39.4323 32.0712C39.4323 32.2 39.4323 32.3292 39.4323 32.4575C39.1008 32.5324 38.9723 32.404 39.047 32.0712Z" fill="#DF0A12" fill-opacity="0.5"/>
<path fill-rule="evenodd" clip-rule="evenodd" d="M70.7403 33.7131C71.4155 33.5908 71.918 33.8045 72.1853 34.0995C72.28 34.2041 72.5574 34.7655 72.5707 35.0653C72.6646 37.1524 69.488 37.2622 69.488 35.1619C69.488 34.9663 69.5402 34.7003 69.5844 34.5824C69.7457 34.1514 70.1069 33.8278 70.7403 33.7131Z" fill="#DF0A12" fill-opacity="0.5"/>
<path fill-rule="evenodd" clip-rule="evenodd" d="M82.1076 33.7131C82.452 33.617 83.0524 33.5759 83.4562 33.8097C83.4959 33.8327 83.5188 33.9876 83.5521 34.0025C83.8331 34.1297 83.6545 33.9011 83.9375 34.3892C84.1354 34.7301 84.2309 35.5221 83.9375 36.0308C83.9146 36.0706 83.7605 36.094 83.7452 36.1274C83.6625 36.3113 83.6364 36.3523 83.3599 36.5137C82.6037 36.9552 80.8095 36.6284 81.0479 34.8718C81.1081 34.4283 81.3875 33.9148 82.1076 33.7131Z" fill="#DF0A12" fill-opacity="0.5"/>
<path fill-rule="evenodd" clip-rule="evenodd" d="M65.0567 33.8097C67.0508 33.5019 67.1796 36.6107 65.2494 36.6107C64.6232 36.6107 63.8044 36.1511 63.8044 35.1619C63.8044 34.4057 64.2632 33.9325 65.0567 33.8097Z" fill="#DF0A12" fill-opacity="0.5"/>
<path fill-rule="evenodd" clip-rule="evenodd" d="M59.0841 34.0029C59.8078 33.7924 60.5969 34.122 60.7218 34.8722C60.8426 35.601 60.3653 36.3161 59.7584 36.4175C59.1239 36.5238 58.1545 36.2549 58.2171 35.0657C58.2416 34.6045 58.4074 34.2001 59.0841 34.0029Z" fill="#DF0A12" fill-opacity="0.5"/>
<path fill-rule="evenodd" clip-rule="evenodd" d="M53.4005 34.1961C53.7413 34.1035 54.0548 34.087 54.2675 34.1961C54.467 34.2987 54.7134 34.7039 54.7492 34.9687C54.9511 36.471 52.7282 36.7294 52.6298 35.2585C52.5837 34.5691 52.7972 34.3599 53.4005 34.1961Z" fill="#DF0A12" fill-opacity="0.5"/>
<path fill-rule="evenodd" clip-rule="evenodd" d="M47.6206 34.4858C49.019 33.8991 48.9371 36.3105 47.6206 35.935C47.0205 35.7636 46.992 34.7498 47.6206 34.4858Z" fill="#DF0A12" fill-opacity="0.5"/>
<path fill-rule="evenodd" clip-rule="evenodd" d="M41.7443 35.2585C41.721 34.6633 42.5386 34.6633 42.5149 35.2585C42.3423 35.5949 41.9169 35.5949 41.7443 35.2585Z" fill="#DF0A12" fill-opacity="0.5"/>
<path fill-rule="evenodd" clip-rule="evenodd" d="M73.534 36.7073C73.8459 36.6296 74.0341 36.556 74.3046 36.6107C74.7261 36.696 75.2872 37.2457 75.3643 37.7697C75.4967 38.6704 74.8862 39.408 74.2083 39.5082C73.3706 39.6322 72.3627 39.0668 72.4743 37.8663C72.5197 37.3793 72.7733 36.8968 73.534 36.7073Z" fill="#DF0A12" fill-opacity="0.5"/>
<path fill-rule="evenodd" clip-rule="evenodd" d="M79.2176 36.7073C79.5897 36.5978 79.9393 36.5515 80.1809 36.6107C80.4105 36.667 81.0583 37.2264 81.1438 37.5765C81.4846 38.9641 80.1986 39.7501 79.2172 39.5082C78.9856 39.4507 78.3285 38.8434 78.2539 38.5424C78.0516 37.7234 78.3582 36.9604 79.2176 36.7073Z" fill="#DF0A12" fill-opacity="0.5"/>
<path fill-rule="evenodd" clip-rule="evenodd" d="M85.0939 36.7073C85.4053 36.6296 85.594 36.556 85.8645 36.6107C86.286 36.696 86.8467 37.2457 86.9242 37.7697C87.0566 38.6704 86.4465 39.408 85.7682 39.5082C84.9301 39.6322 83.9222 39.0668 84.0342 37.8663C84.0796 37.3793 84.3332 36.8968 85.0939 36.7073Z" fill="#DF0A12" fill-opacity="0.5"/>
<path fill-rule="evenodd" clip-rule="evenodd" d="M67.6577 36.8039C68.0547 36.6759 68.5464 36.6195 68.8137 36.8039C68.8486 36.8276 68.8795 36.9829 68.91 36.9966C69.0597 37.0642 69.4158 37.2973 69.488 37.5761C69.6092 38.045 69.4559 38.5806 69.2954 38.8313C69.0264 39.2519 68.0888 39.6809 67.3687 39.2181C66.6205 38.7372 66.5125 37.1729 67.6577 36.8039Z" fill="#DF0A12" fill-opacity="0.5"/>
<path fill-rule="evenodd" clip-rule="evenodd" d="M62.0704 36.9005C63.9357 36.4807 64.0781 39.2302 62.4558 39.3151C61.7537 39.3521 61.1071 38.9235 61.1071 38.0595C61.1071 37.3987 61.3724 37.0574 62.0704 36.9005Z" fill="#DF0A12" fill-opacity="0.5"/>
<path fill-rule="evenodd" clip-rule="evenodd" d="M56.1941 37.0936C56.8412 36.8707 57.5195 37.156 57.6391 37.7697C57.772 38.451 57.3244 39.033 56.8685 39.1219C55.6503 39.3606 54.8969 37.5407 56.1941 37.0936Z" fill="#DF0A12" fill-opacity="0.5"/>
<path fill-rule="evenodd" clip-rule="evenodd" d="M50.7032 37.2868C50.9986 37.2337 51.3655 37.35 51.4739 37.48C51.6802 37.7271 51.6384 38.5162 51.3775 38.7356C51.1291 38.944 50.4102 38.9798 50.1252 38.639C49.9566 38.437 49.9081 37.7263 50.1252 37.48C50.2424 37.3468 50.4864 37.3258 50.7032 37.2868Z" fill="#DF0A12" fill-opacity="0.5"/>
<path fill-rule="evenodd" clip-rule="evenodd" d="M45.5012 38.156C45.3086 38.606 44.731 38.606 44.5379 38.156C44.5371 37.447 45.5021 37.447 45.5012 38.156Z" fill="#DF0A12" fill-opacity="0.5"/>
<path fill-rule="evenodd" clip-rule="evenodd" d="M70.8367 39.7014C71.3376 39.6217 71.7735 39.7722 71.9927 39.9916C72.6834 40.6834 72.2134 42.2545 71.1257 42.3096C70.3699 42.3478 69.3857 41.4826 69.777 40.4741C69.9352 40.0664 70.2386 39.7968 70.8367 39.7014Z" fill="#DF0A12" fill-opacity="0.5"/>
<path fill-rule="evenodd" clip-rule="evenodd" d="M76.4239 39.7014C77.2404 39.4837 77.6983 39.7433 78.0616 40.3779C78.4658 41.0842 77.8127 42.1949 77.0983 42.3096C76.3987 42.4219 75.3346 41.9518 75.4606 40.7643C75.5068 40.3292 75.7328 39.8861 76.4239 39.7014Z" fill="#DF0A12" fill-opacity="0.5"/>
<path fill-rule="evenodd" clip-rule="evenodd" d="M82.2039 39.7014C83.0199 39.4837 83.4783 39.7433 83.8415 40.3779C84.2457 41.0842 83.5927 42.1949 82.8782 42.3096C82.1786 42.4219 81.1141 41.9518 81.2406 40.7643C81.2867 40.3292 81.5127 39.8861 82.2039 39.7014Z" fill="#DF0A12" fill-opacity="0.5"/>
<path fill-rule="evenodd" clip-rule="evenodd" d="M65.1531 39.798C65.7098 39.7348 66.4612 40.1401 66.5017 40.8604C66.5342 41.4359 66.006 42.1756 65.3457 42.2126C64.7497 42.2464 63.9654 41.7683 63.9971 40.8604C63.9963 40.8882 64.0709 40.5361 64.0934 40.4741C64.195 40.1964 64.5201 39.87 65.1531 39.798Z" fill="#DF0A12" fill-opacity="0.5"/>
<path fill-rule="evenodd" clip-rule="evenodd" d="M59.1804 39.9912C59.5212 39.8986 59.8347 39.8821 60.0474 39.9912C60.2469 40.0934 60.4934 40.4986 60.5291 40.7639C60.731 42.2662 58.5077 42.5241 58.4098 41.0536C58.3636 40.3638 58.5772 40.1554 59.1804 39.9912Z" fill="#DF0A12" fill-opacity="0.5"/>
<path fill-rule="evenodd" clip-rule="evenodd" d="M53.4968 40.1843C53.828 40.0962 54.1816 40.1666 54.3638 40.3775C54.3819 40.398 54.5493 40.7735 54.5565 40.86C54.5994 41.3852 54.1471 41.7965 53.7858 41.8259C52.9614 41.8939 52.2429 40.5184 53.4968 40.1843Z" fill="#DF0A12" fill-opacity="0.5"/>
<path fill-rule="evenodd" clip-rule="evenodd" d="M48.3912 40.6673C48.4924 41.2838 48.2355 41.5414 47.6206 41.4399C46.982 40.9313 47.8839 40.0266 48.3912 40.6673Z" fill="#DF0A12" fill-opacity="0.5"/>
<path fill-rule="evenodd" clip-rule="evenodd" d="M73.7266 42.6955C73.7672 42.6879 73.8117 42.5921 73.9193 42.599C74.6165 42.6424 75.1391 43.1897 75.1716 43.758C75.2106 44.4389 74.5583 45.0788 74.0156 45.1102C73.4292 45.144 72.667 44.622 72.667 43.8546C72.667 43.2123 73.1033 42.8082 73.7266 42.6955Z" fill="#DF0A12" fill-opacity="0.5"/>
<path fill-rule="evenodd" clip-rule="evenodd" d="M79.4103 42.6955C81.2759 42.2754 81.418 45.0253 79.7956 45.1102C79.0936 45.1468 78.4469 44.7182 78.4469 43.8546C78.4469 43.1938 78.7122 42.8529 79.4103 42.6955Z" fill="#DF0A12" fill-opacity="0.5"/>
<path fill-rule="evenodd" clip-rule="evenodd" d="M67.8504 42.7921C68.4986 42.6271 69.2954 43.0006 69.2954 43.8546C69.2954 44.5029 68.7346 44.9842 68.2357 45.0136C67.6978 45.0454 66.9834 44.6985 66.9834 43.8546C66.9834 43.2678 67.2053 42.9567 67.8504 42.7921Z" fill="#DF0A12" fill-opacity="0.5"/>
<path fill-rule="evenodd" clip-rule="evenodd" d="M62.2631 42.8887C62.4329 42.8654 62.6878 42.8159 62.8411 42.8887C62.9406 42.9362 63.2979 43.3165 63.3227 43.3716C63.4379 43.6272 63.403 44.1596 63.3227 44.3375C63.2962 44.3963 62.821 44.8297 62.8411 44.8204C61.9235 45.2361 61.0509 44.1162 61.3961 43.3712C61.3985 43.366 61.8095 42.9181 61.8778 42.8883C61.9777 42.8453 62.1543 42.9036 62.2631 42.8887Z" fill="#DF0A12" fill-opacity="0.5"/>
<path fill-rule="evenodd" clip-rule="evenodd" d="M56.4831 43.0819C56.7782 43.0284 57.145 43.1451 57.2538 43.2747C57.4601 43.5222 57.4188 44.3113 57.1575 44.5303C56.9094 44.7387 56.1901 44.7749 55.9051 44.4341C55.7366 44.2317 55.6876 43.5214 55.9051 43.2747C56.0224 43.1419 56.2664 43.1213 56.4831 43.0819Z" fill="#DF0A12" fill-opacity="0.5"/>
<path fill-rule="evenodd" clip-rule="evenodd" d="M51.2812 43.5648C51.3819 44.181 51.1255 44.4389 50.5105 44.3375C49.8715 43.8292 50.7742 42.9241 51.2812 43.5648Z" fill="#DF0A12" fill-opacity="0.5"/>
<path fill-rule="evenodd" clip-rule="evenodd" d="M76.7129 45.6897C78.3494 45.4905 78.2394 48.0105 76.7129 47.9115C75.5638 47.8367 75.1921 45.8752 76.7129 45.6897Z" fill="#DF0A12" fill-opacity="0.5"/>
<path fill-rule="evenodd" clip-rule="evenodd" d="M70.7403 45.7863C71.0811 45.6941 71.3942 45.6772 71.6073 45.7863C71.8072 45.8889 72.0533 46.2942 72.089 46.559C72.2909 48.0613 70.0676 48.3196 69.9697 46.8491C69.9239 46.1593 70.1371 45.9501 70.7403 45.7863Z" fill="#DF0A12" fill-opacity="0.5"/>
<path fill-rule="evenodd" clip-rule="evenodd" d="M64.9604 45.8829C65.4425 45.7336 66.1633 45.9855 66.2127 46.6555C66.2549 47.2278 65.7471 47.6882 65.3457 47.718C64.4153 47.7868 63.7603 46.2547 64.9604 45.8829Z" fill="#DF0A12" fill-opacity="0.5"/>
<path fill-rule="evenodd" clip-rule="evenodd" d="M59.1804 46.076C60.5789 45.4893 60.497 47.9007 59.1804 47.5252C58.5804 47.3534 58.5515 46.34 59.1804 46.076Z" fill="#DF0A12" fill-opacity="0.5"/>
<path fill-rule="evenodd" clip-rule="evenodd" d="M54.1712 46.4624C54.2723 47.0785 54.0154 47.3361 53.4005 47.235C52.7619 46.7268 53.6638 45.8221 54.1712 46.4624Z" fill="#DF0A12" fill-opacity="0.5"/>
<path fill-rule="evenodd" clip-rule="evenodd" d="M73.7266 48.7804C74.2043 48.6701 74.826 48.8613 74.8826 49.5531C74.9898 50.8614 72.956 50.9367 72.956 49.6497C72.956 49.3434 73.0399 48.9394 73.7266 48.7804Z" fill="#DF0A12" fill-opacity="0.5"/>
<path fill-rule="evenodd" clip-rule="evenodd" d="M67.8504 48.877C69.1183 48.4206 69.3865 50.4232 68.2357 50.5185C67.4361 50.5857 66.7437 49.275 67.8504 48.877Z" fill="#DF0A12" fill-opacity="0.5"/>
<path fill-rule="evenodd" clip-rule="evenodd" d="M90.9701 48.877C92.2381 48.4206 92.5062 50.4232 91.3555 50.5185C90.5559 50.5857 89.8635 49.275 90.9701 48.877Z" fill="#DF0A12" fill-opacity="0.5"/>
<path fill-rule="evenodd" clip-rule="evenodd" d="M62.9374 49.1668C63.4231 50.0135 62.416 50.696 61.7814 50.1322C61.2957 49.2859 62.3028 48.6037 62.9374 49.1668Z" fill="#DF0A12" fill-opacity="0.5"/>
<path fill-rule="evenodd" clip-rule="evenodd" d="M57.0611 49.7463C56.8685 50.1962 56.2905 50.1962 56.0978 49.7463C56.097 49.0372 57.0619 49.0372 57.0611 49.7463Z" fill="#DF0A12" fill-opacity="0.5"/>
<path fill-rule="evenodd" clip-rule="evenodd" d="M76.5203 51.8711C77.9187 51.284 77.8368 53.6958 76.5203 53.3199C75.9202 53.1485 75.8917 52.1351 76.5203 51.8711Z" fill="#DF0A12" fill-opacity="0.5"/>
<path fill-rule="evenodd" clip-rule="evenodd" d="M70.644 51.9677C70.9527 51.6957 71.566 51.9404 71.7037 52.1605C72.0633 53.2535 70.7941 53.5103 70.355 52.9332C70.3502 52.5102 70.2876 52.0293 70.644 51.9677Z" fill="#DF0A12" fill-opacity="0.5"/>
<path fill-rule="evenodd" clip-rule="evenodd" d="M65.0567 52.0643C65.3144 51.9552 65.7583 52.0003 65.8274 52.4506C65.935 53.1509 64.7521 53.375 64.6714 52.6434C64.6473 52.4249 64.6433 52.2386 65.0567 52.0643Z" fill="#DF0A12" fill-opacity="0.5"/>
<path fill-rule="evenodd" clip-rule="evenodd" d="M59.0841 52.6438C59.0604 52.0486 59.8781 52.0486 59.8548 52.6438C59.6822 52.9803 59.2567 52.9803 59.0841 52.6438Z" fill="#DF0A12" fill-opacity="0.5"/>
<path fill-rule="evenodd" clip-rule="evenodd" d="M74.401 55.155C74.5021 55.7716 74.2452 56.0291 73.6303 55.9277C72.9917 55.419 73.894 54.5143 74.401 55.155Z" fill="#DF0A12" fill-opacity="0.5"/>
<path fill-rule="evenodd" clip-rule="evenodd" d="M68.5247 55.3482C68.5544 55.7321 68.3397 55.8714 67.9467 55.8311C67.9042 55.745 67.862 55.6585 67.754 55.6384C67.5734 55.0045 68.4215 54.8806 68.5247 55.3482Z" fill="#DF0A12" fill-opacity="0.5"/>
<path fill-rule="evenodd" clip-rule="evenodd" d="M62.6484 55.5414C62.457 55.5426 62.526 55.805 62.2631 55.7341C62.2205 55.6484 62.1784 55.5615 62.0704 55.5414C62.0524 55.0681 62.6665 55.0681 62.6484 55.5414Z" fill="#DF0A12" fill-opacity="0.5"/>
<path fill-rule="evenodd" clip-rule="evenodd" d="M77.0983 58.3423C76.8996 58.2836 76.4292 58.4985 76.5203 58.1492C76.6672 58.0003 77.181 57.9773 77.0983 58.3423Z" fill="#DF0A12" fill-opacity="0.5"/>
<path fill-rule="evenodd" clip-rule="evenodd" d="M82.8782 58.3423C82.6795 58.2836 82.2091 58.4985 82.3006 58.1492C82.4471 58.0003 82.9609 57.9773 82.8782 58.3423Z" fill="#DF0A12" fill-opacity="0.5"/>
</g>
<path d="M37.4873 41.4614L33.6469 56.4355L59.2498 76.9715L72.0513 51.3015L59.2498 57.719L57.1162 33.3325L40.9011 48.3067L37.4873 41.4614Z" fill="#FEE798"/>
<path d="M0.285706 45.1292H43.0726L44.8447 56.436H74.9713L83.832 101L9.14645 101L0.285706 45.1292Z" fill="white"/>
<path d="M6.09321 75.7148L5.25233 70.572L10.9383 73.9441L8.90865 77.3845L6.09321 75.7148Z" fill="#E4ECFF"/>
<path d="M8.97105 93.3157L7.70334 85.5624L14.5458 93.77L11.4869 96.3335L8.97105 93.3157Z" fill="#E4ECFF"/>
<path d="M4.22632 47.9864L6.2709 46.3633H8.02965L14.1577 54.123L11.0321 56.6043L4.22632 47.9864Z" fill="#E4ECFF"/>
<path d="M24.7677 50.7016L27.4582 46.3633H32.1529L28.1533 52.8123L24.7677 50.7016Z" fill="#E4ECFF"/>
<path d="M28.8152 62.2494L31.0879 65.5335L22.0803 71.7999L19.8076 68.5158L28.8152 62.2494Z" fill="#E4ECFF"/>
<path d="M32.8785 82.1003L29.4273 80.0993L23.9388 89.615L27.39 91.616L32.8785 82.1003Z" fill="#E4ECFF"/>
<path d="M72.8127 82.2002L69.4165 80.1068L63.6746 89.471L67.0709 91.5644L72.8127 82.2002Z" fill="#E4ECFF"/>
<path d="M43.3265 86.8698L46.4105 84.3367L53.3583 92.8399L50.2743 95.373L43.3265 86.8698Z" fill="#E4ECFF"/>
<path d="M50.7388 74.0523L48.7983 77.5441L39.2211 72.1938L41.1615 68.7021L50.7388 74.0523Z" fill="#E4ECFF"/>
<path d="M68.444 62.3521L70.6289 65.6955L61.4584 71.7198L59.2735 68.3763L68.444 62.3521Z" fill="#E4ECFF"/>
<path d="M42.2173 46.1292L43.857 56.5911L43.9888 57.4358H74.1509L82.6138 100H10.0005L1.4566 46.1292H42.2173Z" stroke="#006FFF" stroke-width="2"/>
</svg>
