<svg width="112" height="112" viewBox="0 0 112 112" fill="none" xmlns="http://www.w3.org/2000/svg">
<g clip-path="url(#clip0_9_51)">
<path d="M26.7706 74.1118C-0.0928497 46.9085 27.3762 0.929855 64.3432 5.06039C97.3614 9.60253 104.27 39.0549 94.0255 57.1145C81.7817 78.6989 47.867 95.475 26.7706 74.1118Z" stroke="#19E59B" stroke-opacity="0.1" stroke-width="4" stroke-linecap="round" stroke-linejoin="round"/>
<path d="M72.058 72.3061C72.058 69.5711 73.51 67.0852 75.5721 65.2887C81.7166 59.9355 85.6 52.0531 85.6 43.2638C85.6 27.1371 72.5267 14.0638 56.4 14.0638C40.2733 14.0638 27.2 27.1371 27.2 43.2638C27.2 52.0531 31.0834 59.9355 37.2279 65.2887C39.29 67.0852 40.742 69.5711 40.742 72.3061V73.9131C40.742 78.3313 44.3238 81.9131 48.742 81.9131H64.058C68.4762 81.9131 72.058 78.3313 72.058 73.9131V72.3061Z" fill="#FFE855"/>
<mask id="mask0_9_51" style="mask-type:alpha" maskUnits="userSpaceOnUse" x="27" y="14" width="59" height="68">
<path d="M72.058 72.3061C72.058 69.5711 73.51 67.0852 75.5721 65.2887C81.7166 59.9355 85.6 52.0531 85.6 43.2638C85.6 27.1371 72.5267 14.0638 56.4 14.0638C40.2733 14.0638 27.2 27.1371 27.2 43.2638C27.2 52.0531 31.0834 59.9355 37.2279 65.2887C39.29 67.0852 40.742 69.5711 40.742 72.3061V73.9131C40.742 78.3313 44.3238 81.9131 48.742 81.9131H64.058C68.4762 81.9131 72.058 78.3313 72.058 73.9131V72.3061Z" fill="#1AE69B"/>
</mask>
<g mask="url(#mask0_9_51)">
<path fill-rule="evenodd" clip-rule="evenodd" d="M78.2728 55.7496C78.567 55.6259 79.0739 55.6767 79.1527 56.1895C79.2751 56.9869 77.9245 57.2422 77.8329 56.4095C77.8054 56.1602 77.8008 55.948 78.2728 55.7496Z" fill="#00A3FF"/>
<path fill-rule="evenodd" clip-rule="evenodd" d="M72.4437 55.9696C72.5592 56.6716 72.2659 56.9649 71.5638 56.8494C70.8347 56.2702 71.8649 55.2405 72.4437 55.9696Z" fill="#00A3FF"/>
<path fill-rule="evenodd" clip-rule="evenodd" d="M85.6418 55.9696C85.7572 56.6716 85.4639 56.9649 84.7619 56.8494C84.0328 56.2702 85.063 55.2405 85.6418 55.9696Z" fill="#00A3FF"/>
<path fill-rule="evenodd" clip-rule="evenodd" d="M65.7347 56.1895C65.7686 56.6267 65.5234 56.7848 65.0747 56.7394C65.0262 56.6414 64.9781 56.5428 64.8548 56.5195C64.6486 55.7982 65.6169 55.657 65.7347 56.1895Z" fill="#00A3FF"/>
<path fill-rule="evenodd" clip-rule="evenodd" d="M92.1308 56.1895C92.1647 56.6267 91.9195 56.7848 91.4714 56.7394C91.4228 56.6414 91.3747 56.5428 91.2514 56.5195C91.0447 55.7982 92.013 55.657 92.1308 56.1895Z" fill="#00A3FF"/>
<path fill-rule="evenodd" clip-rule="evenodd" d="M74.8633 58.8291C76.4599 58.1605 76.3664 60.9069 74.8633 60.4789C74.1782 60.2837 74.1457 59.1298 74.8633 58.8291Z" fill="#00A3FF"/>
<path fill-rule="evenodd" clip-rule="evenodd" d="M81.4624 58.8291C83.0585 58.1605 82.965 60.9069 81.4624 60.4789C80.7768 60.2837 80.7447 59.1298 81.4624 58.8291Z" fill="#00A3FF"/>
<path fill-rule="evenodd" clip-rule="evenodd" d="M68.1543 58.9391C68.5067 58.6298 69.2069 58.908 69.3641 59.1591C69.7747 60.4033 68.3257 60.6957 67.8243 60.039C67.8188 59.5569 67.7474 59.0088 68.1543 58.9391Z" fill="#00A3FF"/>
<path fill-rule="evenodd" clip-rule="evenodd" d="M87.9514 58.9391C88.3043 58.6298 89.0045 58.908 89.1617 59.1591C89.5723 60.4033 88.1233 60.6957 87.6219 60.039C87.6155 59.5569 87.5445 59.0088 87.9514 58.9391Z" fill="#00A3FF"/>
<path fill-rule="evenodd" clip-rule="evenodd" d="M61.7752 59.0491C62.0694 58.9254 62.5763 58.9762 62.6551 59.4891C62.7779 60.2864 61.4274 60.5417 61.3353 59.709C61.3078 59.4597 61.3032 59.2475 61.7752 59.0491Z" fill="#00A3FF"/>
<path fill-rule="evenodd" clip-rule="evenodd" d="M54.9562 59.709C54.9292 59.0312 55.8627 59.0312 55.8361 59.709C55.639 60.0917 55.1533 60.0917 54.9562 59.709Z" fill="#00A3FF"/>
<path fill-rule="evenodd" clip-rule="evenodd" d="M71.6738 61.9087C72.2191 61.7831 72.929 62.0013 72.9936 62.7886C73.116 64.2784 70.7939 64.3641 70.7939 62.8986C70.7939 62.5498 70.8897 62.0893 71.6738 61.9087Z" fill="#00A3FF"/>
<path fill-rule="evenodd" clip-rule="evenodd" d="M78.1628 61.9087C79.8502 61.384 80.0078 63.8939 78.6028 63.9984C78.095 64.0364 77.4484 63.7564 77.393 63.0085C77.3448 62.3633 77.5258 62.1067 78.1628 61.9087Z" fill="#00A3FF"/>
<path fill-rule="evenodd" clip-rule="evenodd" d="M84.8719 61.9087C85.4172 61.7831 86.1271 62.0013 86.1917 62.7886C86.314 64.2784 83.992 64.3641 83.992 62.8986C83.992 62.5498 84.0878 62.0893 84.8719 61.9087Z" fill="#00A3FF"/>
<path fill-rule="evenodd" clip-rule="evenodd" d="M65.0747 62.0187C65.7686 61.8335 66.2475 62.1974 66.2846 62.7886C66.3602 63.9865 64.4135 64.3233 64.3049 63.0085C64.2746 62.6383 64.2792 62.2313 65.0747 62.0187Z" fill="#00A3FF"/>
<path fill-rule="evenodd" clip-rule="evenodd" d="M59.3556 62.3486C59.9101 63.3128 58.7603 64.0901 58.0358 63.4485C57.4813 62.4843 58.6311 61.7071 59.3556 62.3486Z" fill="#00A3FF"/>
<path fill-rule="evenodd" clip-rule="evenodd" d="M52.5366 62.5686C52.5366 62.7886 52.5366 63.0085 52.5366 63.2285C52.395 63.3802 52.0591 63.3376 51.7667 63.3385C51.3089 62.7932 51.9912 62.1108 52.5366 62.5686Z" fill="#00A3FF"/>
<path fill-rule="evenodd" clip-rule="evenodd" d="M68.2643 65.0982C69.1006 64.8677 69.7491 65.2628 69.8041 66.0881C69.9177 67.797 67.4843 67.813 67.3844 66.3081C67.3551 65.8636 67.4243 65.3301 68.2643 65.0982Z" fill="#00A3FF"/>
<path fill-rule="evenodd" clip-rule="evenodd" d="M74.6434 65.0982C74.9646 64.964 75.4806 64.9003 75.7432 64.9883C75.7801 65.0006 76.3837 65.5913 76.4031 65.6482C76.613 66.2897 76.3476 66.8035 76.0731 67.078C75.8688 67.2823 75.3422 67.6361 74.6434 67.4079C74.5255 67.3696 74.0281 66.8883 73.9835 66.748C73.7667 66.0821 73.8955 65.4117 74.6434 65.0982Z" fill="#00A3FF"/>
<path fill-rule="evenodd" clip-rule="evenodd" d="M81.2424 65.0982C81.5632 64.964 82.0796 64.9003 82.3422 64.9883C82.3764 64.9997 82.9845 65.5955 83.0012 65.6482C83.2111 66.2897 82.9462 66.8035 82.6713 67.078C82.4669 67.2823 81.9403 67.6361 81.2415 67.4079C81.1312 67.3721 80.6136 66.8472 80.582 66.748C80.3657 66.0821 80.4945 65.4117 81.2424 65.0982Z" fill="#00A3FF"/>
<path fill-rule="evenodd" clip-rule="evenodd" d="M88.0614 65.0982C88.4509 64.9928 88.8084 64.9741 89.0513 65.0982C89.279 65.2151 89.5604 65.6761 89.6012 65.9781C89.8317 67.6888 87.2933 67.983 87.1815 66.3081C87.1293 65.5231 87.3726 65.2848 88.0614 65.0982Z" fill="#00A3FF"/>
<path fill-rule="evenodd" clip-rule="evenodd" d="M61.6652 65.2082C62.2156 65.0382 63.0387 65.3251 63.095 66.0881C63.1432 66.7398 62.5634 67.264 62.1052 67.2979C61.0429 67.3763 60.295 65.6317 61.6652 65.2082Z" fill="#00A3FF"/>
<path fill-rule="evenodd" clip-rule="evenodd" d="M55.0662 65.4282C56.6628 64.7596 56.5693 67.506 55.0662 67.078C54.3811 66.8827 54.3481 65.7288 55.0662 65.4282Z" fill="#00A3FF"/>
<path fill-rule="evenodd" clip-rule="evenodd" d="M49.347 65.8681C49.4625 66.5702 49.1692 66.8635 48.4672 66.748C47.7381 66.1688 48.7678 65.139 49.347 65.8681Z" fill="#00A3FF"/>
<path fill-rule="evenodd" clip-rule="evenodd" d="M71.6738 68.1778C72.408 68.047 73.2717 68.4842 73.3235 69.3876C73.368 70.163 72.6233 70.8921 72.0037 70.9274C71.3342 70.9654 70.464 70.372 70.464 69.4976C70.464 68.7667 70.9621 68.3066 71.6738 68.1778Z" fill="#00A3FF"/>
<path fill-rule="evenodd" clip-rule="evenodd" d="M78.1628 68.1778C80.2929 67.6994 80.4551 70.8307 78.6028 70.9274C77.8013 70.9691 77.063 70.4811 77.063 69.4976C77.063 68.7451 77.3659 68.357 78.1628 68.1778Z" fill="#00A3FF"/>
<path fill-rule="evenodd" clip-rule="evenodd" d="M84.8719 68.1778C84.9181 68.1695 84.9695 68.06 85.0918 68.0678C85.8878 68.1173 86.4845 68.7406 86.5212 69.3876C86.5661 70.163 85.8214 70.8921 85.2014 70.9274C84.5318 70.9654 83.662 70.372 83.662 69.4976C83.662 68.7667 84.1602 68.3066 84.8719 68.1778Z" fill="#00A3FF"/>
<path fill-rule="evenodd" clip-rule="evenodd" d="M64.9648 68.2878C65.7049 68.0999 66.6145 68.5256 66.6145 69.4976C66.6145 70.2359 65.9743 70.784 65.4047 70.8174C64.7906 70.8536 63.9749 70.4581 63.9749 69.4976C63.9749 68.8295 64.2283 68.4748 64.9648 68.2878Z" fill="#00A3FF"/>
<path fill-rule="evenodd" clip-rule="evenodd" d="M58.5857 68.3978C58.7795 68.3712 59.0705 68.3148 59.2456 68.3978C59.3592 68.4514 59.7671 68.8844 59.7955 68.9477C59.927 69.2387 59.8872 69.845 59.7955 70.0475C59.7653 70.114 59.2227 70.6075 59.2456 70.5975C58.198 71.0713 57.2017 69.7959 57.5958 68.9477C57.5986 68.9422 58.0674 68.4317 58.1458 68.3978C58.2599 68.3487 58.4615 68.4147 58.5857 68.3978Z" fill="#00A3FF"/>
<path fill-rule="evenodd" clip-rule="evenodd" d="M51.9867 68.6177C52.3235 68.5568 52.7423 68.6897 52.8665 68.8377C53.1021 69.1191 53.0549 70.0182 52.7565 70.2675C52.4733 70.5049 51.6521 70.5461 51.3268 70.1575C51.1343 69.9275 51.0784 69.1182 51.3268 68.8377C51.4606 68.686 51.7392 68.6622 51.9867 68.6177Z" fill="#00A3FF"/>
<path fill-rule="evenodd" clip-rule="evenodd" d="M46.0475 69.1677C46.1625 69.8697 45.8697 70.163 45.1676 70.0475C44.4381 69.4687 45.4687 68.4381 46.0475 69.1677Z" fill="#00A3FF"/>
<path fill-rule="evenodd" clip-rule="evenodd" d="M68.4843 71.3673C68.8939 71.3233 69.4287 71.432 69.6941 71.6973C70.2275 72.2307 70.1047 73.4868 69.6941 73.897C69.2065 74.3846 68.0058 74.4084 67.4944 73.897C67.3056 73.7082 67.0352 73.0451 67.0545 72.6871C67.0659 72.4786 67.2918 71.9214 67.3844 71.8073C67.609 71.5314 68.0553 71.4132 68.4843 71.3673Z" fill="#00A3FF"/>
<path fill-rule="evenodd" clip-rule="evenodd" d="M74.7533 71.3673C75.0943 71.2743 75.3642 71.1955 75.6332 71.2574C76.0223 71.3472 76.6762 72.0396 76.7331 72.5772C76.8275 73.4722 76.1565 74.2585 75.4132 74.3369C74.6855 74.4134 73.582 74.0381 73.6535 72.6871C73.6837 72.118 73.9472 71.5873 74.7533 71.3673Z" fill="#00A3FF"/>
<path fill-rule="evenodd" clip-rule="evenodd" d="M81.3524 71.3673C81.6929 71.2743 81.9628 71.1955 82.2323 71.2574C82.6213 71.3472 83.2753 72.0396 83.3316 72.5772C83.426 73.4722 82.7551 74.2585 82.0118 74.3369C81.2841 74.4134 80.1806 74.0381 80.2521 72.6871C80.2828 72.118 80.5458 71.5873 81.3524 71.3673Z" fill="#00A3FF"/>
<path fill-rule="evenodd" clip-rule="evenodd" d="M61.8852 71.4773C62.5208 71.4054 63.3787 71.8668 63.425 72.6871C63.4621 73.342 62.859 74.1843 62.1052 74.2269C61.4247 74.2654 60.5292 73.721 60.5654 72.6871C60.5645 72.7188 60.6497 72.3178 60.6754 72.2472C60.7913 71.931 61.1625 71.5594 61.8852 71.4773Z" fill="#00A3FF"/>
<path fill-rule="evenodd" clip-rule="evenodd" d="M55.0662 71.6973C55.9025 71.4668 56.5514 71.8618 56.606 72.6871C56.7196 74.396 54.2862 74.4121 54.1863 72.9071C54.157 72.4626 54.2262 71.9292 55.0662 71.6973Z" fill="#00A3FF"/>
<path fill-rule="evenodd" clip-rule="evenodd" d="M48.5772 71.9173C48.9552 71.8169 49.359 71.8971 49.567 72.1372C49.5876 72.1611 49.7787 72.5886 49.787 72.6871C49.836 73.2852 49.3195 73.7531 48.9071 73.787C47.9658 73.864 47.1455 72.2976 48.5772 71.9173Z" fill="#00A3FF"/>
<path fill-rule="evenodd" clip-rule="evenodd" d="M42.748 72.4672C42.8635 73.1692 42.5702 73.4625 41.8681 73.3471C41.139 72.7678 42.1688 71.7381 42.748 72.4672Z" fill="#00A3FF"/>
<path fill-rule="evenodd" clip-rule="evenodd" d="M71.4538 74.5569C71.8099 74.4684 72.0248 74.3846 72.3337 74.4469C72.8149 74.544 73.4555 75.17 73.5435 75.7667C73.6947 76.7923 72.9977 77.6323 72.2237 77.7464C71.2673 77.8876 70.1166 77.2442 70.244 75.8767C70.2958 75.3222 70.5854 74.7727 71.4538 74.5569Z" fill="#00A3FF"/>
<path fill-rule="evenodd" clip-rule="evenodd" d="M77.9429 74.5569C78.3677 74.4322 78.7668 74.3795 79.0427 74.4469C79.3048 74.5111 80.0445 75.148 80.1421 75.5467C80.5312 77.1268 79.0629 78.0218 77.9424 77.7464C77.678 77.6813 76.9278 76.9894 76.8426 76.6466C76.6116 75.7135 76.9617 74.8451 77.9429 74.5569Z" fill="#00A3FF"/>
<path fill-rule="evenodd" clip-rule="evenodd" d="M64.8548 74.6669C65.1957 74.5798 65.4395 74.4973 65.7347 74.5569C66.1205 74.6348 66.4555 75.0509 66.6145 75.2168C66.9953 75.6141 66.7955 76.9545 66.3946 77.3065C66.3221 77.3702 66.2397 77.3541 66.1746 77.4165C65.9803 77.603 64.9767 77.7487 64.5248 77.5265C64.4758 77.5022 64.4552 77.3248 64.4148 77.3065C64.3658 77.284 64.2343 77.3413 64.1949 77.3065C64.0189 77.152 63.8031 76.6974 63.7549 76.4266C63.6142 75.6288 63.9217 74.9052 64.8548 74.6669Z" fill="#00A3FF"/>
<path fill-rule="evenodd" clip-rule="evenodd" d="M58.3657 74.7768C60.4953 74.2989 60.658 77.4298 58.8057 77.5265C58.0042 77.5682 57.2659 77.0806 57.2659 76.0967C57.2659 75.3442 57.5688 74.956 58.3657 74.7768Z" fill="#00A3FF"/>
<path fill-rule="evenodd" clip-rule="evenodd" d="M51.6567 74.9968C52.3954 74.7429 53.1699 75.0678 53.3065 75.7667C53.4581 76.5426 52.9472 77.2047 52.4266 77.3065C51.0358 77.5782 50.1756 75.5055 51.6567 74.9968Z" fill="#00A3FF"/>
<path fill-rule="evenodd" clip-rule="evenodd" d="M45.3876 75.2168C45.7249 75.1563 46.1438 75.2887 46.2675 75.4368C46.503 75.7186 46.4554 76.6173 46.1575 76.8665C45.8738 77.1039 45.0531 77.1452 44.7277 76.7566C44.5352 76.5265 44.4798 75.7172 44.7277 75.4368C44.8615 75.2851 45.1402 75.2612 45.3876 75.2168Z" fill="#00A3FF"/>
<path fill-rule="evenodd" clip-rule="evenodd" d="M68.3743 77.7464C68.416 77.7405 68.4728 77.6199 68.5942 77.6364C69.344 77.7395 69.7321 78.047 70.024 78.5163C70.0854 78.6148 70.3398 79.0025 70.354 79.2862C70.4213 80.6482 68.8738 81.5468 67.7144 80.826C67.35 80.5996 66.8345 80.15 66.8345 79.3962C66.8345 79.1822 66.9394 78.6836 67.0545 78.5163C67.082 78.4764 67.2584 78.4412 67.2744 78.4063C67.433 78.0548 67.6841 77.8431 68.3743 77.7464Z" fill="#00A3FF"/>
<path fill-rule="evenodd" clip-rule="evenodd" d="M74.6433 77.7464C75.1616 77.5989 75.4064 77.5549 75.7432 77.6364C76.0841 77.7189 76.838 78.3875 76.953 78.9562C77.1876 80.118 76.2968 81.3809 74.8633 81.1559C74.1255 81.04 73.2456 80.386 73.4335 79.0662C73.4991 78.6075 73.8464 77.9737 74.6433 77.7464Z" fill="#00A3FF"/>
<path fill-rule="evenodd" clip-rule="evenodd" d="M61.7752 77.8564C64.0519 77.5058 64.199 81.0459 61.9952 81.0459C61.2803 81.0459 60.3454 80.5226 60.3454 79.3962C60.3454 78.5346 60.8692 77.9957 61.7752 77.8564Z" fill="#00A3FF"/>
<path fill-rule="evenodd" clip-rule="evenodd" d="M54.9562 78.0764C55.7825 77.8367 56.6834 78.2116 56.826 79.0662C56.9639 79.8957 56.419 80.7105 55.7261 80.826C55.0016 80.9465 53.8949 80.6404 53.9664 79.2862C53.9943 78.761 54.1836 78.3005 54.9562 78.0764Z" fill="#00A3FF"/>
<path fill-rule="evenodd" clip-rule="evenodd" d="M48.4672 78.2963C49.3035 78.0654 49.952 78.4604 50.0069 79.2862C50.1206 80.9951 47.6872 81.0111 47.5873 79.5062C47.558 79.0616 47.6272 78.5282 48.4672 78.2963Z" fill="#00A3FF"/>
<path fill-rule="evenodd" clip-rule="evenodd" d="M71.4538 80.936C72.6696 80.6518 73.901 81.4529 73.7635 82.9157C73.6915 83.6796 72.9533 84.4628 72.2237 84.5654C71.3168 84.6928 69.8783 84.027 70.024 82.4757C70.085 81.8273 70.4919 81.1605 71.4538 80.936Z" fill="#00A3FF"/>
<path fill-rule="evenodd" clip-rule="evenodd" d="M77.9429 80.936C78.4745 80.7962 78.6912 80.7513 79.0427 80.826C79.0317 80.8237 79.319 80.9094 79.3727 80.936C79.4217 80.9602 79.4423 81.1376 79.4827 81.1559C80.0605 81.4162 80.5632 82.3034 80.3625 83.2456C80.264 83.7062 79.6087 84.4394 79.0427 84.5654C78.6243 84.6589 77.9058 84.6016 77.6129 84.4555C77.5643 84.4312 77.5433 84.2538 77.5029 84.2355C77.2454 84.1195 77.1075 83.9614 76.843 83.6856C76.7001 83.5366 76.4837 82.7988 76.6231 82.1458C76.706 81.7567 77.1382 81.1472 77.9429 80.936Z" fill="#00A3FF"/>
<path fill-rule="evenodd" clip-rule="evenodd" d="M64.8548 81.0459C66.5737 80.6445 67.4344 82.2031 66.9445 83.4656C66.7126 84.0641 65.6709 84.7904 64.5248 84.3455C63.4112 83.9133 62.9873 81.4822 64.8548 81.0459Z" fill="#00A3FF"/>
<path fill-rule="evenodd" clip-rule="evenodd" d="M58.4757 81.1559C60.7524 80.8054 60.8995 84.3455 58.6957 84.3455C57.9812 84.3455 57.0459 83.8221 57.0459 82.6957C57.0459 81.8342 57.5702 81.2952 58.4757 81.1559Z" fill="#00A3FF"/>
<path fill-rule="evenodd" clip-rule="evenodd" d="M51.7667 81.3759C53.8963 80.8979 54.0589 84.0288 52.2066 84.1255C51.4051 84.1672 50.6668 83.6796 50.6668 82.6957C50.6668 81.9437 50.9698 81.5551 51.7667 81.3759Z" fill="#00A3FF"/>
<path fill-rule="evenodd" clip-rule="evenodd" d="M45.3876 81.5959C45.5815 81.5693 45.8729 81.5129 46.0475 81.5959C46.1612 81.6499 46.5686 82.0825 46.5974 82.1458C46.729 82.4368 46.6891 83.0431 46.5974 83.2456C46.5677 83.3125 46.0246 83.8061 46.0475 83.7955C44.9999 84.2689 44.0037 82.9936 44.3978 82.1458C44.4005 82.1398 44.8693 81.6298 44.9477 81.5959C45.0618 81.5464 45.263 81.6128 45.3876 81.5959Z" fill="#00A3FF"/>
</g>
<path d="M71.0002 77V91.6104C71.0002 94.2348 69.8545 96.7287 67.8635 98.4385L62.2629 103.247C58.8905 106.143 53.9097 106.143 50.5373 103.247L44.9367 98.4385C42.9456 96.7287 41.8 94.2348 41.8 91.6104V77H71.0002Z" fill="white" stroke="#2F3237" stroke-width="2"/>
<path d="M50.4 102.4H62.4L59.8142 104.986C58.9087 105.891 57.6806 106.4 56.4 106.4C55.1194 106.4 53.8913 105.891 52.9858 104.986L50.4 102.4Z" fill="#2F3237"/>
<path d="M11.2 43.7384H19.4609M102.4 43.7384H94.1391" stroke="#006FFF" stroke-width="2"/>
<path d="M56.8 -1.86157L56.8 6.3993" stroke="#006FFF" stroke-width="2"/>
<path d="M23.477 10.4154L29.5137 16.4522M90.1231 77.0615L84.0863 71.0247" stroke="#006FFF" stroke-width="2"/>
<path d="M90.123 10.4154L84.0863 16.4522M23.4769 77.0615L29.5137 71.0247" stroke="#006FFF" stroke-width="2"/>
<path d="M58.8 77.2L41.6 84" stroke="#2F3237" stroke-width="2"/>
<path d="M71.2 79.2L41.6 91.2" stroke="#2F3237" stroke-width="2"/>
<path d="M60 90.4L43.2 97.6" stroke="#2F3237" stroke-width="2"/>
<path d="M54.1981 76C54.1981 64.4263 54.3019 54.6486 48.7968 46.0681C46.3505 42.2552 40.3717 39.1061 36.7478 42.4762C35.4918 43.6443 35.6994 46.7959 38.2828 47.0215C49.6752 48.0163 64.1569 37.5656 62.9231 25.7144C62.621 22.8123 59.6357 23.8924 58.1913 26.7343C56.2754 30.5035 56.1371 35.3418 57.1756 39.4609C59.0038 46.7118 68.1924 51.3839 74.5566 46.0681C75.5283 45.2564 77.0526 42.6217 74.9259 41.7335C72.9572 40.9113 69.5685 42.182 68.0012 43.2079C57.2355 50.2552 57.8754 64.8 57.8754 76" stroke="white" stroke-width="2" stroke-linejoin="round"/>
</g>
<defs>
<clipPath id="clip0_9_51">
<rect width="112" height="112" fill="white"/>
</clipPath>
</defs>
</svg>
