<svg width="291" height="144" viewBox="0 0 291 144" fill="none" xmlns="http://www.w3.org/2000/svg">
<path d="M39.5103 86.9097H26.0449L25.1934 36.5078H40.3618L39.5103 86.9097ZM24.1289 106.762C24.1289 104.42 24.8918 102.468 26.4175 100.907C27.9432 99.346 30.0544 98.5654 32.751 98.5654C35.3766 98.5654 37.4701 99.346 39.0312 100.907C40.5924 102.468 41.373 104.42 41.373 106.762C41.373 109.033 40.5924 110.949 39.0312 112.51C37.4701 114.035 35.3766 114.798 32.751 114.798C30.0544 114.798 27.9432 114.035 26.4175 112.51C24.8918 110.949 24.1289 109.033 24.1289 106.762ZM116.257 85.2065H125.252V97.1816H116.257V114H101.461V97.1816H69.2617L68.6763 87.9209L101.249 36.5078H116.257V85.2065ZM83.2061 85.2065H101.461V56.4131L100.024 58.9678L83.2061 85.2065ZM188.959 84.5146C188.959 89.5176 188.374 93.9351 187.203 97.7671C186.068 101.564 184.418 104.739 182.253 107.294C180.089 109.884 177.446 111.836 174.323 113.148C171.201 114.461 167.688 115.118 163.785 115.118C159.918 115.118 156.423 114.461 153.3 113.148C150.178 111.836 147.535 109.884 145.37 107.294C143.17 104.739 141.467 101.564 140.261 97.7671C139.09 93.9351 138.504 89.5176 138.504 84.5146V65.9932C138.504 60.9902 139.09 56.5905 140.261 52.7939C141.432 48.9619 143.117 45.7508 145.317 43.1606C147.481 40.606 150.107 38.6722 153.194 37.3594C156.316 36.0465 159.811 35.3901 163.679 35.3901C167.582 35.3901 171.094 36.0465 174.217 37.3594C177.339 38.6722 180 40.606 182.2 43.1606C184.365 45.7508 186.032 48.9619 187.203 52.7939C188.374 56.5905 188.959 60.9902 188.959 65.9932V84.5146ZM153.407 78.1279L174.057 62.7466C173.986 59.8371 173.667 57.3534 173.099 55.2954C172.567 53.202 171.769 51.5343 170.704 50.2925C169.888 49.299 168.877 48.5716 167.67 48.1104C166.5 47.6136 165.169 47.3652 163.679 47.3652C162.011 47.3652 160.539 47.6846 159.261 48.3232C158.019 48.9264 156.973 49.849 156.121 51.0908C155.199 52.4036 154.507 54.1068 154.045 56.2002C153.62 58.2936 153.407 60.7773 153.407 63.6514V72.2202C153.407 73.9233 153.407 75.0588 153.407 75.6265C153.407 76.1942 153.407 77.028 153.407 78.1279ZM174.057 86.75V77.7554C174.057 76.5845 174.057 75.7329 174.057 75.2007C174.057 74.633 174.057 73.8346 174.057 72.8057L153.407 88.1338C153.478 90.4756 153.708 92.5513 154.099 94.3608C154.524 96.1704 155.11 97.6784 155.855 98.8848C156.707 100.34 157.789 101.422 159.102 102.131C160.414 102.841 161.976 103.196 163.785 103.196C165.453 103.196 166.925 102.894 168.203 102.291C169.48 101.652 170.544 100.694 171.396 99.417C172.283 98.0687 172.939 96.3478 173.365 94.2544C173.826 92.1255 174.057 89.624 174.057 86.75ZM247.185 85.2065H256.18V97.1816H247.185V114H232.389V97.1816H200.189L199.604 87.9209L232.176 36.5078H247.185V85.2065ZM214.134 85.2065H232.389V56.4131L230.952 58.9678L214.134 85.2065Z" fill="#FFE3DB"/>
<path d="M68.5103 86.9097H55.0449L54.1934 36.5078H69.3618L68.5103 86.9097ZM53.1289 106.762C53.1289 104.42 53.8918 102.468 55.4175 100.907C56.9432 99.346 59.0544 98.5654 61.751 98.5654C64.3766 98.5654 66.4701 99.346 68.0312 100.907C69.5924 102.468 70.373 104.42 70.373 106.762C70.373 109.033 69.5924 110.949 68.0312 112.51C66.4701 114.035 64.3766 114.798 61.751 114.798C59.0544 114.798 56.9432 114.035 55.4175 112.51C53.8918 110.949 53.1289 109.033 53.1289 106.762ZM145.257 85.2065H154.252V97.1816H145.257V114H130.461V97.1816H98.2617L97.6763 87.9209L130.249 36.5078H145.257V85.2065ZM112.206 85.2065H130.461V56.4131L129.024 58.9678L112.206 85.2065ZM217.959 84.5146C217.959 89.5176 217.374 93.9351 216.203 97.7671C215.068 101.564 213.418 104.739 211.253 107.294C209.089 109.884 206.446 111.836 203.323 113.148C200.201 114.461 196.688 115.118 192.785 115.118C188.918 115.118 185.423 114.461 182.3 113.148C179.178 111.836 176.535 109.884 174.37 107.294C172.17 104.739 170.467 101.564 169.261 97.7671C168.09 93.9351 167.504 89.5176 167.504 84.5146V65.9932C167.504 60.9902 168.09 56.5905 169.261 52.7939C170.432 48.9619 172.117 45.7508 174.317 43.1606C176.481 40.606 179.107 38.6722 182.194 37.3594C185.316 36.0465 188.811 35.3901 192.679 35.3901C196.582 35.3901 200.094 36.0465 203.217 37.3594C206.339 38.6722 209 40.606 211.2 43.1606C213.365 45.7508 215.032 48.9619 216.203 52.7939C217.374 56.5905 217.959 60.9902 217.959 65.9932V84.5146ZM182.407 78.1279L203.057 62.7466C202.986 59.8371 202.667 57.3534 202.099 55.2954C201.567 53.202 200.769 51.5343 199.704 50.2925C198.888 49.299 197.877 48.5716 196.67 48.1104C195.5 47.6136 194.169 47.3652 192.679 47.3652C191.011 47.3652 189.539 47.6846 188.261 48.3232C187.019 48.9264 185.973 49.849 185.121 51.0908C184.199 52.4036 183.507 54.1068 183.045 56.2002C182.62 58.2936 182.407 60.7773 182.407 63.6514V72.2202C182.407 73.9233 182.407 75.0588 182.407 75.6265C182.407 76.1942 182.407 77.028 182.407 78.1279ZM203.057 86.75V77.7554C203.057 76.5845 203.057 75.7329 203.057 75.2007C203.057 74.633 203.057 73.8346 203.057 72.8057L182.407 88.1338C182.478 90.4756 182.708 92.5513 183.099 94.3608C183.524 96.1704 184.11 97.6784 184.855 98.8848C185.707 100.34 186.789 101.422 188.102 102.131C189.414 102.841 190.976 103.196 192.785 103.196C194.453 103.196 195.925 102.894 197.203 102.291C198.48 101.652 199.544 100.694 200.396 99.417C201.283 98.0687 201.939 96.3478 202.365 94.2544C202.826 92.1255 203.057 89.624 203.057 86.75ZM276.185 85.2065H285.18V97.1816H276.185V114H261.389V97.1816H229.189L228.604 87.9209L261.176 36.5078H276.185V85.2065ZM243.134 85.2065H261.389V56.4131L259.952 58.9678L243.134 85.2065Z" fill="#FFA388"/>
</svg>
