<svg width="471" height="481" viewBox="0 0 471 481" fill="none" xmlns="http://www.w3.org/2000/svg">
<circle cx="254.5" cy="277.5" r="203.5" fill="url(#paint0_linear_2158_2042)"/>
<circle cx="219" cy="219" r="219" fill="url(#paint1_linear_2158_2042)" fill-opacity="0.08"/>
<path d="M470.19 163.755C471.31 153.025 468.506 149.413 460.261 145.25L384.888 128.1L194.877 365.049L301.843 396.642L367.286 305.924L470.19 163.755Z" fill="#535353" stroke="#084D6F"/>
<rect x="196.764" y="353.914" width="71.6705" height="16.4807" transform="rotate(17.8828 196.764 353.914)" fill="#535353" stroke="#084D6F"/>
<path d="M459.809 145.25L368.189 123.135C358.623 121.437 354.63 124.17 348.33 131.259L189.461 336.164L181.789 359.182L189.461 363.695L284.241 395.74L296.878 393.031L313.126 371.819L465.225 160.144C467.662 151.783 466.301 148.62 459.809 145.25Z" fill="#D0D2E6" stroke="#084D6F"/>
<path d="M431.566 211.43L441.096 198.048C443.325 197.078 444.705 197.939 444.322 200.209L434.805 214.041C432.604 215.914 430.745 214.164 431.566 211.43Z" fill="#3D3A3A" stroke="#084D6F"/>
<path d="M447.172 172.781L342.463 145.701L198.488 331.65L306.356 369.562L307.71 367.757L447.172 172.781Z" fill="#084D6F" stroke="#084D6F"/>
<path d="M237.137 363.027C235.866 365.229 234.072 366.827 232.219 367.644C230.366 368.461 228.491 368.485 226.99 367.619C225.49 366.752 224.573 365.117 224.354 363.103C224.135 361.09 224.622 358.737 225.893 356.535C227.164 354.334 228.959 352.736 230.812 351.919C232.665 351.102 234.539 351.077 236.04 351.944C237.541 352.81 238.457 354.446 238.676 356.459C238.895 358.472 238.409 360.826 237.137 363.027Z" fill="#535353" stroke="#084D6F"/>
<path d="M417.835 135.321L460.26 145.664C466.128 149.275 467.887 152.737 465.225 160.107L377.667 282.004L337.949 338.42L260.32 392.129L234.143 383.553L295.976 272.977C350.663 185.49 375.286 165.131 417.835 135.321Z" fill="#00283C" fill-opacity="0.25"/>
<rect x="395.519" y="142.542" width="18.0533" height="2.70799" rx="1.354" transform="rotate(15 395.519 142.542)" fill="#535353"/>
<rect x="387" y="138.707" width="4.77206" height="4.67132" rx="2.33566" transform="rotate(15 387 138.707)" fill="#535353"/>
<path d="M312.223 291.029L325.312 324.428C326.489 326.547 327.645 328.327 328.864 329.845C341.509 324.117 349.428 318.208 365.029 303.216C371.735 293.714 375.987 289.955 382.256 286.968C383.466 285.05 384.251 284.022 386.242 282.455C392.954 278.84 395.804 279.954 398.879 286.968C403.323 300.858 404.622 307.969 405.649 319.916C412.292 330.765 414.043 336.167 411.516 343.836C409.949 349.604 408.67 354.05 407.215 358.73C413.773 368.659 421.491 372.061 419.64 385.359L416.932 398.862C412.419 404.278 409.409 408.187 404.746 413.304C396.425 422.439 386.193 433.002 369.994 443.995C344.719 461.145 326.944 467.494 297.329 475.588L295.073 471.526C286.347 457.384 268.895 428.235 268.895 422.819C260.815 405.869 258.716 392.612 260.771 360.084C261.502 352.317 261.96 347.288 263.028 334.809C263.008 331.825 263.229 329.321 264.382 322.172C267.028 314.476 267.137 307.008 267.362 299.154C263.479 294.19 267.534 285.902 270.701 280.198L276.117 275.684C282.078 270.663 288.012 271.197 299.586 273.427C305.442 276.47 308.166 280.511 312.223 291.029Z" fill="white"/>
<path d="M345.17 338.871C337.275 336.863 332.75 334.686 328.864 329.845M267.541 294.19C267.073 303.907 267.579 312.872 264.382 322.172C263.229 329.321 263.008 331.825 263.028 334.809C261.96 347.288 261.502 352.317 260.771 360.084C258.716 392.612 260.815 405.869 268.895 422.819C268.895 428.235 286.347 457.384 295.073 471.526L297.329 475.588C326.944 467.494 344.719 461.145 369.994 443.995C386.193 433.002 396.425 422.439 404.746 413.304C409.409 408.187 412.419 404.278 416.932 398.862L419.64 385.359C421.491 372.061 413.773 368.659 407.215 358.73M328.864 329.845C327.645 328.327 326.489 326.547 325.312 324.428L312.223 291.029C308.166 280.511 305.442 276.47 299.586 273.427C288.012 271.197 282.078 270.663 276.117 275.684L270.701 280.198C267.534 285.902 263.479 294.19 267.362 299.154M328.864 329.845C341.509 324.117 349.428 318.208 365.029 303.216C371.735 293.714 375.987 289.955 382.256 286.968M385.339 285.614C384.251 286.059 383.229 286.505 382.256 286.968M382.256 286.968C383.466 285.05 384.251 284.022 386.242 282.455C392.954 278.84 395.804 279.954 398.879 286.968C403.323 300.858 404.622 307.969 405.649 319.916M405.649 319.916C412.292 330.765 414.043 336.167 411.516 343.836C409.949 349.604 408.67 354.05 407.215 358.73M405.649 319.916C406.387 327.325 406.764 331.479 404.746 338.871M402.941 371.819C404.667 366.694 406.002 362.631 407.215 358.73" stroke="#084D6F" stroke-linecap="round"/>
<path d="M345.17 338.871C337.275 336.863 332.75 334.686 328.864 329.845M267.541 294.19C267.073 303.907 267.579 312.872 264.382 322.172C263.229 329.321 263.008 331.825 263.028 334.809C261.96 347.288 261.502 352.317 260.771 360.084C258.716 392.612 260.815 405.869 268.895 422.819C271.32 429.845 289.616 462.118 297.329 475.588C340.444 466.545 386.422 440.722 417 398.5L419.64 385.359C421.491 372.061 413.773 368.659 407.215 358.73M328.864 329.845C327.645 328.327 326.489 326.547 325.312 324.428L312.223 291.029C308.166 280.511 305.442 276.47 299.586 273.427C288.012 271.197 282.078 270.663 276.117 275.684L270.701 280.198C267.534 285.902 263.479 294.19 267.362 299.154M328.864 329.845C341.509 324.117 349.428 318.208 365.029 303.216C371.735 293.714 375.987 289.955 382.256 286.968M385.339 285.614C384.251 286.059 383.229 286.505 382.256 286.968M382.256 286.968C383.466 285.05 384.251 284.022 386.242 282.455C392.954 278.84 395.804 279.954 398.879 286.968C403.323 300.858 404.622 307.969 405.649 319.916M405.649 319.916C412.292 330.765 414.043 336.167 411.516 343.836C409.949 349.604 408.67 354.05 407.215 358.73M405.649 319.916C406.387 327.325 406.764 331.479 404.746 338.871M402.941 371.819C404.667 366.694 406.002 362.631 407.215 358.73" stroke="#084D6F" stroke-linecap="round"/>
<path d="M110.478 363.243C117.387 340.445 121.912 327.723 124.921 304.57C127.275 290.036 132.188 286.114 140.717 278.844L182.24 239.578C188.25 233.668 191.97 232.47 199.39 235.065C199.694 235.224 199.994 235.385 200.293 235.548L226.922 209.34C232.452 201.453 236.535 198.773 244.072 194.446L279.276 170.074C286.448 163.665 291.077 161.112 299.586 156.985C305.25 153.899 307.353 152.394 310.869 149.764C322.069 143.175 328.057 143.444 332.533 151.118L306.807 184.967C303.9 188.992 301.701 191.565 298.441 194.446C297.317 195.438 296.068 196.467 294.621 197.605C281.957 210.555 274.834 217.968 263.791 231.003C263.539 231.301 263.285 231.602 263.028 231.906C251.072 246.267 245.852 254.631 241.364 270.54C242.842 271.684 244.457 272.849 246.329 274.143C247.042 274.636 247.792 275.148 248.585 275.685C252.147 280.347 249.139 284.899 238.205 287.42C234.384 288.742 230.84 289.201 226.47 289.036L195.328 329.845C190.149 343.079 189.162 350.729 192.62 365.049C193.565 367.297 194.337 369.386 194.945 371.367C213.901 378.137 259.417 391.677 259.417 391.677C259.417 391.677 261.223 403.863 263.028 408.828C257.491 422.727 241.558 439.46 232.776 445.386C230.721 462.754 233.992 467.193 237 480C210 478 185.151 470.249 162.381 459.34C137.585 450.006 101 411.499 101 411.499L110.478 363.243Z" fill="white"/>
<path d="M200.293 281.101C197.46 274.674 198.706 268.949 199.391 259.889M200.293 281.101C192.855 284.865 188.787 287.235 184.045 297.801C183.024 304.392 182.683 307.834 184.045 311.792C186.236 315.63 189.991 322.336 190.815 323.527M200.293 281.101C201.986 282.838 203.464 284.094 205.258 285.059C207.211 286.109 209.54 286.815 212.931 287.42C218.481 288.31 222.772 288.897 226.47 289.036M200.293 235.548C199.995 235.385 199.694 235.224 199.391 235.065C191.97 232.47 188.251 233.668 182.24 239.578L140.717 278.844C132.188 286.114 127.275 290.036 124.921 304.57C121.912 327.723 117.387 340.445 110.478 363.243L101.5 411C121.271 431.076 124.47 433.614 147.036 450.313C177.181 466.229 198.588 474.535 236.5 479.5C233.492 466.693 230.721 462.754 232.776 445.386C241.558 439.46 257.492 422.727 263.028 408.828C261.223 403.863 259.478 392.235 259.869 387.615C259.901 387.239 259.94 392.129 259.94 392.129C246.043 388.512 204.895 374.576 194.945 371.367L192.621 365.049M200.293 235.548C211.577 241.698 219.643 250.548 232.789 262.597C235.761 265.822 238.256 268.134 241.364 270.54M200.293 235.548L226.922 209.34C232.453 201.453 236.536 198.773 244.072 194.446L279.276 170.074C286.448 163.665 291.078 161.112 299.586 156.985C305.25 153.899 307.353 152.394 310.87 149.764C322.069 143.175 328.057 143.444 332.533 151.118L306.808 184.967C303.901 188.992 301.701 191.565 298.441 194.446M192.621 365.049C189.162 350.729 190.15 343.079 195.329 329.845L226.47 289.036M192.621 365.049C194.703 370.002 195.942 374.181 196.448 378.137M298.441 194.446C297.318 195.438 296.069 196.467 294.622 197.605C281.957 210.555 274.834 217.968 263.792 231.003M298.441 194.446C295.708 184.518 292.442 180.719 284.692 175.941M249.94 208.437C252.396 220.285 254.697 225.978 263.792 231.003M263.792 231.003C263.539 231.301 263.285 231.602 263.028 231.906C251.072 246.267 245.852 254.631 241.364 270.54M267.542 225.587C266.584 215.195 263.474 212.242 255.807 209.34C252.508 208.029 250.402 206.447 246.329 202.569M226.47 289.036C230.84 289.201 234.384 288.742 238.205 287.42C249.139 284.899 252.147 280.347 248.586 275.685C247.792 275.149 247.042 274.636 246.329 274.143C244.458 272.849 242.842 271.684 241.364 270.54" stroke="#084D6F" stroke-linecap="round"/>
<path d="M317.64 156.985C321.346 154.65 324.548 154.497 328.923 155.631L302.294 190.383L300.489 192.189C282.809 209.137 272.94 218.792 258.966 236.871C249.849 247.86 245.905 254.847 241.816 269.366C235.785 266.043 232.876 263.377 228.276 257.632C238.215 233.695 246.8 221.432 265.285 200.764C270.034 194.918 273.211 191.698 281.984 186.321L317.64 156.985Z" fill="#A3A7D6" fill-opacity="0.2"/>
<path d="M102.764 410.855L102.119 410.091L100.591 411.381L101.236 412.145L102.764 410.855ZM129.194 438.714C129.615 439.07 130.246 439.017 130.603 438.596C130.96 438.174 130.907 437.543 130.485 437.186L129.194 438.714ZM155.6 454.999L156.033 454.098L156 454.082L155.966 454.069L155.6 454.999ZM185.5 468L185.143 468.934L185.151 468.937L185.5 468ZM101.236 412.145C109.733 422.217 116.245 427.765 129.194 438.714L130.485 437.186C117.533 426.235 111.141 420.783 102.764 410.855L101.236 412.145ZM129.186 438.795C142.21 448.73 148.709 453.368 155.235 455.93L155.966 454.069C149.752 451.629 143.485 447.187 130.399 437.205L129.186 438.795ZM155.168 455.901C167.632 461.88 175.72 465.328 185.143 468.934L185.857 467.066C176.492 463.482 168.453 460.055 156.033 454.098L155.168 455.901ZM185.151 468.937C196.467 473.158 208.722 476.047 218.351 477.88C223.168 478.797 227.336 479.451 230.41 479.875C233.443 480.295 235.487 480.502 236.003 480.5L235.997 478.5C235.653 478.501 233.766 478.32 230.683 477.894C227.641 477.474 223.507 476.825 218.725 475.915C209.155 474.093 197.02 471.23 185.849 467.063L185.151 468.937Z" fill="white"/>
<path d="M396.171 281.552C403.393 277.49 407.455 267.11 402.039 259.437L385.339 282.455C387.968 283.08 389.893 283.155 396.171 281.552Z" fill="white" stroke="#084D6F"/>
<path d="M241.816 277.039C245.136 277.904 246.614 277.699 248.586 276.136L225.568 256.729C222.576 256.185 225.568 261.694 228.728 266.658C230.637 270.04 233.696 272.358 241.816 277.039Z" fill="#EFF0F8" stroke="#084D6F"/>
<path d="M210.638 272.602C221.208 275.612 225.229 279.579 230.948 288.399C229.593 288.919 228.237 288.942 225.533 288.85L194.877 329.808C189.067 344.123 188.931 351.439 192.169 365.012L193.939 370.541L253.966 390.4C252.612 393.409 250.897 398.614 244.037 411.613C237.807 423.549 235.512 431.118 232.338 445.349C231.57 451.738 230.769 455.056 231.851 462.613C232.877 469.681 235.043 472.462 237 479.5C222.159 477.106 212.242 475.994 193.523 470.172C183.058 442.206 169.146 350.457 172.275 316.833C174.238 289.467 178.898 280.326 192.134 272.602C197.506 271.287 201.453 271.207 210.638 272.602Z" fill="#A3A7D6" fill-opacity="0.2"/>
<path d="M141.62 308.181C151.521 291.346 152.752 281.423 156.966 263.95C157.052 263.589 142.559 276.738 135.301 283.357C125.759 292.39 124.931 301.412 123.116 317.207C120.822 329.135 119.105 335.858 115.443 347.898C111.098 361.062 109.219 368.96 106.416 383.553L101 411C108.768 419.178 113.44 423.47 122.5 431.5C128.787 408.559 132.715 386.591 136.204 347.898C134.64 332.044 136.202 323.381 141.62 308.181Z" fill="#A3A7D6" fill-opacity="0.42"/>
<path d="M295.524 293.287C295.605 280.989 294.527 275.42 287.4 271.623C282.273 271.904 279.322 272.832 275.666 276.136C270.701 280.198 268.916 282.203 266.188 290.579C265.521 294.249 265.841 296.244 267.523 299.606C267.429 309.231 266.948 314.356 265.285 319.013C263.785 324.61 263.325 327.993 263.028 334.358C260.721 352.787 259.616 363.211 260.32 383.102C259.718 403.306 264.584 416.003 276.568 439.518C285.852 456.422 285.075 456.525 297.33 474.685L320.799 468.818C312.224 453.473 315.14 459.354 309.967 444.934C298.836 386.363 295.811 353.131 295.524 293.287Z" fill="#A3A7D6" fill-opacity="0.2"/>
<path d="M396.171 281.101C400.444 272.914 400.979 268.24 401.587 259.888L384.888 282.455C390.817 282.78 393.392 282.548 396.171 281.101Z" fill="#A3A7D6" fill-opacity="0.42"/>
<path d="M389.852 287.87C390.041 286.279 389.533 285.213 387.144 282.906C385.741 282.482 384.522 283.712 382.031 286.968C375.761 289.891 371.442 294.265 364.578 303.667C348.195 318.94 339.962 325.393 328.471 329.844C325.117 325.505 324.354 323.487 323.055 319.915C319.483 345.518 318.289 359.255 354.197 354.668C368.114 350.459 373.13 344.785 379.923 332.101C386.434 316.62 387.954 306.489 389.852 287.87Z" fill="#A3A7D6" fill-opacity="0.42"/>
<path d="M297.5 475.5C307.284 473.659 321.5 469.5 337.5 462.5C357.016 453.606 367.963 446.707 387.5 430.5C399.785 418.867 407.35 411.619 417.5 398.5" stroke="white" stroke-width="2"/>
<defs>
<linearGradient id="paint0_linear_2158_2042" x1="254.5" y1="74" x2="254.5" y2="481" gradientUnits="userSpaceOnUse">
<stop stop-color="#2CB5E9"/>
<stop offset="1" stop-color="#007EE6"/>
</linearGradient>
<linearGradient id="paint1_linear_2158_2042" x1="219" y1="0" x2="219" y2="438" gradientUnits="userSpaceOnUse">
<stop stop-color="#30C6FF"/>
<stop offset="0.5" stop-color="#005DD7"/>
<stop offset="1" stop-color="#3900E6"/>
</linearGradient>
</defs>
</svg>
